<svg viewBox="0 0 800 800" xmlns="http://www.w3.org/2000/svg">
<line fill="none" stroke="darkgray" stroke-width="3" x1="400" x2="267" y1="300" y2="400"/>
<line fill="none" stroke="darkgray" stroke-width="3" x1="400" x2="425" y1="300" y2="400"/>
<line fill="none" stroke="darkgray" stroke-width="3" x1="425" x2="267" y1="400" y2="400"/>
<line fill="none" stroke="blue" stroke-width="3" x1="1307" x2="-604" y1="-389" y2="1061"/>
<circle cx="400" cy="300" fill="none" r="166" stroke="blue" stroke-width="3"/>
<circle cx="267" cy="400" fill="none" r="166" stroke="blue" stroke-width="3"/>
<line fill="none" stroke="blue" stroke-width="3" x1="131" x2="715" y1="-769" y2="1557"/>
<circle cx="400" cy="300" fill="none" r="103" stroke="blue" stroke-width="3"/>
<circle cx="425" cy="400" fill="none" r="103" stroke="blue" stroke-width="3"/>
<line fill="none" stroke="blue" stroke-width="3" x1="-800" x2="1600" y1="400" y2="400"/>
<circle cx="267" cy="400" fill="none" r="157" stroke="blue" stroke-width="3"/>
<circle cx="425" cy="400" fill="none" r="157" stroke="blue" stroke-width="3"/>
<circle cx="317" cy="363" fill="none" r="103" stroke="green" stroke-width="3"/>
<line fill="none" stroke="green" stroke-width="3" x1="668" x2="84" y1="-769" y2="1557"/>
<circle cx="374" cy="401" fill="none" r="103" stroke="green" stroke-width="3"/>
<circle cx="400" cy="300" fill="none" r="81" stroke="green" stroke-width="3"/>
<circle cx="335" cy="349" fill="none" r="81" stroke="green" stroke-width="3"/>
<line fill="none" stroke="green" stroke-width="3" x1="1089" x2="-386" y1="-584" y2="1308"/>
<circle cx="400" cy="300" fill="none" r="127" stroke="green" stroke-width="3"/>
<circle cx="321" cy="400" fill="none" r="127" stroke="green" stroke-width="3"/>
<circle cx="400" cy="300" fill="none" r="8" stroke="green" stroke-width="3"/>
<circle cx="393" cy="305" fill="none" r="8" stroke="green" stroke-width="3"/>
<circle cx="400" cy="300" fill="none" r="26" stroke="green" stroke-width="3"/>
<circle cx="406" cy="326" fill="none" r="26" stroke="green" stroke-width="3"/>
<circle cx="267" cy="400" fill="none" r="62" stroke="green" stroke-width="3"/>
<circle cx="317" cy="363" fill="none" r="62" stroke="green" stroke-width="3"/>
<circle cx="267" cy="400" fill="none" r="107" stroke="green" stroke-width="3"/>
<circle cx="374" cy="401" fill="none" r="107" stroke="green" stroke-width="3"/>
<circle cx="267" cy="400" fill="none" r="85" stroke="green" stroke-width="3"/>
<circle cx="335" cy="349" fill="none" r="85" stroke="green" stroke-width="3"/>
<circle cx="267" cy="400" fill="none" r="54" stroke="green" stroke-width="3"/>
<circle cx="321" cy="400" fill="none" r="54" stroke="green" stroke-width="3"/>
<circle cx="393" cy="305" fill="none" r="157" stroke="green" stroke-width="3"/>
<line fill="none" stroke="green" stroke-width="3" x1="1428" x2="-687" y1="-221" y2="911"/>
<circle cx="406" cy="326" fill="none" r="157" stroke="green" stroke-width="3"/>
<line fill="none" stroke="green" stroke-width="3" x1="-729" x2="1534" y1="-5" y2="790"/>
<circle cx="425" cy="400" fill="none" r="114" stroke="green" stroke-width="3"/>
<circle cx="317" cy="363" fill="none" r="114" stroke="green" stroke-width="3"/>
<circle cx="425" cy="400" fill="none" r="50" stroke="green" stroke-width="3"/>
<circle cx="374" cy="401" fill="none" r="50" stroke="green" stroke-width="3"/>
<line fill="none" stroke="green" stroke-width="3" x1="-635" x2="1448" y1="-205" y2="984"/>
<circle cx="335" cy="349" fill="none" r="103" stroke="green" stroke-width="3"/>
<circle cx="321" cy="400" fill="none" r="103" stroke="green" stroke-width="3"/>
<line fill="none" stroke="green" stroke-width="3" x1="40" x2="805" y1="-745" y2="1529"/>
<circle cx="425" cy="400" fill="none" r="100" stroke="green" stroke-width="3"/>
<circle cx="393" cy="305" fill="none" r="100" stroke="green" stroke-width="3"/>
<circle cx="425" cy="400" fill="none" r="76" stroke="green" stroke-width="3"/>
<circle cx="406" cy="326" fill="none" r="76" stroke="green" stroke-width="3"/>
<line fill="none" stroke="green" stroke-width="3" x1="-608" x2="1393" y1="-249" y2="1073"/>
<circle cx="317" cy="363" fill="none" r="68" stroke="green" stroke-width="3"/>
<circle cx="374" cy="401" fill="none" r="68" stroke="green" stroke-width="3"/>
<line fill="none" stroke="green" stroke-width="3" x1="634" x2="18" y1="-779" y2="1540"/>
<circle cx="335" cy="349" fill="none" r="53" stroke="green" stroke-width="3"/>
<circle cx="321" cy="400" fill="none" r="53" stroke="green" stroke-width="3"/>
<line fill="none" stroke="green" stroke-width="3" x1="-209" x2="1086" y1="-634" y2="1385"/>
<circle cx="393" cy="305" fill="none" r="24" stroke="green" stroke-width="3"/>
<circle cx="406" cy="326" fill="none" r="24" stroke="green" stroke-width="3"/>
<line fill="none" stroke="black" stroke-width="3" x1="-511" x2="1360" y1="-381" y2="1120"/>
<line fill="none" stroke="black" stroke-width="3" x1="-70" x2="870" y1="-703" y2="1503"/>
</svg>