<svg viewBox="0 0 800 800" xmlns="http://www.w3.org/2000/svg">
<circle cx="400" cy="400" fill="none" r="80" stroke="darkgray" stroke-width="3"/>
<circle cx="400" cy="400" fill="none" r="2" stroke="darkgray" stroke-width="3"/>
<circle cx="400" cy="400" fill="none" r="261" stroke="darkgray" stroke-width="3"/>
<circle cx="400" cy="400" fill="none" r="2" stroke="darkgray" stroke-width="3"/>
<circle cx="387" cy="321" fill="none" r="80" stroke="darkgray" stroke-width="3"/>
<circle cx="387" cy="321" fill="none" r="2" stroke="darkgray" stroke-width="3"/>
<circle cx="138" cy="400" fill="none" r="261" stroke="blue" stroke-width="3"/>
<circle cx="138" cy="400" fill="none" r="2" stroke="blue" stroke-width="3"/>
<circle cx="462" cy="350" fill="none" r="80" stroke="blue" stroke-width="3"/>
<circle cx="462" cy="350" fill="none" r="2" stroke="blue" stroke-width="3"/>
<circle cx="325" cy="372" fill="none" r="80" stroke="blue" stroke-width="3"/>
<circle cx="325" cy="372" fill="none" r="2" stroke="blue" stroke-width="3"/>
<circle cx="138" cy="400" fill="none" r="327" stroke="blue" stroke-width="3"/>
<circle cx="138" cy="400" fill="none" r="2" stroke="blue" stroke-width="3"/>
<circle cx="462" cy="350" fill="none" r="327" stroke="blue" stroke-width="3"/>
<circle cx="462" cy="350" fill="none" r="2" stroke="blue" stroke-width="3"/>
<circle cx="138" cy="400" fill="none" r="189" stroke="blue" stroke-width="3"/>
<circle cx="138" cy="400" fill="none" r="2" stroke="blue" stroke-width="3"/>
<circle cx="325" cy="372" fill="none" r="189" stroke="blue" stroke-width="3"/>
<circle cx="325" cy="372" fill="none" r="2" stroke="blue" stroke-width="3"/>
<circle cx="462" cy="350" fill="none" r="138" stroke="blue" stroke-width="3"/>
<circle cx="462" cy="350" fill="none" r="2" stroke="blue" stroke-width="3"/>
<circle cx="325" cy="372" fill="none" r="138" stroke="blue" stroke-width="3"/>
<circle cx="325" cy="372" fill="none" r="2" stroke="blue" stroke-width="3"/>
<circle cx="387" cy="480" fill="none" r="80" stroke="green" stroke-width="3"/>
<circle cx="387" cy="480" fill="none" r="2" stroke="green" stroke-width="3"/>
<circle cx="269" cy="627" fill="none" r="261" stroke="green" stroke-width="3"/>
<circle cx="269" cy="627" fill="none" r="2" stroke="green" stroke-width="3"/>
<circle cx="269" cy="174" fill="none" r="261" stroke="green" stroke-width="3"/>
<circle cx="269" cy="174" fill="none" r="2" stroke="green" stroke-width="3"/>
<circle cx="400" cy="400" fill="none" r="158" stroke="green" stroke-width="3"/>
<circle cx="400" cy="400" fill="none" r="2" stroke="green" stroke-width="3"/>
<circle cx="352" cy="250" fill="none" r="158" stroke="green" stroke-width="3"/>
<circle cx="352" cy="250" fill="none" r="2" stroke="green" stroke-width="3"/>
<circle cx="474" cy="429" fill="none" r="80" stroke="green" stroke-width="3"/>
<circle cx="474" cy="429" fill="none" r="2" stroke="green" stroke-width="3"/>
<circle cx="400" cy="400" fill="none" r="138" stroke="green" stroke-width="3"/>
<circle cx="400" cy="400" fill="none" r="2" stroke="green" stroke-width="3"/>
<circle cx="450" cy="271" fill="none" r="138" stroke="green" stroke-width="3"/>
<circle cx="450" cy="271" fill="none" r="2" stroke="green" stroke-width="3"/>
<circle cx="337" cy="451" fill="none" r="80" stroke="green" stroke-width="3"/>
<circle cx="337" cy="451" fill="none" r="2" stroke="green" stroke-width="3"/>
<circle cx="400" cy="400" fill="none" r="138" stroke="green" stroke-width="3"/>
<circle cx="400" cy="400" fill="none" r="2" stroke="green" stroke-width="3"/>
<circle cx="313" cy="293" fill="none" r="138" stroke="green" stroke-width="3"/>
<circle cx="313" cy="293" fill="none" r="2" stroke="green" stroke-width="3"/>
<circle cx="462" cy="451" fill="none" r="80" stroke="green" stroke-width="3"/>
<circle cx="462" cy="451" fill="none" r="2" stroke="green" stroke-width="3"/>
<circle cx="343" cy="656" fill="none" r="261" stroke="green" stroke-width="3"/>
<circle cx="343" cy="656" fill="none" r="2" stroke="green" stroke-width="3"/>
<circle cx="343" cy="145" fill="none" r="261" stroke="green" stroke-width="3"/>
<circle cx="343" cy="145" fill="none" r="2" stroke="green" stroke-width="3"/>
<circle cx="400" cy="400" fill="none" r="149" stroke="green" stroke-width="3"/>
<circle cx="400" cy="400" fill="none" r="2" stroke="green" stroke-width="3"/>
<circle cx="432" cy="255" fill="none" r="149" stroke="green" stroke-width="3"/>
<circle cx="432" cy="255" fill="none" r="2" stroke="green" stroke-width="3"/>
<circle cx="343" cy="656" fill="none" r="261" stroke="green" stroke-width="3"/>
<circle cx="343" cy="656" fill="none" r="2" stroke="green" stroke-width="3"/>
<circle cx="325" cy="429" fill="none" r="80" stroke="green" stroke-width="3"/>
<circle cx="325" cy="429" fill="none" r="2" stroke="green" stroke-width="3"/>
<circle cx="206" cy="577" fill="none" r="261" stroke="green" stroke-width="3"/>
<circle cx="206" cy="577" fill="none" r="2" stroke="green" stroke-width="3"/>
<circle cx="206" cy="224" fill="none" r="261" stroke="green" stroke-width="3"/>
<circle cx="206" cy="224" fill="none" r="2" stroke="green" stroke-width="3"/>
<circle cx="400" cy="400" fill="none" r="124" stroke="green" stroke-width="3"/>
<circle cx="400" cy="400" fill="none" r="2" stroke="green" stroke-width="3"/>
<circle cx="307" cy="316" fill="none" r="124" stroke="green" stroke-width="3"/>
<circle cx="307" cy="316" fill="none" r="2" stroke="green" stroke-width="3"/>
<circle cx="206" cy="224" fill="none" r="261" stroke="green" stroke-width="3"/>
<circle cx="206" cy="224" fill="none" r="2" stroke="green" stroke-width="3"/>
<circle cx="412" cy="480" fill="none" r="80" stroke="green" stroke-width="3"/>
<circle cx="412" cy="480" fill="none" r="2" stroke="green" stroke-width="3"/>
<circle cx="400" cy="400" fill="none" r="160" stroke="green" stroke-width="3"/>
<circle cx="400" cy="400" fill="none" r="2" stroke="green" stroke-width="3"/>
<circle cx="375" cy="242" fill="none" r="160" stroke="green" stroke-width="3"/>
<circle cx="375" cy="242" fill="none" r="2" stroke="green" stroke-width="3"/>
<circle cx="412" cy="480" fill="none" r="80" stroke="green" stroke-width="3"/>
<circle cx="412" cy="480" fill="none" r="2" stroke="green" stroke-width="3"/>
<circle cx="400" cy="400" fill="none" r="160" stroke="green" stroke-width="3"/>
<circle cx="400" cy="400" fill="none" r="2" stroke="green" stroke-width="3"/>
<circle cx="375" cy="242" fill="none" r="160" stroke="green" stroke-width="3"/>
<circle cx="375" cy="242" fill="none" r="2" stroke="green" stroke-width="3"/>
<circle cx="387" cy="480" fill="none" r="261" stroke="green" stroke-width="3"/>
<circle cx="387" cy="480" fill="none" r="2" stroke="green" stroke-width="3"/>
<circle cx="387" cy="321" fill="none" r="261" stroke="green" stroke-width="3"/>
<circle cx="387" cy="321" fill="none" r="2" stroke="green" stroke-width="3"/>
<circle cx="352" cy="250" fill="none" r="261" stroke="green" stroke-width="3"/>
<circle cx="352" cy="250" fill="none" r="2" stroke="green" stroke-width="3"/>
<circle cx="138" cy="400" fill="none" r="337" stroke="green" stroke-width="3"/>
<circle cx="138" cy="400" fill="none" r="2" stroke="green" stroke-width="3"/>
<circle cx="474" cy="429" fill="none" r="337" stroke="green" stroke-width="3"/>
<circle cx="474" cy="429" fill="none" r="2" stroke="green" stroke-width="3"/>
<circle cx="387" cy="321" fill="none" r="261" stroke="green" stroke-width="3"/>
<circle cx="387" cy="321" fill="none" r="2" stroke="green" stroke-width="3"/>
<circle cx="450" cy="271" fill="none" r="337" stroke="green" stroke-width="3"/>
<circle cx="450" cy="271" fill="none" r="2" stroke="green" stroke-width="3"/>
<circle cx="387" cy="321" fill="none" r="261" stroke="green" stroke-width="3"/>
<circle cx="387" cy="321" fill="none" r="2" stroke="green" stroke-width="3"/>
<circle cx="138" cy="400" fill="none" r="205" stroke="green" stroke-width="3"/>
<circle cx="138" cy="400" fill="none" r="2" stroke="green" stroke-width="3"/>
<circle cx="337" cy="451" fill="none" r="205" stroke="green" stroke-width="3"/>
<circle cx="337" cy="451" fill="none" r="2" stroke="green" stroke-width="3"/>
<circle cx="313" cy="293" fill="none" r="205" stroke="green" stroke-width="3"/>
<circle cx="313" cy="293" fill="none" r="2" stroke="green" stroke-width="3"/>
<circle cx="462" cy="451" fill="none" r="327" stroke="green" stroke-width="3"/>
<circle cx="462" cy="451" fill="none" r="2" stroke="green" stroke-width="3"/>
<circle cx="343" cy="656" fill="none" r="327" stroke="green" stroke-width="3"/>
<circle cx="343" cy="656" fill="none" r="2" stroke="green" stroke-width="3"/>
<circle cx="343" cy="145" fill="none" r="327" stroke="green" stroke-width="3"/>
<circle cx="343" cy="145" fill="none" r="2" stroke="green" stroke-width="3"/>
<circle cx="432" cy="255" fill="none" r="327" stroke="green" stroke-width="3"/>
<circle cx="432" cy="255" fill="none" r="2" stroke="green" stroke-width="3"/>
<circle cx="343" cy="656" fill="none" r="327" stroke="green" stroke-width="3"/>
<circle cx="343" cy="656" fill="none" r="2" stroke="green" stroke-width="3"/>
<circle cx="325" cy="429" fill="none" r="189" stroke="green" stroke-width="3"/>
<circle cx="325" cy="429" fill="none" r="2" stroke="green" stroke-width="3"/>
<circle cx="206" cy="577" fill="none" r="189" stroke="green" stroke-width="3"/>
<circle cx="206" cy="577" fill="none" r="2" stroke="green" stroke-width="3"/>
<circle cx="206" cy="224" fill="none" r="189" stroke="green" stroke-width="3"/>
<circle cx="206" cy="224" fill="none" r="2" stroke="green" stroke-width="3"/>
<circle cx="307" cy="316" fill="none" r="189" stroke="green" stroke-width="3"/>
<circle cx="307" cy="316" fill="none" r="2" stroke="green" stroke-width="3"/>
<circle cx="206" cy="224" fill="none" r="189" stroke="green" stroke-width="3"/>
<circle cx="206" cy="224" fill="none" r="2" stroke="green" stroke-width="3"/>
<circle cx="138" cy="400" fill="none" r="285" stroke="green" stroke-width="3"/>
<circle cx="138" cy="400" fill="none" r="2" stroke="green" stroke-width="3"/>
<circle cx="412" cy="480" fill="none" r="285" stroke="green" stroke-width="3"/>
<circle cx="412" cy="480" fill="none" r="2" stroke="green" stroke-width="3"/>
<circle cx="375" cy="242" fill="none" r="285" stroke="green" stroke-width="3"/>
<circle cx="375" cy="242" fill="none" r="2" stroke="green" stroke-width="3"/>
<circle cx="138" cy="400" fill="none" r="285" stroke="green" stroke-width="3"/>
<circle cx="138" cy="400" fill="none" r="2" stroke="green" stroke-width="3"/>
<circle cx="412" cy="480" fill="none" r="285" stroke="green" stroke-width="3"/>
<circle cx="412" cy="480" fill="none" r="2" stroke="green" stroke-width="3"/>
<circle cx="375" cy="242" fill="none" r="285" stroke="green" stroke-width="3"/>
<circle cx="375" cy="242" fill="none" r="2" stroke="green" stroke-width="3"/>
<circle cx="462" cy="350" fill="none" r="149" stroke="green" stroke-width="3"/>
<circle cx="462" cy="350" fill="none" r="2" stroke="green" stroke-width="3"/>
<circle cx="387" cy="480" fill="none" r="149" stroke="green" stroke-width="3"/>
<circle cx="387" cy="480" fill="none" r="2" stroke="green" stroke-width="3"/>
<circle cx="462" cy="350" fill="none" r="337" stroke="green" stroke-width="3"/>
<circle cx="462" cy="350" fill="none" r="2" stroke="green" stroke-width="3"/>
<circle cx="269" cy="627" fill="none" r="337" stroke="green" stroke-width="3"/>
<circle cx="269" cy="627" fill="none" r="2" stroke="green" stroke-width="3"/>
<circle cx="462" cy="350" fill="none" r="261" stroke="green" stroke-width="3"/>
<circle cx="462" cy="350" fill="none" r="2" stroke="green" stroke-width="3"/>
<circle cx="352" cy="250" fill="none" r="149" stroke="green" stroke-width="3"/>
<circle cx="352" cy="250" fill="none" r="2" stroke="green" stroke-width="3"/>
<circle cx="450" cy="271" fill="none" r="80" stroke="green" stroke-width="3"/>
<circle cx="450" cy="271" fill="none" r="2" stroke="green" stroke-width="3"/>
<circle cx="462" cy="350" fill="none" r="160" stroke="green" stroke-width="3"/>
<circle cx="462" cy="350" fill="none" r="2" stroke="green" stroke-width="3"/>
<circle cx="337" cy="451" fill="none" r="160" stroke="green" stroke-width="3"/>
<circle cx="337" cy="451" fill="none" r="2" stroke="green" stroke-width="3"/>
<circle cx="313" cy="293" fill="none" r="160" stroke="green" stroke-width="3"/>
<circle cx="313" cy="293" fill="none" r="2" stroke="green" stroke-width="3"/>
<circle cx="462" cy="350" fill="none" r="100" stroke="green" stroke-width="3"/>
<circle cx="462" cy="350" fill="none" r="2" stroke="green" stroke-width="3"/>
<circle cx="462" cy="451" fill="none" r="100" stroke="green" stroke-width="3"/>
<circle cx="462" cy="451" fill="none" r="2" stroke="green" stroke-width="3"/>
<circle cx="462" cy="350" fill="none" r="237" stroke="green" stroke-width="3"/>
<circle cx="462" cy="350" fill="none" r="2" stroke="green" stroke-width="3"/>
<circle cx="343" cy="145" fill="none" r="237" stroke="green" stroke-width="3"/>
<circle cx="343" cy="145" fill="none" r="2" stroke="green" stroke-width="3"/>
<circle cx="432" cy="255" fill="none" r="100" stroke="green" stroke-width="3"/>
<circle cx="432" cy="255" fill="none" r="2" stroke="green" stroke-width="3"/>
<circle cx="462" cy="350" fill="none" r="158" stroke="green" stroke-width="3"/>
<circle cx="462" cy="350" fill="none" r="2" stroke="green" stroke-width="3"/>
<circle cx="325" cy="429" fill="none" r="158" stroke="green" stroke-width="3"/>
<circle cx="325" cy="429" fill="none" r="2" stroke="green" stroke-width="3"/>
<circle cx="462" cy="350" fill="none" r="341" stroke="green" stroke-width="3"/>
<circle cx="462" cy="350" fill="none" r="2" stroke="green" stroke-width="3"/>
<circle cx="206" cy="577" fill="none" r="341" stroke="green" stroke-width="3"/>
<circle cx="206" cy="577" fill="none" r="2" stroke="green" stroke-width="3"/>
<circle cx="462" cy="350" fill="none" r="285" stroke="green" stroke-width="3"/>
<circle cx="462" cy="350" fill="none" r="2" stroke="green" stroke-width="3"/>
<circle cx="206" cy="224" fill="none" r="285" stroke="green" stroke-width="3"/>
<circle cx="206" cy="224" fill="none" r="2" stroke="green" stroke-width="3"/>
<circle cx="307" cy="316" fill="none" r="158" stroke="green" stroke-width="3"/>
<circle cx="307" cy="316" fill="none" r="2" stroke="green" stroke-width="3"/>
<circle cx="462" cy="350" fill="none" r="285" stroke="green" stroke-width="3"/>
<circle cx="462" cy="350" fill="none" r="2" stroke="green" stroke-width="3"/>
<circle cx="206" cy="224" fill="none" r="285" stroke="green" stroke-width="3"/>
<circle cx="206" cy="224" fill="none" r="2" stroke="green" stroke-width="3"/>
<circle cx="412" cy="480" fill="none" r="138" stroke="green" stroke-width="3"/>
<circle cx="412" cy="480" fill="none" r="2" stroke="green" stroke-width="3"/>
<circle cx="375" cy="242" fill="none" r="138" stroke="green" stroke-width="3"/>
<circle cx="375" cy="242" fill="none" r="2" stroke="green" stroke-width="3"/>
<circle cx="412" cy="480" fill="none" r="138" stroke="green" stroke-width="3"/>
<circle cx="412" cy="480" fill="none" r="2" stroke="green" stroke-width="3"/>
<circle cx="375" cy="242" fill="none" r="138" stroke="green" stroke-width="3"/>
<circle cx="375" cy="242" fill="none" r="2" stroke="green" stroke-width="3"/>
<circle cx="325" cy="372" fill="none" r="124" stroke="green" stroke-width="3"/>
<circle cx="325" cy="372" fill="none" r="2" stroke="green" stroke-width="3"/>
<circle cx="387" cy="480" fill="none" r="124" stroke="green" stroke-width="3"/>
<circle cx="387" cy="480" fill="none" r="2" stroke="green" stroke-width="3"/>
<circle cx="325" cy="372" fill="none" r="261" stroke="green" stroke-width="3"/>
<circle cx="325" cy="372" fill="none" r="2" stroke="green" stroke-width="3"/>
<circle cx="325" cy="372" fill="none" r="205" stroke="green" stroke-width="3"/>
<circle cx="325" cy="372" fill="none" r="2" stroke="green" stroke-width="3"/>
<circle cx="269" cy="174" fill="none" r="205" stroke="green" stroke-width="3"/>
<circle cx="269" cy="174" fill="none" r="2" stroke="green" stroke-width="3"/>
<circle cx="352" cy="250" fill="none" r="124" stroke="green" stroke-width="3"/>
<circle cx="352" cy="250" fill="none" r="2" stroke="green" stroke-width="3"/>
<circle cx="325" cy="372" fill="none" r="160" stroke="green" stroke-width="3"/>
<circle cx="325" cy="372" fill="none" r="2" stroke="green" stroke-width="3"/>
<circle cx="474" cy="429" fill="none" r="160" stroke="green" stroke-width="3"/>
<circle cx="474" cy="429" fill="none" r="2" stroke="green" stroke-width="3"/>
<circle cx="450" cy="271" fill="none" r="160" stroke="green" stroke-width="3"/>
<circle cx="450" cy="271" fill="none" r="2" stroke="green" stroke-width="3"/>
<circle cx="313" cy="293" fill="none" r="80" stroke="green" stroke-width="3"/>
<circle cx="313" cy="293" fill="none" r="2" stroke="green" stroke-width="3"/>
<circle cx="325" cy="372" fill="none" r="158" stroke="green" stroke-width="3"/>
<circle cx="325" cy="372" fill="none" r="2" stroke="green" stroke-width="3"/>
<circle cx="462" cy="451" fill="none" r="158" stroke="green" stroke-width="3"/>
<circle cx="462" cy="451" fill="none" r="2" stroke="green" stroke-width="3"/>
<circle cx="325" cy="372" fill="none" r="285" stroke="green" stroke-width="3"/>
<circle cx="325" cy="372" fill="none" r="2" stroke="green" stroke-width="3"/>
<circle cx="343" cy="656" fill="none" r="285" stroke="green" stroke-width="3"/>
<circle cx="343" cy="656" fill="none" r="2" stroke="green" stroke-width="3"/>
<circle cx="325" cy="372" fill="none" r="227" stroke="green" stroke-width="3"/>
<circle cx="325" cy="372" fill="none" r="2" stroke="green" stroke-width="3"/>
<circle cx="343" cy="145" fill="none" r="227" stroke="green" stroke-width="3"/>
<circle cx="343" cy="145" fill="none" r="2" stroke="green" stroke-width="3"/>
<circle cx="432" cy="255" fill="none" r="158" stroke="green" stroke-width="3"/>
<circle cx="432" cy="255" fill="none" r="2" stroke="green" stroke-width="3"/>
<circle cx="325" cy="372" fill="none" r="285" stroke="green" stroke-width="3"/>
<circle cx="325" cy="372" fill="none" r="2" stroke="green" stroke-width="3"/>
<circle cx="343" cy="656" fill="none" r="285" stroke="green" stroke-width="3"/>
<circle cx="343" cy="656" fill="none" r="2" stroke="green" stroke-width="3"/>
<circle cx="325" cy="372" fill="none" r="57" stroke="green" stroke-width="3"/>
<circle cx="325" cy="372" fill="none" r="2" stroke="green" stroke-width="3"/>
<circle cx="325" cy="429" fill="none" r="57" stroke="green" stroke-width="3"/>
<circle cx="325" cy="429" fill="none" r="2" stroke="green" stroke-width="3"/>
<circle cx="325" cy="372" fill="none" r="237" stroke="green" stroke-width="3"/>
<circle cx="325" cy="372" fill="none" r="2" stroke="green" stroke-width="3"/>
<circle cx="206" cy="577" fill="none" r="237" stroke="green" stroke-width="3"/>
<circle cx="206" cy="577" fill="none" r="2" stroke="green" stroke-width="3"/>
<circle cx="307" cy="316" fill="none" r="57" stroke="green" stroke-width="3"/>
<circle cx="307" cy="316" fill="none" r="2" stroke="green" stroke-width="3"/>
<circle cx="387" cy="480" fill="none" r="158" stroke="green" stroke-width="3"/>
<circle cx="387" cy="480" fill="none" r="2" stroke="green" stroke-width="3"/>
<circle cx="387" cy="321" fill="none" r="158" stroke="green" stroke-width="3"/>
<circle cx="387" cy="321" fill="none" r="2" stroke="green" stroke-width="3"/>
<circle cx="387" cy="480" fill="none" r="189" stroke="green" stroke-width="3"/>
<circle cx="387" cy="480" fill="none" r="2" stroke="green" stroke-width="3"/>
<circle cx="269" cy="627" fill="none" r="189" stroke="green" stroke-width="3"/>
<circle cx="269" cy="627" fill="none" r="2" stroke="green" stroke-width="3"/>
<circle cx="387" cy="480" fill="none" r="327" stroke="green" stroke-width="3"/>
<circle cx="387" cy="480" fill="none" r="2" stroke="green" stroke-width="3"/>
<circle cx="269" cy="174" fill="none" r="327" stroke="green" stroke-width="3"/>
<circle cx="269" cy="174" fill="none" r="2" stroke="green" stroke-width="3"/>
<circle cx="387" cy="480" fill="none" r="232" stroke="green" stroke-width="3"/>
<circle cx="387" cy="480" fill="none" r="2" stroke="green" stroke-width="3"/>
<circle cx="352" cy="250" fill="none" r="232" stroke="green" stroke-width="3"/>
<circle cx="352" cy="250" fill="none" r="2" stroke="green" stroke-width="3"/>
<circle cx="387" cy="321" fill="none" r="327" stroke="green" stroke-width="3"/>
<circle cx="387" cy="321" fill="none" r="2" stroke="green" stroke-width="3"/>
<circle cx="269" cy="627" fill="none" r="327" stroke="green" stroke-width="3"/>
<circle cx="269" cy="627" fill="none" r="2" stroke="green" stroke-width="3"/>
<circle cx="387" cy="321" fill="none" r="189" stroke="green" stroke-width="3"/>
<circle cx="387" cy="321" fill="none" r="2" stroke="green" stroke-width="3"/>
<circle cx="269" cy="174" fill="none" r="189" stroke="green" stroke-width="3"/>
<circle cx="269" cy="174" fill="none" r="2" stroke="green" stroke-width="3"/>
<circle cx="352" cy="250" fill="none" r="80" stroke="green" stroke-width="3"/>
<circle cx="352" cy="250" fill="none" r="2" stroke="green" stroke-width="3"/>
<circle cx="269" cy="627" fill="none" r="453" stroke="green" stroke-width="3"/>
<circle cx="269" cy="627" fill="none" r="2" stroke="green" stroke-width="3"/>
<circle cx="269" cy="174" fill="none" r="453" stroke="green" stroke-width="3"/>
<circle cx="269" cy="174" fill="none" r="2" stroke="green" stroke-width="3"/>
<circle cx="269" cy="627" fill="none" r="386" stroke="green" stroke-width="3"/>
<circle cx="269" cy="627" fill="none" r="2" stroke="green" stroke-width="3"/>
<circle cx="352" cy="250" fill="none" r="386" stroke="green" stroke-width="3"/>
<circle cx="352" cy="250" fill="none" r="2" stroke="green" stroke-width="3"/>
<circle cx="269" cy="174" fill="none" r="112" stroke="green" stroke-width="3"/>
<circle cx="269" cy="174" fill="none" r="2" stroke="green" stroke-width="3"/>
<circle cx="352" cy="250" fill="none" r="112" stroke="green" stroke-width="3"/>
<circle cx="352" cy="250" fill="none" r="2" stroke="green" stroke-width="3"/>
<circle cx="474" cy="429" fill="none" r="138" stroke="green" stroke-width="3"/>
<circle cx="474" cy="429" fill="none" r="2" stroke="green" stroke-width="3"/>
<circle cx="387" cy="321" fill="none" r="138" stroke="green" stroke-width="3"/>
<circle cx="387" cy="321" fill="none" r="2" stroke="green" stroke-width="3"/>
<circle cx="387" cy="321" fill="none" r="138" stroke="green" stroke-width="3"/>
<circle cx="387" cy="321" fill="none" r="2" stroke="green" stroke-width="3"/>
<circle cx="337" cy="451" fill="none" r="138" stroke="green" stroke-width="3"/>
<circle cx="337" cy="451" fill="none" r="2" stroke="green" stroke-width="3"/>
<circle cx="462" cy="451" fill="none" r="237" stroke="green" stroke-width="3"/>
<circle cx="462" cy="451" fill="none" r="2" stroke="green" stroke-width="3"/>
<circle cx="343" cy="656" fill="none" r="237" stroke="green" stroke-width="3"/>
<circle cx="343" cy="656" fill="none" r="2" stroke="green" stroke-width="3"/>
<circle cx="462" cy="451" fill="none" r="198" stroke="green" stroke-width="3"/>
<circle cx="462" cy="451" fill="none" r="2" stroke="green" stroke-width="3"/>
<circle cx="432" cy="255" fill="none" r="198" stroke="green" stroke-width="3"/>
<circle cx="432" cy="255" fill="none" r="2" stroke="green" stroke-width="3"/>
<circle cx="343" cy="656" fill="none" r="510" stroke="green" stroke-width="3"/>
<circle cx="343" cy="656" fill="none" r="2" stroke="green" stroke-width="3"/>
<circle cx="343" cy="145" fill="none" r="510" stroke="green" stroke-width="3"/>
<circle cx="343" cy="145" fill="none" r="2" stroke="green" stroke-width="3"/>
<circle cx="343" cy="656" fill="none" r="410" stroke="green" stroke-width="3"/>
<circle cx="343" cy="656" fill="none" r="2" stroke="green" stroke-width="3"/>
<circle cx="432" cy="255" fill="none" r="410" stroke="green" stroke-width="3"/>
<circle cx="432" cy="255" fill="none" r="2" stroke="green" stroke-width="3"/>
<circle cx="343" cy="145" fill="none" r="140" stroke="green" stroke-width="3"/>
<circle cx="343" cy="145" fill="none" r="2" stroke="green" stroke-width="3"/>
<circle cx="432" cy="255" fill="none" r="140" stroke="green" stroke-width="3"/>
<circle cx="432" cy="255" fill="none" r="2" stroke="green" stroke-width="3"/>
<circle cx="325" cy="429" fill="none" r="237" stroke="green" stroke-width="3"/>
<circle cx="325" cy="429" fill="none" r="2" stroke="green" stroke-width="3"/>
<circle cx="206" cy="224" fill="none" r="237" stroke="green" stroke-width="3"/>
<circle cx="206" cy="224" fill="none" r="2" stroke="green" stroke-width="3"/>
<circle cx="325" cy="429" fill="none" r="114" stroke="green" stroke-width="3"/>
<circle cx="325" cy="429" fill="none" r="2" stroke="green" stroke-width="3"/>
<circle cx="307" cy="316" fill="none" r="114" stroke="green" stroke-width="3"/>
<circle cx="307" cy="316" fill="none" r="2" stroke="green" stroke-width="3"/>
<circle cx="206" cy="577" fill="none" r="352" stroke="green" stroke-width="3"/>
<circle cx="206" cy="577" fill="none" r="2" stroke="green" stroke-width="3"/>
<circle cx="206" cy="224" fill="none" r="352" stroke="green" stroke-width="3"/>
<circle cx="206" cy="224" fill="none" r="2" stroke="green" stroke-width="3"/>
<circle cx="206" cy="577" fill="none" r="279" stroke="green" stroke-width="3"/>
<circle cx="206" cy="577" fill="none" r="2" stroke="green" stroke-width="3"/>
<circle cx="307" cy="316" fill="none" r="279" stroke="green" stroke-width="3"/>
<circle cx="307" cy="316" fill="none" r="2" stroke="green" stroke-width="3"/>
<circle cx="206" cy="224" fill="none" r="136" stroke="green" stroke-width="3"/>
<circle cx="206" cy="224" fill="none" r="2" stroke="green" stroke-width="3"/>
<circle cx="307" cy="316" fill="none" r="136" stroke="green" stroke-width="3"/>
<circle cx="307" cy="316" fill="none" r="2" stroke="green" stroke-width="3"/>
<circle cx="412" cy="480" fill="none" r="240" stroke="green" stroke-width="3"/>
<circle cx="412" cy="480" fill="none" r="2" stroke="green" stroke-width="3"/>
<circle cx="375" cy="242" fill="none" r="240" stroke="green" stroke-width="3"/>
<circle cx="375" cy="242" fill="none" r="2" stroke="green" stroke-width="3"/>
<circle cx="412" cy="480" fill="none" r="240" stroke="green" stroke-width="3"/>
<circle cx="412" cy="480" fill="none" r="2" stroke="green" stroke-width="3"/>
<circle cx="375" cy="242" fill="none" r="240" stroke="green" stroke-width="3"/>
<circle cx="375" cy="242" fill="none" r="2" stroke="green" stroke-width="3"/>
<circle cx="320" cy="400" fill="black" r="2" stroke="black" stroke-width="3"/>
</svg>