<svg viewBox="0 0 800 800" xmlns="http://www.w3.org/2000/svg">
<line fill="none" stroke="darkgray" stroke-width="3" x1="400" x2="330" y1="268" y2="400"/>
<line fill="none" stroke="darkgray" stroke-width="3" x1="400" x2="441" y1="268" y2="400"/>
<line fill="none" stroke="darkgray" stroke-width="3" x1="441" x2="330" y1="400" y2="400"/>
<line fill="none" stroke="blue" stroke-width="3" x1="903" x2="-212" y1="-691" y2="1433"/>
<circle cx="400" cy="268" fill="none" r="149" stroke="blue" stroke-width="3"/>
<circle cx="330" cy="400" fill="none" r="149" stroke="blue" stroke-width="3"/>
<line fill="none" stroke="blue" stroke-width="3" x1="75" x2="800" y1="-755" y2="1531"/>
<circle cx="400" cy="268" fill="none" r="138" stroke="blue" stroke-width="3"/>
<circle cx="441" cy="400" fill="none" r="138" stroke="blue" stroke-width="3"/>
<line fill="none" stroke="blue" stroke-width="3" x1="-800" x2="1600" y1="400" y2="400"/>
<circle cx="330" cy="400" fill="none" r="111" stroke="blue" stroke-width="3"/>
<circle cx="441" cy="400" fill="none" r="111" stroke="blue" stroke-width="3"/>
<circle cx="335" cy="391" fill="none" r="138" stroke="green" stroke-width="3"/>
<line fill="none" stroke="green" stroke-width="3" x1="724" x2="0" y1="-755" y2="1531"/>
<circle cx="358" cy="400" fill="none" r="138" stroke="green" stroke-width="3"/>
<circle cx="400" cy="268" fill="none" r="37" stroke="green" stroke-width="3"/>
<circle cx="382" cy="302" fill="none" r="37" stroke="green" stroke-width="3"/>
<circle cx="400" cy="268" fill="none" r="71" stroke="green" stroke-width="3"/>
<circle cx="421" cy="336" fill="none" r="71" stroke="green" stroke-width="3"/>
<circle cx="400" cy="268" fill="none" r="45" stroke="green" stroke-width="3"/>
<circle cx="378" cy="309" fill="none" r="45" stroke="green" stroke-width="3"/>
<circle cx="400" cy="268" fill="none" r="27" stroke="green" stroke-width="3"/>
<circle cx="408" cy="294" fill="none" r="27" stroke="green" stroke-width="3"/>
<circle cx="330" cy="400" fill="none" r="10" stroke="green" stroke-width="3"/>
<circle cx="335" cy="391" fill="none" r="10" stroke="green" stroke-width="3"/>
<circle cx="330" cy="400" fill="none" r="27" stroke="green" stroke-width="3"/>
<circle cx="358" cy="400" fill="none" r="27" stroke="green" stroke-width="3"/>
<circle cx="382" cy="302" fill="none" r="111" stroke="green" stroke-width="3"/>
<line fill="none" stroke="green" stroke-width="3" x1="1357" x2="-603" y1="-323" y2="1058"/>
<circle cx="421" cy="336" fill="none" r="111" stroke="green" stroke-width="3"/>
<circle cx="330" cy="400" fill="none" r="103" stroke="green" stroke-width="3"/>
<circle cx="378" cy="309" fill="none" r="103" stroke="green" stroke-width="3"/>
<line fill="none" stroke="green" stroke-width="3" x1="1063" x2="-354" y1="-601" y2="1335"/>
<circle cx="330" cy="400" fill="none" r="131" stroke="green" stroke-width="3"/>
<circle cx="408" cy="294" fill="none" r="131" stroke="green" stroke-width="3"/>
<line fill="none" stroke="green" stroke-width="3" x1="-795" x2="1595" y1="291" y2="503"/>
<circle cx="441" cy="400" fill="none" r="106" stroke="green" stroke-width="3"/>
<circle cx="335" cy="391" fill="none" r="106" stroke="green" stroke-width="3"/>
<circle cx="441" cy="400" fill="none" r="83" stroke="green" stroke-width="3"/>
<circle cx="358" cy="400" fill="none" r="83" stroke="green" stroke-width="3"/>
<line fill="none" stroke="green" stroke-width="3" x1="-190" x2="1051" y1="-645" y2="1408"/>
<circle cx="441" cy="400" fill="none" r="115" stroke="green" stroke-width="3"/>
<circle cx="382" cy="302" fill="none" r="115" stroke="green" stroke-width="3"/>
<circle cx="441" cy="400" fill="none" r="67" stroke="green" stroke-width="3"/>
<circle cx="421" cy="336" fill="none" r="67" stroke="green" stroke-width="3"/>
<line fill="none" stroke="green" stroke-width="3" x1="-252" x2="1109" y1="-607" y2="1368"/>
<circle cx="378" cy="309" fill="none" r="111" stroke="green" stroke-width="3"/>
<circle cx="408" cy="294" fill="none" r="111" stroke="green" stroke-width="3"/>
<line fill="none" stroke="green" stroke-width="3" x1="-713" x2="1501" y1="-47" y2="876"/>
<circle cx="335" cy="391" fill="none" r="24" stroke="green" stroke-width="3"/>
<circle cx="358" cy="400" fill="none" r="24" stroke="green" stroke-width="3"/>
<line fill="none" stroke="green" stroke-width="3" x1="-460" x2="1343" y1="-438" y2="1144"/>
<circle cx="382" cy="302" fill="none" r="52" stroke="green" stroke-width="3"/>
<circle cx="421" cy="336" fill="none" r="52" stroke="green" stroke-width="3"/>
<line fill="none" stroke="green" stroke-width="3" x1="1437" x2="-718" y1="-210" y2="845"/>
<circle cx="378" cy="309" fill="none" r="32" stroke="green" stroke-width="3"/>
<circle cx="408" cy="294" fill="none" r="32" stroke="green" stroke-width="3"/>
</svg>