<svg viewBox="0 0 800 800" xmlns="http://www.w3.org/2000/svg">
<circle cx="400" cy="400" fill="none" r="80" stroke="darkgray" stroke-width="3"/>
<circle cx="400" cy="400" fill="none" r="27" stroke="darkgray" stroke-width="3"/>
<line fill="none" stroke="blue" stroke-width="3" x1="-800" x2="1600" y1="400" y2="400"/>
<circle cx="480" cy="400" fill="none" r="80" stroke="blue" stroke-width="3"/>
<circle cx="480" cy="400" fill="none" r="160" stroke="green" stroke-width="3"/>
<circle cx="319" cy="400" fill="none" r="160" stroke="green" stroke-width="3"/>
<circle cx="480" cy="400" fill="none" r="52" stroke="green" stroke-width="3"/>
<circle cx="427" cy="400" fill="none" r="52" stroke="green" stroke-width="3"/>
<circle cx="480" cy="400" fill="none" r="107" stroke="green" stroke-width="3"/>
<circle cx="372" cy="400" fill="none" r="107" stroke="green" stroke-width="3"/>
<line fill="none" stroke="green" stroke-width="3" x1="-139" x2="1059" y1="-673" y2="1404"/>
<circle cx="440" cy="331" fill="none" r="80" stroke="green" stroke-width="3"/>
<line fill="none" stroke="green" stroke-width="3" x1="1059" x2="-139" y1="-604" y2="1473"/>
<circle cx="440" cy="470" fill="none" r="80" stroke="green" stroke-width="3"/>
<line fill="none" stroke="green" stroke-width="3" x1="-719" x2="1537" y1="-34" y2="783"/>
<circle cx="404" cy="373" fill="none" r="80" stroke="green" stroke-width="3"/>
<line fill="none" stroke="green" stroke-width="3" x1="1537" x2="-719" y1="18" y2="834"/>
<circle cx="404" cy="428" fill="none" r="80" stroke="green" stroke-width="3"/>
<circle cx="319" cy="400" fill="none" r="80" stroke="green" stroke-width="3"/>
<circle cx="427" cy="400" fill="none" r="27" stroke="green" stroke-width="3"/>
<circle cx="372" cy="400" fill="none" r="27" stroke="green" stroke-width="3"/>
<line fill="none" stroke="green" stroke-width="3" x1="1000" x2="-200" y1="-639" y2="1439"/>
<line fill="none" stroke="green" stroke-width="3" x1="-200" x2="1000" y1="-639" y2="1439"/>
<line fill="none" stroke="green" stroke-width="3" x1="607" x2="192" y1="-781" y2="1581"/>
<circle cx="404" cy="373" fill="none" r="27" stroke="green" stroke-width="3"/>
<line fill="none" stroke="green" stroke-width="3" x1="192" x2="607" y1="-781" y2="1581"/>
<circle cx="404" cy="428" fill="none" r="27" stroke="green" stroke-width="3"/>
<circle cx="319" cy="400" fill="none" r="107" stroke="green" stroke-width="3"/>
<circle cx="427" cy="400" fill="none" r="107" stroke="green" stroke-width="3"/>
</svg>