<svg viewBox="0 0 800 800" xmlns="http://www.w3.org/2000/svg">
<circle cx="400" cy="400" fill="none" r="80" stroke="darkgray" stroke-width="3"/>
<circle cx="400" cy="400" fill="none" r="27" stroke="darkgray" stroke-width="3"/>
<line fill="none" stroke="blue" stroke-width="3" x1="-800" x2="1600" y1="400" y2="400"/>
<circle cx="480" cy="400" fill="none" r="160" stroke="green" stroke-width="3"/>
<circle cx="319" cy="400" fill="none" r="160" stroke="green" stroke-width="3"/>
<circle cx="480" cy="400" fill="none" r="52" stroke="green" stroke-width="3"/>
<circle cx="427" cy="400" fill="none" r="52" stroke="green" stroke-width="3"/>
<circle cx="480" cy="400" fill="none" r="107" stroke="green" stroke-width="3"/>
<circle cx="372" cy="400" fill="none" r="107" stroke="green" stroke-width="3"/>
<circle cx="640" cy="400" fill="none" r="160" stroke="red" stroke-width="1"/>
<circle cx="480" cy="400" fill="none" r="320" stroke="red" stroke-width="1"/>
<circle cx="159" cy="400" fill="none" r="320" stroke="red" stroke-width="1"/>
<line fill="none" stroke="red" stroke-width="1" x1="78" x2="864" y1="-758" y2="1509"/>
<circle cx="462" cy="351" fill="none" r="52" stroke="red" stroke-width="1"/>
<line fill="none" stroke="red" stroke-width="1" x1="864" x2="78" y1="-709" y2="1558"/>
<circle cx="462" cy="450" fill="none" r="52" stroke="red" stroke-width="1"/>
<circle cx="532" cy="400" fill="none" r="52" stroke="red" stroke-width="1"/>
<line fill="none" stroke="red" stroke-width="1" x1="-781" x2="1586" y1="192" y2="583"/>
<circle cx="480" cy="400" fill="none" r="103" stroke="red" stroke-width="1"/>
<circle cx="378" cy="384" fill="none" r="103" stroke="red" stroke-width="1"/>
<line fill="none" stroke="red" stroke-width="1" x1="1586" x2="-781" y1="218" y2="609"/>
<circle cx="378" cy="417" fill="none" r="103" stroke="red" stroke-width="1"/>
<circle cx="480" cy="400" fill="none" r="104" stroke="red" stroke-width="1"/>
<circle cx="375" cy="400" fill="none" r="104" stroke="red" stroke-width="1"/>
<line fill="none" stroke="red" stroke-width="1" x1="-363" x2="1251" y1="-527" y2="1247"/>
<circle cx="407" cy="321" fill="none" r="107" stroke="red" stroke-width="1"/>
<line fill="none" stroke="red" stroke-width="1" x1="1251" x2="-363" y1="-447" y2="1327"/>
<circle cx="407" cy="480" fill="none" r="107" stroke="red" stroke-width="1"/>
<circle cx="587" cy="400" fill="none" r="107" stroke="red" stroke-width="1"/>
<circle cx="480" cy="400" fill="none" r="215" stroke="red" stroke-width="1"/>
<circle cx="264" cy="400" fill="none" r="215" stroke="red" stroke-width="1"/>
<circle cx="400" cy="400" fill="black" r="2" stroke="darkgray" stroke-width="2"/>
<circle cx="480" cy="400" fill="black" r="2" stroke="darkgray" stroke-width="2"/>
<circle cx="319" cy="400" fill="black" r="2" stroke="blue" stroke-width="2"/>
<circle cx="427" cy="400" fill="black" r="2" stroke="blue" stroke-width="2"/>
<circle cx="372" cy="400" fill="black" r="2" stroke="blue" stroke-width="2"/>
<circle cx="640" cy="400" fill="black" r="2" stroke="green" stroke-width="2"/>
<circle cx="159" cy="400" fill="black" r="2" stroke="green" stroke-width="2"/>
<circle cx="400" cy="539" fill="black" r="2" stroke="red" stroke-width="2"/>
<circle cx="400" cy="262" fill="black" r="2" stroke="red" stroke-width="2"/>
<circle cx="462" cy="351" fill="black" r="2" stroke="green" stroke-width="2"/>
<circle cx="462" cy="450" fill="black" r="2" stroke="green" stroke-width="2"/>
<circle cx="532" cy="400" fill="black" r="2" stroke="green" stroke-width="2"/>
<circle cx="471" cy="349" fill="black" r="2" stroke="red" stroke-width="2"/>
<circle cx="471" cy="452" fill="black" r="2" stroke="red" stroke-width="2"/>
<circle cx="378" cy="384" fill="black" r="2" stroke="green" stroke-width="2"/>
<circle cx="378" cy="417" fill="black" r="2" stroke="green" stroke-width="2"/>
<circle cx="375" cy="400" fill="black" r="2" stroke="green" stroke-width="2"/>
<circle cx="453" cy="446" fill="black" r="2" stroke="red" stroke-width="2"/>
<circle cx="453" cy="355" fill="black" r="2" stroke="red" stroke-width="2"/>
<circle cx="407" cy="321" fill="black" r="2" stroke="green" stroke-width="2"/>
<circle cx="407" cy="480" fill="black" r="2" stroke="green" stroke-width="2"/>
<circle cx="587" cy="400" fill="black" r="2" stroke="green" stroke-width="2"/>
<circle cx="443" cy="299" fill="black" r="2" stroke="red" stroke-width="2"/>
<circle cx="443" cy="502" fill="black" r="2" stroke="red" stroke-width="2"/>
<circle cx="264" cy="400" fill="black" r="2" stroke="green" stroke-width="2"/>
<circle cx="361" cy="508" fill="black" r="2" stroke="red" stroke-width="2"/>
<circle cx="361" cy="293" fill="black" r="2" stroke="red" stroke-width="2"/>
<circle cx="467" cy="451" fill="black" r="2" stroke="red" stroke-width="2"/>
<circle cx="467" cy="350" fill="black" r="2" stroke="red" stroke-width="2"/>
<circle cx="426" cy="494" fill="black" r="2" stroke="red" stroke-width="2"/>
<circle cx="426" cy="307" fill="black" r="2" stroke="red" stroke-width="2"/>
<circle cx="800" cy="400" fill="black" r="2" stroke="red" stroke-width="2"/>
<circle cx="560" cy="262" fill="black" r="2" stroke="red" stroke-width="2"/>
<circle cx="560" cy="539" fill="black" r="2" stroke="red" stroke-width="2"/>
<circle cx="-160" cy="400" fill="black" r="2" stroke="red" stroke-width="2"/>
<circle cx="497" cy="450" fill="black" r="2" stroke="red" stroke-width="2"/>
<circle cx="418" cy="323" fill="black" r="2" stroke="red" stroke-width="2"/>
<circle cx="421" cy="383" fill="black" r="2" stroke="red" stroke-width="2"/>
<circle cx="445" cy="400" fill="black" r="2" stroke="red" stroke-width="2"/>
<circle cx="514" cy="361" fill="black" r="2" stroke="red" stroke-width="2"/>
<circle cx="428" cy="391" fill="black" r="2" stroke="red" stroke-width="2"/>
<circle cx="497" cy="351" fill="black" r="2" stroke="red" stroke-width="2"/>
<circle cx="418" cy="478" fill="black" r="2" stroke="red" stroke-width="2"/>
<circle cx="421" cy="418" fill="black" r="2" stroke="red" stroke-width="2"/>
<circle cx="514" cy="440" fill="black" r="2" stroke="red" stroke-width="2"/>
<circle cx="428" cy="410" fill="black" r="2" stroke="red" stroke-width="2"/>
<circle cx="584" cy="400" fill="black" r="2" stroke="red" stroke-width="2"/>
<circle cx="506" cy="355" fill="black" r="2" stroke="red" stroke-width="2"/>
<circle cx="506" cy="446" fill="black" r="2" stroke="red" stroke-width="2"/>
<circle cx="324" cy="375" fill="black" r="2" stroke="red" stroke-width="2"/>
<circle cx="426" cy="392" fill="black" r="2" stroke="red" stroke-width="2"/>
<circle cx="413" cy="322" fill="black" r="2" stroke="red" stroke-width="2"/>
<circle cx="413" cy="479" fill="black" r="2" stroke="red" stroke-width="2"/>
<circle cx="583" cy="400" fill="black" r="2" stroke="red" stroke-width="2"/>
<circle cx="376" cy="400" fill="black" r="2" stroke="red" stroke-width="2"/>
<circle cx="420" cy="478" fill="black" r="2" stroke="red" stroke-width="2"/>
<circle cx="276" cy="400" fill="black" r="2" stroke="red" stroke-width="2"/>
<circle cx="469" cy="432" fill="black" r="2" stroke="red" stroke-width="2"/>
<circle cx="324" cy="426" fill="black" r="2" stroke="red" stroke-width="2"/>
<circle cx="426" cy="409" fill="black" r="2" stroke="red" stroke-width="2"/>
<circle cx="420" cy="323" fill="black" r="2" stroke="red" stroke-width="2"/>
<circle cx="469" cy="369" fill="black" r="2" stroke="red" stroke-width="2"/>
<circle cx="411" cy="321" fill="black" r="2" stroke="red" stroke-width="2"/>
<circle cx="411" cy="480" fill="black" r="2" stroke="red" stroke-width="2"/>
<circle cx="376" cy="386" fill="black" r="2" stroke="red" stroke-width="2"/>
<circle cx="376" cy="415" fill="black" r="2" stroke="red" stroke-width="2"/>
<circle cx="270" cy="400" fill="black" r="2" stroke="red" stroke-width="2"/>
<circle cx="552" cy="480" fill="black" r="2" stroke="red" stroke-width="2"/>
<circle cx="321" cy="385" fill="black" r="2" stroke="red" stroke-width="2"/>
<circle cx="397" cy="428" fill="black" r="2" stroke="red" stroke-width="2"/>
<circle cx="335" cy="400" fill="black" r="2" stroke="red" stroke-width="2"/>
<circle cx="512" cy="298" fill="black" r="2" stroke="red" stroke-width="2"/>
<circle cx="374" cy="423" fill="black" r="2" stroke="red" stroke-width="2"/>
<circle cx="552" cy="321" fill="black" r="2" stroke="red" stroke-width="2"/>
<circle cx="321" cy="416" fill="black" r="2" stroke="red" stroke-width="2"/>
<circle cx="397" cy="373" fill="black" r="2" stroke="red" stroke-width="2"/>
<circle cx="512" cy="503" fill="black" r="2" stroke="red" stroke-width="2"/>
<circle cx="374" cy="378" fill="black" r="2" stroke="red" stroke-width="2"/>
<circle cx="695" cy="400" fill="black" r="2" stroke="red" stroke-width="2"/>
<circle cx="533" cy="307" fill="black" r="2" stroke="red" stroke-width="2"/>
<circle cx="533" cy="494" fill="black" r="2" stroke="red" stroke-width="2"/>
<circle cx="49" cy="400" fill="black" r="2" stroke="red" stroke-width="2"/>
</svg>