<svg viewBox="0 0 800 800" xmlns="http://www.w3.org/2000/svg">
<line fill="none" stroke="blue" stroke-width="3" x1="82" x2="1197" y1="-788" y2="1336"/>
<line fill="none" stroke="green" stroke-width="3" x1="1444" x2="-680" y1="-191" y2="923"/>
<line fill="none" stroke="green" stroke-width="3" x1="1486" x2="-638" y1="-111" y2="1003"/>
<line fill="none" stroke="green" stroke-width="3" x1="1484" x2="-640" y1="-115" y2="999"/>
<circle cx="622" cy="240" fill="none" r="90" stroke="blue" stroke-width="3"/>
<circle cx="664" cy="320" fill="none" r="90" stroke="blue" stroke-width="3"/>
<line fill="none" stroke="red" stroke-width="1" x1="-800" x2="1600" y1="400" y2="401"/>
<line fill="none" stroke="blue" stroke-width="3" x1="1465" x2="-659" y1="-151" y2="963"/>
<line fill="none" stroke="blue" stroke-width="3" x1="1185" x2="-254" y1="-511" y2="1408"/>
<line fill="none" stroke="green" stroke-width="3" x1="-403" x2="1516" y1="-528" y2="911"/>
<line fill="none" stroke="red" stroke-width="1" x1="1250" x2="-189" y1="-462" y2="1457"/>
<circle cx="622" cy="240" fill="none" r="199" stroke="blue" stroke-width="3"/>
<circle cx="501" cy="400" fill="none" r="200" stroke="blue" stroke-width="3"/>
<line fill="none" stroke="blue" stroke-width="3" x1="-463" x2="1456" y1="-448" y2="991"/>
<line fill="none" stroke="blue" stroke-width="3" x1="1495" x2="-655" y1="-90" y2="971"/>
<line fill="none" stroke="green" stroke-width="3" x1="110" x2="1173" y1="-795" y2="1356"/>
<circle cx="664" cy="320" fill="none" r="180" stroke="blue" stroke-width="3"/>
<line fill="none" stroke="red" stroke-width="1" x1="-800" x2="1600" y1="240" y2="240"/>
<circle cx="501" cy="400" fill="none" r="180" stroke="blue" stroke-width="3"/>
<line fill="none" stroke="blue" stroke-width="3" x1="31" x2="1094" y1="-756" y2="1395"/>
<line fill="none" stroke="green" stroke-width="3" x1="1455" x2="-695" y1="-171" y2="890"/>
<line fill="none" stroke="green" stroke-width="3" x1="-426" x2="1493" y1="-497" y2="942"/>
</svg>