<svg viewBox="0 0 800 800" xmlns="http://www.w3.org/2000/svg">
<circle cx="400" cy="400" fill="none" r="80" stroke="darkgray" stroke-width="3"/>
<line fill="none" stroke="darkgray" stroke-width="3" x1="-800" x2="1600" y1="570" y2="570"/>
<line fill="none" stroke="blue" stroke-width="3" x1="196" x2="603" y1="-782" y2="1582"/>
<circle cx="413" cy="479" fill="none" r="80" stroke="green" stroke-width="3"/>
<circle cx="386" cy="322" fill="none" r="80" stroke="green" stroke-width="3"/>
<line fill="none" stroke="red" stroke-width="1" x1="-725" x2="1525" y1="-15" y2="815"/>
<circle cx="475" cy="428" fill="none" r="80" stroke="red" stroke-width="1"/>
<line fill="none" stroke="red" stroke-width="1" x1="1322" x2="-522" y1="-367" y2="1167"/>
<circle cx="338" cy="452" fill="none" r="80" stroke="red" stroke-width="1"/>
<circle cx="400" cy="400" fill="none" r="160" stroke="red" stroke-width="1"/>
<circle cx="427" cy="558" fill="none" r="160" stroke="red" stroke-width="1"/>
<circle cx="461" cy="349" fill="none" r="80" stroke="red" stroke-width="1"/>
<circle cx="324" cy="373" fill="none" r="80" stroke="red" stroke-width="1"/>
<circle cx="372" cy="243" fill="none" r="160" stroke="red" stroke-width="1"/>
<circle cx="400" cy="400" fill="none" r="490" stroke="purple" stroke-width="1"/>
<circle cx="860" cy="570" fill="none" r="490" stroke="purple" stroke-width="1"/>
<line fill="none" stroke="purple" stroke-width="1" x1="-367" x2="1167" y1="-522" y2="1322"/>
<circle cx="400" cy="400" fill="none" r="138" stroke="purple" stroke-width="1"/>
<circle cx="488" cy="507" fill="none" r="138" stroke="purple" stroke-width="1"/>
<circle cx="400" cy="400" fill="none" r="265" stroke="purple" stroke-width="1"/>
<circle cx="195" cy="570" fill="none" r="265" stroke="purple" stroke-width="1"/>
<line fill="none" stroke="purple" stroke-width="1" x1="815" x2="-15" y1="-725" y2="1525"/>
<circle cx="352" cy="530" fill="none" r="138" stroke="purple" stroke-width="1"/>
<line fill="none" stroke="purple" stroke-width="1" x1="-795" x2="1595" y1="302" y2="499"/>
<circle cx="479" cy="407" fill="none" r="80" stroke="purple" stroke-width="1"/>
<line fill="none" stroke="purple" stroke-width="1" x1="1494" x2="-694" y1="-92" y2="892"/>
<circle cx="327" cy="433" fill="none" r="80" stroke="purple" stroke-width="1"/>
<line fill="none" stroke="purple" stroke-width="1" x1="-487" x2="1287" y1="-407" y2="1207"/>
<circle cx="400" cy="400" fill="none" r="252" stroke="purple" stroke-width="1"/>
<circle cx="586" cy="570" fill="none" r="252" stroke="purple" stroke-width="1"/>
<line fill="none" stroke="purple" stroke-width="1" x1="1137" x2="-337" y1="-546" y2="1346"/>
<circle cx="400" cy="400" fill="none" r="215" stroke="purple" stroke-width="1"/>
<circle cx="267" cy="570" fill="none" r="215" stroke="purple" stroke-width="1"/>
<circle cx="400" cy="400" fill="none" r="320" stroke="purple" stroke-width="1"/>
<circle cx="454" cy="716" fill="none" r="320" stroke="purple" stroke-width="1"/>
<circle cx="447" cy="271" fill="none" r="138" stroke="purple" stroke-width="1"/>
<circle cx="311" cy="294" fill="none" r="138" stroke="purple" stroke-width="1"/>
<circle cx="472" cy="368" fill="none" r="80" stroke="purple" stroke-width="1"/>
<circle cx="320" cy="394" fill="none" r="80" stroke="purple" stroke-width="1"/>
<circle cx="345" cy="85" fill="none" r="320" stroke="purple" stroke-width="1"/>
<circle cx="550" cy="456" fill="none" r="160" stroke="brown" stroke-width="1"/>
<circle cx="276" cy="503" fill="none" r="160" stroke="brown" stroke-width="1"/>
<circle cx="249" cy="345" fill="none" r="160" stroke="brown" stroke-width="1"/>
<circle cx="523" cy="298" fill="none" r="160" stroke="brown" stroke-width="1"/>
<line fill="none" stroke="brown" stroke-width="1" x1="1525" x2="-725" y1="-15" y2="815"/>
<circle cx="-60" cy="570" fill="none" r="490" stroke="brown" stroke-width="1"/>
<circle cx="483" cy="883" fill="none" r="490" stroke="brown" stroke-width="1"/>
<circle cx="316" cy="-83" fill="none" r="490" stroke="brown" stroke-width="1"/>
<circle cx="-60" cy="231" fill="none" r="490" stroke="brown" stroke-width="1"/>
<line fill="none" stroke="brown" stroke-width="1" x1="905" x2="-105" y1="-688" y2="1488"/>
<circle cx="433" cy="328" fill="none" r="80" stroke="brown" stroke-width="1"/>
<line fill="none" stroke="brown" stroke-width="1" x1="722" x2="77" y1="-755" y2="1555"/>
<circle cx="378" cy="478" fill="none" r="80" stroke="brown" stroke-width="1"/>
<line fill="none" stroke="brown" stroke-width="1" x1="-781" x2="1581" y1="190" y2="611"/>
<circle cx="400" cy="400" fill="none" r="966" stroke="brown" stroke-width="1"/>
<circle cx="1351" cy="570" fill="none" r="966" stroke="brown" stroke-width="1"/>
<line fill="none" stroke="brown" stroke-width="1" x1="610" x2="189" y1="-781" y2="1581"/>
<circle cx="400" cy="400" fill="none" r="172" stroke="brown" stroke-width="1"/>
<circle cx="369" cy="570" fill="none" r="172" stroke="brown" stroke-width="1"/>
<line fill="none" stroke="brown" stroke-width="1" x1="639" x2="160" y1="-775" y2="1575"/>
<circle cx="400" cy="400" fill="none" r="149" stroke="brown" stroke-width="1"/>
<circle cx="370" cy="547" fill="none" r="149" stroke="brown" stroke-width="1"/>
<circle cx="400" cy="400" fill="none" r="981" stroke="brown" stroke-width="1"/>
<circle cx="1320" cy="740" fill="none" r="981" stroke="brown" stroke-width="1"/>
<circle cx="451" cy="462" fill="none" r="80" stroke="brown" stroke-width="1"/>
<circle cx="400" cy="400" fill="none" r="113" stroke="darkcyan" stroke-width="1"/>
<circle cx="348" cy="339" fill="none" r="80" stroke="brown" stroke-width="1"/>
<circle cx="400" cy="400" fill="none" r="220" stroke="brown" stroke-width="1"/>
<circle cx="541" cy="570" fill="none" r="220" stroke="brown" stroke-width="1"/>
<circle cx="423" cy="537" fill="none" r="138" stroke="brown" stroke-width="1"/>
<circle cx="376" cy="264" fill="none" r="138" stroke="brown" stroke-width="1"/>
<line fill="none" stroke="brown" stroke-width="1" x1="1504" x2="-704" y1="-68" y2="868"/>
<circle cx="473" cy="369" fill="none" r="80" stroke="brown" stroke-width="1"/>
<line fill="none" stroke="brown" stroke-width="1" x1="1061" x2="-261" y1="-600" y2="1400"/>
<circle cx="355" cy="467" fill="none" r="80" stroke="brown" stroke-width="1"/>
<line fill="none" stroke="brown" stroke-width="1" x1="-536" x2="1336" y1="-350" y2="1150"/>
<circle cx="400" cy="400" fill="none" r="271" stroke="brown" stroke-width="1"/>
<circle cx="611" cy="570" fill="none" r="271" stroke="brown" stroke-width="1"/>
<line fill="none" stroke="brown" stroke-width="1" x1="639" x2="160" y1="-775" y2="1575"/>
<circle cx="400" cy="400" fill="none" r="173" stroke="brown" stroke-width="1"/>
<circle cx="365" cy="570" fill="none" r="173" stroke="brown" stroke-width="1"/>
<circle cx="400" cy="400" fill="none" r="240" stroke="brown" stroke-width="1"/>
<circle cx="440" cy="637" fill="none" r="240" stroke="brown" stroke-width="1"/>
<line fill="none" stroke="brown" stroke-width="1" x1="-522" x2="1322" y1="-367" y2="1167"/>
<circle cx="604" cy="570" fill="none" r="265" stroke="brown" stroke-width="1"/>
<circle cx="444" cy="662" fill="none" r="265" stroke="brown" stroke-width="1"/>
<circle cx="355" cy="139" fill="none" r="265" stroke="brown" stroke-width="1"/>
<circle cx="604" cy="231" fill="none" r="265" stroke="brown" stroke-width="1"/>
<line fill="none" stroke="brown" stroke-width="1" x1="-219" x2="1019" y1="-627" y2="1427"/>
<circle cx="441" cy="469" fill="none" r="80" stroke="brown" stroke-width="1"/>
<line fill="none" stroke="brown" stroke-width="1" x1="-497" x2="1297" y1="-396" y2="1196"/>
<circle cx="340" cy="347" fill="none" r="80" stroke="brown" stroke-width="1"/>
<line fill="none" stroke="brown" stroke-width="1" x1="-7" x2="807" y1="-728" y2="1528"/>
<circle cx="400" cy="400" fill="none" r="180" stroke="brown" stroke-width="1"/>
<circle cx="461" cy="570" fill="none" r="180" stroke="brown" stroke-width="1"/>
<line fill="none" stroke="brown" stroke-width="1" x1="1528" x2="-728" y1="-7" y2="807"/>
<circle cx="400" cy="400" fill="none" r="499" stroke="brown" stroke-width="1"/>
<circle cx="-69" cy="570" fill="none" r="499" stroke="brown" stroke-width="1"/>
<line fill="none" stroke="brown" stroke-width="1" x1="-62" x2="862" y1="-707" y2="1507"/>
<circle cx="400" cy="400" fill="none" r="155" stroke="brown" stroke-width="1"/>
<circle cx="460" cy="544" fill="none" r="155" stroke="brown" stroke-width="1"/>
<circle cx="400" cy="400" fill="none" r="531" stroke="brown" stroke-width="1"/>
<circle cx="-8" cy="740" fill="none" r="531" stroke="brown" stroke-width="1"/>
<circle cx="372" cy="476" fill="none" r="80" stroke="brown" stroke-width="1"/>
<circle cx="427" cy="325" fill="none" r="80" stroke="brown" stroke-width="1"/>
<circle cx="400" cy="400" fill="none" r="181" stroke="brown" stroke-width="1"/>
<circle cx="337" cy="570" fill="none" r="181" stroke="brown" stroke-width="1"/>
<line fill="none" stroke="brown" stroke-width="1" x1="-557" x2="1357" y1="-322" y2="1122"/>
<circle cx="463" cy="449" fill="none" r="80" stroke="brown" stroke-width="1"/>
<line fill="none" stroke="brown" stroke-width="1" x1="-797" x2="1597" y1="328" y2="473"/>
<circle cx="320" cy="396" fill="none" r="80" stroke="brown" stroke-width="1"/>
<line fill="none" stroke="brown" stroke-width="1" x1="-135" x2="935" y1="-673" y2="1473"/>
<circle cx="400" cy="400" fill="none" r="189" stroke="brown" stroke-width="1"/>
<circle cx="484" cy="570" fill="none" r="189" stroke="brown" stroke-width="1"/>
<line fill="none" stroke="brown" stroke-width="1" x1="1274" x2="-474" y1="-422" y2="1222"/>
<circle cx="400" cy="400" fill="none" r="247" stroke="brown" stroke-width="1"/>
<circle cx="219" cy="570" fill="none" r="247" stroke="brown" stroke-width="1"/>
<circle cx="400" cy="400" fill="none" r="2060" stroke="brown" stroke-width="1"/>
<circle cx="2453" cy="570" fill="none" r="2060" stroke="brown" stroke-width="1"/>
<circle cx="400" cy="400" fill="none" r="40" stroke="brown" stroke-width="1"/>
<circle cx="439" cy="404" fill="none" r="40" stroke="brown" stroke-width="1"/>
<line fill="none" stroke="brown" stroke-width="1" x1="1083" x2="-283" y1="-586" y2="1386"/>
<circle cx="445" cy="335" fill="none" r="80" stroke="brown" stroke-width="1"/>
<line fill="none" stroke="brown" stroke-width="1" x1="-112" x2="912" y1="-685" y2="1485"/>
<circle cx="434" cy="473" fill="none" r="80" stroke="brown" stroke-width="1"/>
<circle cx="406" cy="440" fill="none" r="40" stroke="brown" stroke-width="1"/>
<line fill="none" stroke="brown" stroke-width="1" x1="-484" x2="1284" y1="-410" y2="1210"/>
<circle cx="400" cy="400" fill="none" r="126" stroke="brown" stroke-width="1"/>
<circle cx="493" cy="486" fill="none" r="126" stroke="brown" stroke-width="1"/>
<line fill="none" stroke="brown" stroke-width="1" x1="-733" x2="1533" y1="6" y2="795"/>
<circle cx="400" cy="400" fill="none" r="154" stroke="brown" stroke-width="1"/>
<circle cx="546" cy="451" fill="none" r="154" stroke="brown" stroke-width="1"/>
<circle cx="400" cy="400" fill="none" r="413" stroke="brown" stroke-width="1"/>
<circle cx="22" cy="570" fill="none" r="413" stroke="brown" stroke-width="1"/>
<circle cx="363" cy="417" fill="none" r="40" stroke="brown" stroke-width="1"/>
<line fill="none" stroke="brown" stroke-width="1" x1="520" x2="279" y1="-793" y2="1593"/>
<circle cx="391" cy="480" fill="none" r="80" stroke="brown" stroke-width="1"/>
<line fill="none" stroke="brown" stroke-width="1" x1="-573" x2="1373" y1="-301" y2="1101"/>
<circle cx="335" cy="354" fill="none" r="80" stroke="brown" stroke-width="1"/>
<line fill="none" stroke="brown" stroke-width="1" x1="963" x2="-163" y1="-659" y2="1459"/>
<circle cx="340" cy="512" fill="none" r="126" stroke="brown" stroke-width="1"/>
<line fill="none" stroke="brown" stroke-width="1" x1="1336" x2="-536" y1="-350" y2="1150"/>
<circle cx="279" cy="497" fill="none" r="154" stroke="brown" stroke-width="1"/>
<circle cx="459" cy="454" fill="none" r="80" stroke="brown" stroke-width="1"/>
<circle cx="340" cy="347" fill="none" r="80" stroke="brown" stroke-width="1"/>
<circle cx="400" cy="400" fill="none" r="126" stroke="brown" stroke-width="1"/>
<circle cx="493" cy="485" fill="none" r="126" stroke="brown" stroke-width="1"/>
<line fill="none" stroke="brown" stroke-width="1" x1="1287" x2="-487" y1="-407" y2="1207"/>
<circle cx="213" cy="570" fill="none" r="252" stroke="brown" stroke-width="1"/>
<circle cx="442" cy="649" fill="none" r="252" stroke="brown" stroke-width="1"/>
<circle cx="357" cy="152" fill="none" r="252" stroke="brown" stroke-width="1"/>
<line fill="none" stroke="brown" stroke-width="1" x1="966" x2="-166" y1="-657" y2="1457"/>
<circle cx="280" cy="623" fill="none" r="252" stroke="brown" stroke-width="1"/>
<line fill="none" stroke="brown" stroke-width="1" x1="1338" x2="-538" y1="-348" y2="1148"/>
<circle cx="462" cy="351" fill="none" r="80" stroke="brown" stroke-width="1"/>
<line fill="none" stroke="brown" stroke-width="1" x1="1056" x2="-256" y1="-604" y2="1404"/>
<circle cx="356" cy="467" fill="none" r="80" stroke="brown" stroke-width="1"/>
<line fill="none" stroke="brown" stroke-width="1" x1="-719" x2="1519" y1="-33" y2="833"/>
<circle cx="400" cy="400" fill="none" r="470" stroke="brown" stroke-width="1"/>
<circle cx="838" cy="570" fill="none" r="470" stroke="brown" stroke-width="1"/>
<line fill="none" stroke="brown" stroke-width="1" x1="833" x2="-33" y1="-719" y2="1519"/>
<circle cx="400" cy="400" fill="none" r="182" stroke="brown" stroke-width="1"/>
<circle cx="334" cy="570" fill="none" r="182" stroke="brown" stroke-width="1"/>
<circle cx="400" cy="400" fill="none" r="398" stroke="brown" stroke-width="1"/>
<circle cx="467" cy="793" fill="none" r="398" stroke="brown" stroke-width="1"/>
<line fill="none" stroke="brown" stroke-width="1" x1="958" x2="-158" y1="-662" y2="1462"/>
<circle cx="400" cy="400" fill="none" r="126" stroke="brown" stroke-width="1"/>
<circle cx="340" cy="513" fill="none" r="126" stroke="brown" stroke-width="1"/>
<line fill="none" stroke="brown" stroke-width="1" x1="491" x2="308" y1="-796" y2="1596"/>
<circle cx="400" cy="400" fill="none" r="310" stroke="brown" stroke-width="1"/>
<circle cx="376" cy="710" fill="none" r="310" stroke="brown" stroke-width="1"/>
<circle cx="350" cy="464" fill="none" r="80" stroke="brown" stroke-width="1"/>
<circle cx="449" cy="337" fill="none" r="80" stroke="brown" stroke-width="1"/>
<circle cx="400" cy="400" fill="none" r="107" stroke="brown" stroke-width="1"/>
<circle cx="333" cy="485" fill="none" r="107" stroke="brown" stroke-width="1"/>
<line fill="none" stroke="brown" stroke-width="1" x1="-337" x2="1137" y1="-546" y2="1346"/>
<circle cx="532" cy="570" fill="none" r="215" stroke="brown" stroke-width="1"/>
<circle cx="436" cy="613" fill="none" r="215" stroke="brown" stroke-width="1"/>
<circle cx="363" cy="188" fill="none" r="215" stroke="brown" stroke-width="1"/>
<line fill="none" stroke="brown" stroke-width="1" x1="-611" x2="1411" y1="-245" y2="1045"/>
<circle cx="581" cy="516" fill="none" r="215" stroke="brown" stroke-width="1"/>
<line fill="none" stroke="brown" stroke-width="1" x1="-392" x2="1192" y1="-500" y2="1300"/>
<circle cx="452" cy="461" fill="none" r="80" stroke="brown" stroke-width="1"/>
<line fill="none" stroke="brown" stroke-width="1" x1="-666" x2="1466" y1="-149" y2="949"/>
<circle cx="328" cy="364" fill="none" r="80" stroke="brown" stroke-width="1"/>
<line fill="none" stroke="brown" stroke-width="1" x1="-126" x2="926" y1="-678" y2="1478"/>
<circle cx="400" cy="400" fill="none" r="189" stroke="brown" stroke-width="1"/>
<circle cx="482" cy="570" fill="none" r="189" stroke="brown" stroke-width="1"/>
<line fill="none" stroke="brown" stroke-width="1" x1="1478" x2="-678" y1="-126" y2="926"/>
<circle cx="400" cy="400" fill="none" r="387" stroke="brown" stroke-width="1"/>
<circle cx="52" cy="570" fill="none" r="387" stroke="brown" stroke-width="1"/>
<circle cx="400" cy="400" fill="none" r="289" stroke="brown" stroke-width="1"/>
<circle cx="449" cy="686" fill="none" r="289" stroke="brown" stroke-width="1"/>
<line fill="none" stroke="brown" stroke-width="1" x1="-234" x2="1034" y1="-618" y2="1418"/>
<circle cx="400" cy="400" fill="none" r="148" stroke="brown" stroke-width="1"/>
<circle cx="478" cy="526" fill="none" r="148" stroke="brown" stroke-width="1"/>
<line fill="none" stroke="brown" stroke-width="1" x1="308" x2="491" y1="-796" y2="1596"/>
<circle cx="400" cy="400" fill="none" r="318" stroke="brown" stroke-width="1"/>
<circle cx="424" cy="718" fill="none" r="318" stroke="brown" stroke-width="1"/>
<line fill="none" stroke="brown" stroke-width="1" x1="-616" x2="1416" y1="-237" y2="1037"/>
<circle cx="671" cy="570" fill="none" r="320" stroke="brown" stroke-width="1"/>
<line fill="none" stroke="brown" stroke-width="1" x1="1416" x2="-616" y1="-237" y2="1037"/>
<circle cx="128" cy="570" fill="none" r="320" stroke="brown" stroke-width="1"/>
<line fill="none" stroke="brown" stroke-width="1" x1="1598" x2="-798" y1="347" y2="454"/>
<circle cx="479" cy="397" fill="none" r="80" stroke="brown" stroke-width="1"/>
<line fill="none" stroke="brown" stroke-width="1" x1="1547" x2="-747" y1="51" y2="750"/>
<circle cx="323" cy="424" fill="none" r="80" stroke="brown" stroke-width="1"/>
<line fill="none" stroke="brown" stroke-width="1" x1="-672" x2="1472" y1="-137" y2="937"/>
<circle cx="400" cy="400" fill="none" r="379" stroke="brown" stroke-width="1"/>
<circle cx="739" cy="570" fill="none" r="379" stroke="brown" stroke-width="1"/>
<line fill="none" stroke="brown" stroke-width="1" x1="1366" x2="-566" y1="-311" y2="1111"/>
<circle cx="400" cy="400" fill="none" r="286" stroke="brown" stroke-width="1"/>
<circle cx="169" cy="570" fill="none" r="286" stroke="brown" stroke-width="1"/>
<circle cx="400" cy="400" fill="none" r="640" stroke="brown" stroke-width="1"/>
<circle cx="508" cy="1030" fill="none" r="640" stroke="brown" stroke-width="1"/>
<circle cx="479" cy="405" fill="none" r="80" stroke="brown" stroke-width="1"/>
<circle cx="336" cy="352" fill="none" r="80" stroke="brown" stroke-width="1"/>
<circle cx="359" cy="164" fill="none" r="240" stroke="brown" stroke-width="1"/>
<circle cx="444" cy="334" fill="none" r="80" stroke="brown" stroke-width="1"/>
<circle cx="326" cy="432" fill="none" r="80" stroke="brown" stroke-width="1"/>
<circle cx="464" cy="447" fill="none" r="80" stroke="brown" stroke-width="1"/>
<circle cx="408" cy="321" fill="none" r="80" stroke="brown" stroke-width="1"/>
<circle cx="393" cy="361" fill="none" r="40" stroke="brown" stroke-width="1"/>
<circle cx="459" cy="289" fill="none" r="126" stroke="brown" stroke-width="1"/>
<circle cx="520" cy="304" fill="none" r="154" stroke="brown" stroke-width="1"/>
<circle cx="365" cy="328" fill="none" r="80" stroke="brown" stroke-width="1"/>
<circle cx="354" cy="466" fill="none" r="80" stroke="brown" stroke-width="1"/>
<circle cx="306" cy="315" fill="none" r="126" stroke="brown" stroke-width="1"/>
<circle cx="253" cy="350" fill="none" r="154" stroke="brown" stroke-width="1"/>
<circle cx="476" cy="377" fill="none" r="80" stroke="brown" stroke-width="1"/>
<circle cx="320" cy="404" fill="none" r="80" stroke="brown" stroke-width="1"/>
<circle cx="291" cy="-230" fill="none" r="640" stroke="brown" stroke-width="1"/>
<circle cx="400" cy="400" fill="none" r="172" stroke="blue" stroke-width="3"/>
<line fill="none" stroke="green" stroke-width="3" x1="603" x2="196" y1="-782" y2="1582"/>
<circle cx="370" cy="570" fill="none" r="172" stroke="green" stroke-width="3"/>
<circle cx="370" cy="231" fill="none" r="172" stroke="red" stroke-width="1"/>
<circle cx="386" cy="479" fill="none" r="80" stroke="red" stroke-width="1"/>
<circle cx="413" cy="322" fill="none" r="80" stroke="red" stroke-width="1"/>
<circle cx="429" cy="231" fill="none" r="172" stroke="red" stroke-width="1"/>
<line fill="none" stroke="red" stroke-width="1" x1="-703" x2="1503" y1="-72" y2="872"/>
<circle cx="473" cy="432" fill="none" r="80" stroke="red" stroke-width="1"/>
<line fill="none" stroke="red" stroke-width="1" x1="1597" x2="-797" y1="324" y2="477"/>
<circle cx="320" cy="406" fill="none" r="80" stroke="red" stroke-width="1"/>
<line fill="none" stroke="red" stroke-width="1" x1="-373" x2="1173" y1="-517" y2="1317"/>
<circle cx="400" cy="400" fill="none" r="222" stroke="red" stroke-width="1"/>
<circle cx="543" cy="570" fill="none" r="222" stroke="red" stroke-width="1"/>
<line fill="none" stroke="red" stroke-width="1" x1="1317" x2="-517" y1="-373" y2="1173"/>
<circle cx="400" cy="400" fill="none" r="263" stroke="red" stroke-width="1"/>
<circle cx="198" cy="570" fill="none" r="263" stroke="red" stroke-width="1"/>
<circle cx="400" cy="400" fill="none" r="324" stroke="purple" stroke-width="1"/>
<circle cx="455" cy="721" fill="none" r="324" stroke="purple" stroke-width="1"/>
<circle cx="400" cy="400" fill="none" r="344" stroke="purple" stroke-width="1"/>
<circle cx="341" cy="740" fill="none" r="344" stroke="purple" stroke-width="1"/>
<line fill="none" stroke="purple" stroke-width="1" x1="1503" x2="-703" y1="-72" y2="872"/>
<circle cx="473" cy="369" fill="none" r="80" stroke="purple" stroke-width="1"/>
<line fill="none" stroke="purple" stroke-width="1" x1="-797" x2="1597" y1="324" y2="477"/>
<circle cx="320" cy="395" fill="none" r="80" stroke="purple" stroke-width="1"/>
<circle cx="341" cy="61" fill="none" r="344" stroke="purple" stroke-width="1"/>
<circle cx="479" cy="395" fill="none" r="80" stroke="purple" stroke-width="1"/>
<circle cx="326" cy="369" fill="none" r="80" stroke="purple" stroke-width="1"/>
</svg>