<svg viewBox="0 0 800 800" xmlns="http://www.w3.org/2000/svg">
<line fill="none" stroke="darkgray" stroke-width="3" x1="-800" x2="1600" y1="400" y2="400"/>
<line fill="none" stroke="blue" stroke-width="3" x1="400" x2="400" y1="-800" y2="1600"/>
<line fill="none" stroke="green" stroke-width="3" x1="-800" x2="1600" y1="331" y2="331"/>
<circle cx="400" cy="331" fill="none" r="69" stroke="green" stroke-width="3"/>
<circle cx="400" cy="400" fill="none" r="69" stroke="green" stroke-width="3"/>
<line fill="none" stroke="green" stroke-width="3" x1="-800" x2="1600" y1="366" y2="366"/>
<line fill="none" stroke="blue" stroke-width="3" x1="103" x2="731" y1="-763" y2="1553"/>
<line fill="none" stroke="green" stroke-width="3" x1="1540" x2="-775" y1="22" y2="650"/>
<circle cx="400" cy="331" fill="none" r="71" stroke="blue" stroke-width="3"/>
<circle cx="400" cy="331" fill="black" r="2" stroke="darkgray" stroke-width="2"/>
<circle cx="418" cy="400" fill="black" r="2" stroke="darkgray" stroke-width="2"/>
<circle cx="400" cy="400" fill="black" r="2" stroke="blue" stroke-width="2"/>
<circle cx="400" cy="262" fill="black" r="2" stroke="green" stroke-width="2"/>
<circle cx="469" cy="400" fill="black" r="2" stroke="green" stroke-width="2"/>
<circle cx="330" cy="400" fill="black" r="2" stroke="green" stroke-width="2"/>
<circle cx="400" cy="470" fill="black" r="2" stroke="green" stroke-width="2"/>
<circle cx="400" cy="366" fill="black" r="2" stroke="green" stroke-width="2"/>
<circle cx="144" cy="400" fill="black" r="2" stroke="green" stroke-width="2"/>
<circle cx="381" cy="400" fill="black" r="2" stroke="blue" stroke-width="2"/>
<circle cx="400" cy="403" fill="black" r="2" stroke="green" stroke-width="2"/>
<circle cx="400" cy="259" fill="black" r="2" stroke="green" stroke-width="2"/>
<circle cx="381" cy="262" fill="black" r="2" stroke="green" stroke-width="2"/>
</svg>