<svg viewBox="0 0 800 800" xmlns="http://www.w3.org/2000/svg">
<line fill="none" stroke="darkgray" stroke-width="3" x1="480" x2="480" y1="-800" y2="1600"/>
<line fill="none" stroke="darkgray" stroke-width="3" x1="-800" x2="1600" y1="481" y2="481"/>
<line fill="none" stroke="darkgray" stroke-width="3" x1="319" x2="319" y1="-800" y2="1600"/>
<line fill="none" stroke="darkgray" stroke-width="3" x1="-800" x2="1600" y1="320" y2="320"/>
<circle cx="480" cy="480" fill="none" r="160" stroke="blue" stroke-width="3"/>
<circle cx="319" cy="480" fill="none" r="160" stroke="blue" stroke-width="3"/>
<circle cx="480" cy="320" fill="none" r="160" stroke="blue" stroke-width="3"/>
<line fill="none" stroke="blue" stroke-width="3" x1="-448" x2="1248" y1="-448" y2="1248"/>
<circle cx="480" cy="480" fill="none" r="226" stroke="blue" stroke-width="3"/>
<circle cx="319" cy="320" fill="none" r="226" stroke="blue" stroke-width="3"/>
<circle cx="480" cy="480" fill="none" r="145" stroke="blue" stroke-width="3"/>
<circle cx="319" cy="480" fill="none" r="14" stroke="green" stroke-width="3"/>
<line fill="none" stroke="red" stroke-width="1" x1="-801" x2="1588" y1="367" y2="579"/>
<circle cx="480" cy="480" fill="none" r="160" stroke="red" stroke-width="1"/>
<circle cx="320" cy="466" fill="none" r="160" stroke="red" stroke-width="1"/>
<circle cx="320" cy="466" fill="none" r="14" stroke="red" stroke-width="1"/>
<line fill="none" stroke="red" stroke-width="1" x1="1283" x2="-490" y1="-412" y2="1204"/>
<circle cx="480" cy="320" fill="none" r="216" stroke="red" stroke-width="1"/>
<circle cx="320" cy="466" fill="none" r="216" stroke="red" stroke-width="1"/>
<circle cx="319" cy="320" fill="none" r="145" stroke="red" stroke-width="1"/>
<circle cx="320" cy="466" fill="none" r="145" stroke="red" stroke-width="1"/>
<line fill="none" stroke="red" stroke-width="1" x1="1326" x2="-526" y1="-362" y2="1162"/>
<circle cx="480" cy="335" fill="none" r="207" stroke="red" stroke-width="1"/>
<circle cx="320" cy="466" fill="none" r="207" stroke="red" stroke-width="1"/>
<line fill="none" stroke="red" stroke-width="1" x1="-521" x2="1175" y1="-375" y2="1321"/>
<circle cx="480" cy="626" fill="none" r="226" stroke="red" stroke-width="1"/>
<circle cx="320" cy="466" fill="none" r="226" stroke="red" stroke-width="1"/>
<line fill="none" stroke="red" stroke-width="1" x1="-801" x2="1595" y1="414" y2="525"/>
<circle cx="625" cy="480" fill="none" r="306" stroke="red" stroke-width="1"/>
<circle cx="320" cy="466" fill="none" r="306" stroke="red" stroke-width="1"/>
<circle cx="334" cy="480" fill="none" r="20" stroke="red" stroke-width="1"/>
<circle cx="320" cy="466" fill="none" r="20" stroke="red" stroke-width="1"/>
<line fill="none" stroke="red" stroke-width="1" x1="1241" x2="-455" y1="-455" y2="1241"/>
<circle cx="305" cy="480" fill="none" r="20" stroke="red" stroke-width="1"/>
<circle cx="480" cy="480" fill="black" r="2" stroke="darkgray" stroke-width="2"/>
<circle cx="319" cy="480" fill="black" r="2" stroke="darkgray" stroke-width="2"/>
<circle cx="480" cy="320" fill="black" r="2" stroke="darkgray" stroke-width="2"/>
<circle cx="319" cy="320" fill="black" r="2" stroke="darkgray" stroke-width="2"/>
<circle cx="480" cy="335" fill="black" r="2" stroke="darkgray" stroke-width="2"/>
<circle cx="480" cy="641" fill="black" r="2" stroke="blue" stroke-width="2"/>
<circle cx="640" cy="480" fill="black" r="2" stroke="blue" stroke-width="2"/>
<circle cx="159" cy="480" fill="black" r="2" stroke="blue" stroke-width="2"/>
<circle cx="320" cy="641" fill="black" r="2" stroke="blue" stroke-width="2"/>
<circle cx="400" cy="619" fill="black" r="2" stroke="green" stroke-width="2"/>
<circle cx="400" cy="342" fill="black" r="2" stroke="green" stroke-width="2"/>
<circle cx="480" cy="160" fill="black" r="2" stroke="blue" stroke-width="2"/>
<circle cx="640" cy="320" fill="black" r="2" stroke="blue" stroke-width="2"/>
<circle cx="618" cy="400" fill="black" r="2" stroke="green" stroke-width="2"/>
<circle cx="341" cy="400" fill="black" r="2" stroke="green" stroke-width="2"/>
<circle cx="593" cy="594" fill="black" r="2" stroke="green" stroke-width="2"/>
<circle cx="366" cy="367" fill="black" r="2" stroke="green" stroke-width="2"/>
<circle cx="480" cy="707" fill="black" r="2" stroke="blue" stroke-width="2"/>
<circle cx="480" cy="254" fill="black" r="2" stroke="blue" stroke-width="2"/>
<circle cx="706" cy="480" fill="black" r="2" stroke="blue" stroke-width="2"/>
<circle cx="253" cy="480" fill="black" r="2" stroke="blue" stroke-width="2"/>
<circle cx="640" cy="641" fill="black" r="2" stroke="green" stroke-width="2"/>
<circle cx="320" cy="547" fill="black" r="2" stroke="blue" stroke-width="2"/>
<circle cx="320" cy="94" fill="black" r="2" stroke="blue" stroke-width="2"/>
<circle cx="546" cy="320" fill="black" r="2" stroke="blue" stroke-width="2"/>
<circle cx="93" cy="320" fill="black" r="2" stroke="blue" stroke-width="2"/>
<circle cx="545" cy="335" fill="black" r="2" stroke="green" stroke-width="2"/>
<circle cx="334" cy="546" fill="black" r="2" stroke="green" stroke-width="2"/>
<circle cx="159" cy="160" fill="black" r="2" stroke="green" stroke-width="2"/>
<circle cx="538" cy="262" fill="black" r="2" stroke="green" stroke-width="2"/>
<circle cx="261" cy="539" fill="black" r="2" stroke="green" stroke-width="2"/>
<circle cx="480" cy="626" fill="black" r="2" stroke="blue" stroke-width="2"/>
<circle cx="625" cy="480" fill="black" r="2" stroke="blue" stroke-width="2"/>
<circle cx="334" cy="480" fill="black" r="2" stroke="blue" stroke-width="2"/>
<circle cx="413" cy="351" fill="black" r="2" stroke="green" stroke-width="2"/>
<circle cx="413" cy="610" fill="black" r="2" stroke="green" stroke-width="2"/>
<circle cx="609" cy="414" fill="black" r="2" stroke="green" stroke-width="2"/>
<circle cx="350" cy="414" fill="black" r="2" stroke="green" stroke-width="2"/>
<circle cx="583" cy="584" fill="black" r="2" stroke="green" stroke-width="2"/>
<circle cx="376" cy="377" fill="black" r="2" stroke="green" stroke-width="2"/>
<circle cx="544" cy="350" fill="black" r="2" stroke="green" stroke-width="2"/>
<circle cx="349" cy="545" fill="black" r="2" stroke="green" stroke-width="2"/>
<circle cx="305" cy="480" fill="black" r="2" stroke="green" stroke-width="2"/>
<circle cx="320" cy="495" fill="black" r="2" stroke="green" stroke-width="2"/>
<circle cx="320" cy="466" fill="black" r="2" stroke="green" stroke-width="2"/>
<circle cx="320" cy="495" fill="black" r="2" stroke="red" stroke-width="2"/>
<circle cx="320" cy="466" fill="black" r="2" stroke="red" stroke-width="2"/>
<circle cx="-1327" cy="320" fill="black" r="2" stroke="red" stroke-width="2"/>
<circle cx="625" cy="493" fill="black" r="2" stroke="red" stroke-width="2"/>
<circle cx="334" cy="468" fill="black" r="2" stroke="red" stroke-width="2"/>
<circle cx="322" cy="467" fill="black" r="2" stroke="red" stroke-width="2"/>
<circle cx="480" cy="641" fill="black" r="2" stroke="red" stroke-width="2"/>
<circle cx="480" cy="320" fill="black" r="2" stroke="red" stroke-width="2"/>
<circle cx="640" cy="480" fill="black" r="2" stroke="red" stroke-width="2"/>
<circle cx="319" cy="480" fill="black" r="2" stroke="red" stroke-width="2"/>
<circle cx="494" cy="320" fill="black" r="2" stroke="red" stroke-width="2"/>
<circle cx="465" cy="320" fill="black" r="2" stroke="red" stroke-width="2"/>
<circle cx="480" cy="452" fill="black" r="2" stroke="red" stroke-width="2"/>
<circle cx="320" cy="627" fill="black" r="2" stroke="red" stroke-width="2"/>
<circle cx="320" cy="306" fill="black" r="2" stroke="red" stroke-width="2"/>
<circle cx="387" cy="320" fill="black" r="2" stroke="red" stroke-width="2"/>
<circle cx="252" cy="320" fill="black" r="2" stroke="red" stroke-width="2"/>
<circle cx="425" cy="345" fill="black" r="2" stroke="red" stroke-width="2"/>
<circle cx="402" cy="604" fill="black" r="2" stroke="red" stroke-width="2"/>
<circle cx="320" cy="452" fill="black" r="2" stroke="red" stroke-width="2"/>
<circle cx="332" cy="473" fill="black" r="2" stroke="red" stroke-width="2"/>
<circle cx="307" cy="473" fill="black" r="2" stroke="red" stroke-width="2"/>
<circle cx="304" cy="480" fill="black" r="2" stroke="red" stroke-width="2"/>
<circle cx="337" cy="451" fill="black" r="2" stroke="red" stroke-width="2"/>
<circle cx="463" cy="336" fill="black" r="2" stroke="red" stroke-width="2"/>
<circle cx="305" cy="479" fill="black" r="2" stroke="red" stroke-width="2"/>
<circle cx="480" cy="537" fill="black" r="2" stroke="red" stroke-width="2"/>
<circle cx="480" cy="104" fill="black" r="2" stroke="red" stroke-width="2"/>
<circle cx="319" cy="175" fill="black" r="2" stroke="red" stroke-width="2"/>
<circle cx="696" cy="320" fill="black" r="2" stroke="red" stroke-width="2"/>
<circle cx="263" cy="320" fill="black" r="2" stroke="red" stroke-width="2"/>
<circle cx="480" cy="612" fill="black" r="2" stroke="red" stroke-width="2"/>
<circle cx="536" cy="480" fill="black" r="2" stroke="red" stroke-width="2"/>
<circle cx="103" cy="480" fill="black" r="2" stroke="red" stroke-width="2"/>
<circle cx="319" cy="683" fill="black" r="2" stroke="red" stroke-width="2"/>
<circle cx="319" cy="250" fill="black" r="2" stroke="red" stroke-width="2"/>
<circle cx="159" cy="320" fill="black" r="2" stroke="red" stroke-width="2"/>
<circle cx="492" cy="335" fill="black" r="2" stroke="red" stroke-width="2"/>
<circle cx="466" cy="626" fill="black" r="2" stroke="red" stroke-width="2"/>
<circle cx="174" cy="320" fill="black" r="2" stroke="red" stroke-width="2"/>
<circle cx="465" cy="335" fill="black" r="2" stroke="red" stroke-width="2"/>
<circle cx="334" cy="466" fill="black" r="2" stroke="red" stroke-width="2"/>
<circle cx="465" cy="480" fill="black" r="2" stroke="red" stroke-width="2"/>
<circle cx="174" cy="480" fill="black" r="2" stroke="red" stroke-width="2"/>
<circle cx="320" cy="612" fill="black" r="2" stroke="red" stroke-width="2"/>
<circle cx="410" cy="352" fill="black" r="2" stroke="red" stroke-width="2"/>
<circle cx="389" cy="595" fill="black" r="2" stroke="red" stroke-width="2"/>
<circle cx="302" cy="481" fill="black" r="2" stroke="red" stroke-width="2"/>
<circle cx="497" cy="320" fill="black" r="2" stroke="red" stroke-width="2"/>
<circle cx="336" cy="452" fill="black" r="2" stroke="red" stroke-width="2"/>
<circle cx="306" cy="478" fill="black" r="2" stroke="red" stroke-width="2"/>
<circle cx="480" cy="542" fill="black" r="2" stroke="red" stroke-width="2"/>
<circle cx="480" cy="127" fill="black" r="2" stroke="red" stroke-width="2"/>
<circle cx="627" cy="481" fill="black" r="2" stroke="red" stroke-width="2"/>
<circle cx="332" cy="481" fill="black" r="2" stroke="red" stroke-width="2"/>
<circle cx="319" cy="203" fill="black" r="2" stroke="red" stroke-width="2"/>
<circle cx="686" cy="320" fill="black" r="2" stroke="red" stroke-width="2"/>
<circle cx="273" cy="320" fill="black" r="2" stroke="red" stroke-width="2"/>
<circle cx="625" cy="482" fill="black" r="2" stroke="red" stroke-width="2"/>
<circle cx="334" cy="482" fill="black" r="2" stroke="red" stroke-width="2"/>
<circle cx="334" cy="482" fill="black" r="2" stroke="red" stroke-width="2"/>
<circle cx="480" cy="598" fill="black" r="2" stroke="red" stroke-width="2"/>
<circle cx="526" cy="480" fill="black" r="2" stroke="red" stroke-width="2"/>
<circle cx="113" cy="480" fill="black" r="2" stroke="red" stroke-width="2"/>
<circle cx="319" cy="674" fill="black" r="2" stroke="red" stroke-width="2"/>
<circle cx="319" cy="259" fill="black" r="2" stroke="red" stroke-width="2"/>
<circle cx="467" cy="320" fill="black" r="2" stroke="red" stroke-width="2"/>
<circle cx="172" cy="320" fill="black" r="2" stroke="red" stroke-width="2"/>
<circle cx="454" cy="624" fill="black" r="2" stroke="red" stroke-width="2"/>
<circle cx="480" cy="852" fill="black" r="2" stroke="red" stroke-width="2"/>
<circle cx="480" cy="400" fill="black" r="2" stroke="red" stroke-width="2"/>
<circle cx="653" cy="480" fill="black" r="2" stroke="red" stroke-width="2"/>
<circle cx="306" cy="480" fill="black" r="2" stroke="red" stroke-width="2"/>
<circle cx="319" cy="786" fill="black" r="2" stroke="red" stroke-width="2"/>
<circle cx="622" cy="451" fill="black" r="2" stroke="red" stroke-width="2"/>
<circle cx="337" cy="451" fill="black" r="2" stroke="red" stroke-width="2"/>
<circle cx="305" cy="482" fill="black" r="2" stroke="red" stroke-width="2"/>
<circle cx="480" cy="306" fill="black" r="2" stroke="red" stroke-width="2"/>
<circle cx="545" cy="480" fill="black" r="2" stroke="red" stroke-width="2"/>
<circle cx="94" cy="480" fill="black" r="2" stroke="red" stroke-width="2"/>
<circle cx="319" cy="693" fill="black" r="2" stroke="red" stroke-width="2"/>
<circle cx="319" cy="240" fill="black" r="2" stroke="red" stroke-width="2"/>
<circle cx="493" cy="320" fill="black" r="2" stroke="red" stroke-width="2"/>
<circle cx="146" cy="320" fill="black" r="2" stroke="red" stroke-width="2"/>
<circle cx="505" cy="337" fill="black" r="2" stroke="red" stroke-width="2"/>
<circle cx="480" cy="474" fill="black" r="2" stroke="red" stroke-width="2"/>
<circle cx="-2829" cy="320" fill="black" r="2" stroke="red" stroke-width="2"/>
<circle cx="334" cy="467" fill="black" r="2" stroke="red" stroke-width="2"/>
<circle cx="321" cy="466" fill="black" r="2" stroke="red" stroke-width="2"/>
<circle cx="480" cy="750" fill="black" r="2" stroke="red" stroke-width="2"/>
<circle cx="480" cy="211" fill="black" r="2" stroke="red" stroke-width="2"/>
<circle cx="932" cy="480" fill="black" r="2" stroke="red" stroke-width="2"/>
<circle cx="319" cy="480" fill="black" r="2" stroke="red" stroke-width="2"/>
<circle cx="886" cy="320" fill="black" r="2" stroke="red" stroke-width="2"/>
<circle cx="364" cy="320" fill="black" r="2" stroke="red" stroke-width="2"/>
<circle cx="480" cy="727" fill="black" r="2" stroke="red" stroke-width="2"/>
<circle cx="480" cy="205" fill="black" r="2" stroke="red" stroke-width="2"/>
<circle cx="14" cy="480" fill="black" r="2" stroke="red" stroke-width="2"/>
<circle cx="320" cy="773" fill="black" r="2" stroke="red" stroke-width="2"/>
<circle cx="320" cy="160" fill="black" r="2" stroke="red" stroke-width="2"/>
<circle cx="589" cy="320" fill="black" r="2" stroke="red" stroke-width="2"/>
<circle cx="50" cy="320" fill="black" r="2" stroke="red" stroke-width="2"/>
<circle cx="623" cy="506" fill="black" r="2" stroke="red" stroke-width="2"/>
<circle cx="354" cy="480" fill="black" r="2" stroke="red" stroke-width="2"/>
<circle cx="314" cy="480" fill="black" r="2" stroke="red" stroke-width="2"/>
<circle cx="335" cy="500" fill="black" r="2" stroke="red" stroke-width="2"/>
<circle cx="335" cy="461" fill="black" r="2" stroke="red" stroke-width="2"/>
<circle cx="320" cy="486" fill="black" r="2" stroke="red" stroke-width="2"/>
<circle cx="320" cy="446" fill="black" r="2" stroke="red" stroke-width="2"/>
<circle cx="336" cy="455" fill="black" r="2" stroke="red" stroke-width="2"/>
<circle cx="337" cy="449" fill="black" r="2" stroke="red" stroke-width="2"/>
<circle cx="448" cy="338" fill="black" r="2" stroke="red" stroke-width="2"/>
<circle cx="325" cy="480" fill="black" r="2" stroke="red" stroke-width="2"/>
<circle cx="285" cy="480" fill="black" r="2" stroke="red" stroke-width="2"/>
</svg>