<svg viewBox="0 0 800 800" xmlns="http://www.w3.org/2000/svg">
<line fill="none" stroke="darkgray" stroke-width="3" x1="-800" x2="1600" y1="400" y2="400"/>
<line fill="none" stroke="darkgray" stroke-width="3" x1="1120" x2="-320" y1="-560" y2="1360"/>
<line fill="none" stroke="darkgray" stroke-width="3" x1="-444" x2="1244" y1="-452" y2="1252"/>
<line fill="none" stroke="blue" stroke-width="3" x1="400" x2="400" y1="-800" y2="1600"/>
<line fill="none" stroke="blue" stroke-width="3" x1="-560" x2="1360" y1="-320" y2="1120"/>
<line fill="none" stroke="blue" stroke-width="3" x1="1252" x2="-452" y1="-444" y2="1244"/>
<circle cx="400" cy="400" fill="none" r="80" stroke="blue" stroke-width="3"/>
<circle cx="319" cy="400" fill="none" r="80" stroke="green" stroke-width="3"/>
<line fill="none" stroke="green" stroke-width="3" x1="360" x2="359" y1="-800" y2="1600"/>
<circle cx="351" cy="465" fill="none" r="80" stroke="green" stroke-width="3"/>
<line fill="none" stroke="green" stroke-width="3" x1="-584" x2="1336" y1="-288" y2="1152"/>
<circle cx="448" cy="336" fill="none" r="80" stroke="green" stroke-width="3"/>
<line fill="none" stroke="green" stroke-width="3" x1="-536" x2="1384" y1="-352" y2="1088"/>
<circle cx="456" cy="457" fill="none" r="80" stroke="green" stroke-width="3"/>
<line fill="none" stroke="green" stroke-width="3" x1="1280" x2="-424" y1="-415" y2="1272"/>
<circle cx="343" cy="344" fill="none" r="80" stroke="green" stroke-width="3"/>
<line fill="none" stroke="green" stroke-width="3" x1="1224" x2="-480" y1="-472" y2="1215"/>
<circle cx="480" cy="400" fill="none" r="80" stroke="blue" stroke-width="3"/>
<circle cx="400" cy="400" fill="none" r="160" stroke="green" stroke-width="3"/>
<circle cx="560" cy="400" fill="none" r="160" stroke="green" stroke-width="3"/>
<line fill="none" stroke="green" stroke-width="3" x1="480" x2="480" y1="-800" y2="1600"/>
<circle cx="400" cy="400" fill="none" r="96" stroke="green" stroke-width="3"/>
<circle cx="457" cy="324" fill="none" r="96" stroke="green" stroke-width="3"/>
<line fill="none" stroke="green" stroke-width="3" x1="-531" x2="1388" y1="-358" y2="1081"/>
<circle cx="400" cy="400" fill="none" r="112" stroke="green" stroke-width="3"/>
<circle cx="479" cy="480" fill="none" r="112" stroke="green" stroke-width="3"/>
<line fill="none" stroke="green" stroke-width="3" x1="1292" x2="-413" y1="-404" y2="1284"/>
<line fill="none" stroke="blue" stroke-width="3" x1="440" x2="440" y1="-800" y2="1600"/>
<circle cx="400" cy="400" fill="none" r="40" stroke="green" stroke-width="3"/>
<circle cx="440" cy="400" fill="none" r="40" stroke="green" stroke-width="3"/>
<line fill="none" stroke="green" stroke-width="3" x1="420" x2="420" y1="-800" y2="1600"/>
<circle cx="400" cy="400" fill="none" r="66" stroke="green" stroke-width="3"/>
<circle cx="440" cy="347" fill="none" r="66" stroke="green" stroke-width="3"/>
<line fill="none" stroke="green" stroke-width="3" x1="-540" x2="1380" y1="-346" y2="1093"/>
<circle cx="400" cy="400" fill="none" r="56" stroke="green" stroke-width="3"/>
<circle cx="440" cy="441" fill="none" r="56" stroke="green" stroke-width="3"/>
<line fill="none" stroke="green" stroke-width="3" x1="1272" x2="-432" y1="-424" y2="1264"/>
<line fill="none" stroke="green" stroke-width="3" x1="1171" x2="-268" y1="-521" y2="1398"/>
<line fill="none" stroke="green" stroke-width="3" x1="-403" x2="1284" y1="-492" y2="1212"/>
<circle cx="480" cy="400" fill="none" r="160" stroke="green" stroke-width="3"/>
<circle cx="319" cy="400" fill="none" r="160" stroke="green" stroke-width="3"/>
<line fill="none" stroke="green" stroke-width="3" x1="1489" x2="-657" y1="-104" y2="968"/>
<circle cx="480" cy="400" fill="none" r="143" stroke="green" stroke-width="3"/>
<circle cx="351" cy="465" fill="none" r="143" stroke="green" stroke-width="3"/>
<line fill="none" stroke="green" stroke-width="3" x1="-136" x2="936" y1="-673" y2="1473"/>
<line fill="none" stroke="green" stroke-width="3" x1="-72" x2="1000" y1="-705" y2="1441"/>
<circle cx="480" cy="400" fill="none" r="71" stroke="green" stroke-width="3"/>
<circle cx="448" cy="336" fill="none" r="71" stroke="green" stroke-width="3"/>
<line fill="none" stroke="green" stroke-width="3" x1="1473" x2="-673" y1="-136" y2="936"/>
<line fill="none" stroke="green" stroke-width="3" x1="930" x2="6" y1="-679" y2="1535"/>
<circle cx="480" cy="400" fill="none" r="61" stroke="green" stroke-width="3"/>
<circle cx="456" cy="457" fill="none" r="61" stroke="green" stroke-width="3"/>
<line fill="none" stroke="green" stroke-width="3" x1="-707" x2="1507" y1="-61" y2="861"/>
<line fill="none" stroke="green" stroke-width="3" x1="-695" x2="1519" y1="-90" y2="833"/>
<circle cx="480" cy="400" fill="none" r="147" stroke="green" stroke-width="3"/>
<circle cx="343" cy="344" fill="none" r="147" stroke="green" stroke-width="3"/>
<line fill="none" stroke="green" stroke-width="3" x1="861" x2="-61" y1="-707" y2="1507"/>
<circle cx="560" cy="400" fill="none" r="80" stroke="green" stroke-width="3"/>
<line fill="none" stroke="green" stroke-width="3" x1="520" x2="520" y1="-800" y2="1600"/>
<line fill="none" stroke="green" stroke-width="3" x1="137" x2="809" y1="-773" y2="1530"/>
<circle cx="457" cy="324" fill="none" r="80" stroke="green" stroke-width="3"/>
<line fill="none" stroke="green" stroke-width="3" x1="1547" x2="-756" y1="48" y2="720"/>
<line fill="none" stroke="green" stroke-width="3" x1="491" x2="468" y1="-799" y2="1600"/>
<circle cx="479" cy="480" fill="none" r="80" stroke="green" stroke-width="3"/>
<line fill="none" stroke="green" stroke-width="3" x1="-800" x2="1599" y1="428" y2="452"/>
<circle cx="480" cy="400" fill="none" r="40" stroke="green" stroke-width="3"/>
<line fill="none" stroke="green" stroke-width="3" x1="460" x2="460" y1="-800" y2="1600"/>
<line fill="none" stroke="green" stroke-width="3" x1="-268" x2="1171" y1="-598" y2="1321"/>
<circle cx="480" cy="400" fill="none" r="66" stroke="green" stroke-width="3"/>
<line fill="none" stroke="green" stroke-width="3" x1="1368" x2="-551" y1="-308" y2="1131"/>
<line fill="none" stroke="green" stroke-width="3" x1="1284" x2="-403" y1="-412" y2="1292"/>
<circle cx="480" cy="400" fill="none" r="56" stroke="green" stroke-width="3"/>
<line fill="none" stroke="green" stroke-width="3" x1="-433" x2="1272" y1="-464" y2="1224"/>
<line fill="none" stroke="green" stroke-width="3" x1="319" x2="319" y1="-800" y2="1600"/>
<line fill="none" stroke="green" stroke-width="3" x1="-588" x2="1331" y1="-281" y2="1158"/>
<line fill="none" stroke="green" stroke-width="3" x1="1213" x2="-492" y1="-484" y2="1204"/>
<line fill="none" stroke="green" stroke-width="3" x1="-200" x2="872" y1="-641" y2="1505"/>
<circle cx="319" cy="400" fill="none" r="71" stroke="green" stroke-width="3"/>
<circle cx="351" cy="465" fill="none" r="71" stroke="green" stroke-width="3"/>
<line fill="none" stroke="green" stroke-width="3" x1="1457" x2="-689" y1="-168" y2="904"/>
<circle cx="319" cy="400" fill="none" r="143" stroke="green" stroke-width="3"/>
<circle cx="448" cy="336" fill="none" r="143" stroke="green" stroke-width="3"/>
<line fill="none" stroke="green" stroke-width="3" x1="-719" x2="1495" y1="-33" y2="890"/>
<circle cx="319" cy="400" fill="none" r="147" stroke="green" stroke-width="3"/>
<circle cx="456" cy="457" fill="none" r="147" stroke="green" stroke-width="3"/>
<line fill="none" stroke="green" stroke-width="3" x1="793" x2="-130" y1="-735" y2="1479"/>
<circle cx="319" cy="400" fill="none" r="61" stroke="green" stroke-width="3"/>
<circle cx="343" cy="344" fill="none" r="61" stroke="green" stroke-width="3"/>
<line fill="none" stroke="green" stroke-width="3" x1="351" x2="351" y1="-800" y2="1600"/>
<line fill="none" stroke="green" stroke-width="3" x1="-608" x2="1312" y1="-256" y2="1184"/>
<line fill="none" stroke="green" stroke-width="3" x1="1260" x2="-444" y1="-435" y2="1252"/>
<circle cx="351" cy="465" fill="none" r="160" stroke="green" stroke-width="3"/>
<circle cx="448" cy="336" fill="none" r="160" stroke="green" stroke-width="3"/>
<line fill="none" stroke="green" stroke-width="3" x1="1601" x2="-793" y1="379" y2="543"/>
<circle cx="351" cy="465" fill="none" r="104" stroke="green" stroke-width="3"/>
<circle cx="456" cy="457" fill="none" r="104" stroke="green" stroke-width="3"/>
<line fill="none" stroke="green" stroke-width="3" x1="317" x2="482" y1="-797" y2="1597"/>
<line fill="none" stroke="green" stroke-width="3" x1="265" x2="429" y1="-793" y2="1600"/>
<circle cx="351" cy="465" fill="none" r="121" stroke="green" stroke-width="3"/>
<circle cx="343" cy="344" fill="none" r="121" stroke="green" stroke-width="3"/>
<line fill="none" stroke="green" stroke-width="3" x1="1597" x2="-797" y1="318" y2="483"/>
<line fill="none" stroke="green" stroke-width="3" x1="448" x2="448" y1="-800" y2="1600"/>
<line fill="none" stroke="green" stroke-width="3" x1="-512" x2="1408" y1="-384" y2="1055"/>
<line fill="none" stroke="green" stroke-width="3" x1="1244" x2="-460" y1="-452" y2="1235"/>
<line fill="none" stroke="green" stroke-width="3" x1="370" x2="534" y1="-800" y2="1593"/>
<circle cx="448" cy="336" fill="none" r="121" stroke="green" stroke-width="3"/>
</svg>