<svg viewBox="0 0 800 800" xmlns="http://www.w3.org/2000/svg">
<circle cx="400" cy="400" fill="none" r="200" stroke="darkgray" stroke-width="3"/>
<line fill="none" stroke="blue" stroke-width="3" x1="23" x2="1096" y1="-753" y2="1393"/>
<circle cx="600" cy="400" fill="none" r="178" stroke="blue" stroke-width="3"/>
<line fill="none" stroke="green" stroke-width="3" x1="1096" x2="23" y1="-593" y2="1553"/>
<circle cx="520" cy="561" fill="none" r="178" stroke="green" stroke-width="3"/>
<circle cx="680" cy="560" fill="none" r="178" stroke="red" stroke-width="1"/>
<circle cx="680" cy="240" fill="none" r="178" stroke="red" stroke-width="1"/>
<line fill="none" stroke="red" stroke-width="1" x1="1432" x2="-488" y1="-224" y2="1216"/>
<circle cx="600" cy="400" fill="none" r="320" stroke="red" stroke-width="1"/>
<circle cx="343" cy="593" fill="none" r="320" stroke="red" stroke-width="1"/>
<line fill="none" stroke="red" stroke-width="1" x1="-121" x2="1200" y1="-693" y2="1309"/>
<circle cx="698" cy="550" fill="none" r="178" stroke="red" stroke-width="1"/>
<line fill="none" stroke="brown" stroke-width="1" x1="-589" x2="1489" y1="-286" y2="913"/>
<line fill="none" stroke="red" stroke-width="1" x1="1598" x2="-797" y1="341" y2="484"/>
<circle cx="421" cy="411" fill="none" r="178" stroke="red" stroke-width="1"/>
<line fill="none" stroke="brown" stroke-width="1" x1="1489" x2="-589" y1="-113" y2="1086"/>
<circle cx="520" cy="240" fill="none" r="178" stroke="blue" stroke-width="3"/>
<line fill="none" stroke="green" stroke-width="3" x1="519" x2="520" y1="-800" y2="1600"/>
<circle cx="520" cy="240" fill="none" r="320" stroke="green" stroke-width="3"/>
<circle cx="520" cy="561" fill="none" r="320" stroke="green" stroke-width="3"/>
<circle cx="600" cy="400" fill="none" r="357" stroke="red" stroke-width="1"/>
<circle cx="439" cy="81" fill="none" r="357" stroke="red" stroke-width="1"/>
<line fill="none" stroke="red" stroke-width="1" x1="1200" x2="-121" y1="-509" y2="1493"/>
<circle cx="698" cy="251" fill="none" r="178" stroke="red" stroke-width="1"/>
<line fill="none" stroke="red" stroke-width="1" x1="-797" x2="1598" y1="317" y2="460"/>
<circle cx="421" cy="390" fill="none" r="178" stroke="red" stroke-width="1"/>
<line fill="none" stroke="red" stroke-width="1" x1="-774" x2="1587" y1="151" y2="580"/>
<circle cx="600" cy="400" fill="none" r="393" stroke="red" stroke-width="1"/>
<circle cx="212" cy="330" fill="none" r="393" stroke="red" stroke-width="1"/>
<circle cx="776" cy="433" fill="none" r="178" stroke="red" stroke-width="1"/>
<line fill="none" stroke="red" stroke-width="1" x1="1587" x2="-774" y1="221" y2="650"/>
<circle cx="212" cy="471" fill="none" r="393" stroke="red" stroke-width="1"/>
<circle cx="776" cy="368" fill="none" r="178" stroke="red" stroke-width="1"/>
<circle cx="520" cy="240" fill="none" r="357" stroke="red" stroke-width="1"/>
<circle cx="680" cy="560" fill="none" r="357" stroke="red" stroke-width="1"/>
<line fill="none" stroke="red" stroke-width="1" x1="-800" x2="1600" y1="241" y2="240"/>
<circle cx="520" cy="240" fill="none" r="160" stroke="red" stroke-width="1"/>
<circle cx="680" cy="240" fill="none" r="159" stroke="red" stroke-width="1"/>
<line fill="none" stroke="red" stroke-width="1" x1="968" x2="-104" y1="-657" y2="1489"/>
<circle cx="520" cy="240" fill="none" r="393" stroke="red" stroke-width="1"/>
<circle cx="343" cy="593" fill="none" r="393" stroke="red" stroke-width="1"/>
<line fill="none" stroke="red" stroke-width="1" x1="-40" x2="1159" y1="-731" y2="1347"/>
<circle cx="520" cy="240" fill="none" r="357" stroke="red" stroke-width="1"/>
<circle cx="698" cy="550" fill="none" r="357" stroke="red" stroke-width="1"/>
<line fill="none" stroke="red" stroke-width="1" x1="1020" x2="-179" y1="-627" y2="1451"/>
<circle cx="520" cy="240" fill="none" r="197" stroke="red" stroke-width="1"/>
<circle cx="421" cy="411" fill="none" r="197" stroke="red" stroke-width="1"/>
<circle cx="439" cy="81" fill="none" r="178" stroke="red" stroke-width="1"/>
<line fill="none" stroke="red" stroke-width="1" x1="-787" x2="1607" y1="162" y2="306"/>
<line fill="none" stroke="red" stroke-width="1" x1="1071" x2="-251" y1="-594" y2="1408"/>
<line fill="none" stroke="red" stroke-width="1" x1="1518" x2="-785" y1="-51" y2="621"/>
<circle cx="212" cy="330" fill="none" r="320" stroke="red" stroke-width="1"/>
<line fill="none" stroke="red" stroke-width="1" x1="-439" x2="1479" y1="-480" y2="960"/>
<circle cx="776" cy="433" fill="none" r="320" stroke="red" stroke-width="1"/>
<line fill="none" stroke="red" stroke-width="1" x1="1326" x2="-593" y1="-364" y2="1075"/>
<circle cx="520" cy="240" fill="none" r="384" stroke="red" stroke-width="1"/>
<circle cx="212" cy="471" fill="none" r="384" stroke="red" stroke-width="1"/>
<line fill="none" stroke="red" stroke-width="1" x1="-585" x2="1561" y1="-312" y2="761"/>
<circle cx="520" cy="240" fill="none" r="286" stroke="red" stroke-width="1"/>
<circle cx="776" cy="368" fill="none" r="286" stroke="red" stroke-width="1"/>
<line fill="none" stroke="red" stroke-width="1" x1="-800" x2="1600" y1="561" y2="560"/>
<circle cx="520" cy="561" fill="none" r="159" stroke="red" stroke-width="1"/>
<circle cx="680" cy="560" fill="none" r="159" stroke="red" stroke-width="1"/>
<circle cx="520" cy="561" fill="none" r="357" stroke="red" stroke-width="1"/>
<circle cx="680" cy="240" fill="none" r="357" stroke="red" stroke-width="1"/>
<line fill="none" stroke="red" stroke-width="1" x1="1612" x2="-748" y1="362" y2="791"/>
<circle cx="343" cy="593" fill="none" r="178" stroke="red" stroke-width="1"/>
<line fill="none" stroke="red" stroke-width="1" x1="1607" x2="-787" y1="495" y2="639"/>
<line fill="none" stroke="red" stroke-width="1" x1="-251" x2="1071" y1="-608" y2="1394"/>
<line fill="none" stroke="red" stroke-width="1" x1="1159" x2="-40" y1="-547" y2="1531"/>
<circle cx="520" cy="561" fill="none" r="357" stroke="red" stroke-width="1"/>
<circle cx="698" cy="251" fill="none" r="357" stroke="red" stroke-width="1"/>
<line fill="none" stroke="red" stroke-width="1" x1="-179" x2="1020" y1="-651" y2="1427"/>
<circle cx="520" cy="561" fill="none" r="197" stroke="red" stroke-width="1"/>
<circle cx="421" cy="390" fill="none" r="197" stroke="red" stroke-width="1"/>
<line fill="none" stroke="red" stroke-width="1" x1="-593" x2="1326" y1="-275" y2="1164"/>
<circle cx="520" cy="561" fill="none" r="384" stroke="red" stroke-width="1"/>
<circle cx="212" cy="330" fill="none" r="384" stroke="red" stroke-width="1"/>
<line fill="none" stroke="red" stroke-width="1" x1="1561" x2="-585" y1="40" y2="1112"/>
<circle cx="520" cy="561" fill="none" r="286" stroke="red" stroke-width="1"/>
<circle cx="776" cy="433" fill="none" r="286" stroke="red" stroke-width="1"/>
<line fill="none" stroke="red" stroke-width="1" x1="-785" x2="1518" y1="180" y2="851"/>
<circle cx="212" cy="471" fill="none" r="320" stroke="red" stroke-width="1"/>
<line fill="none" stroke="red" stroke-width="1" x1="1479" x2="-439" y1="-160" y2="1280"/>
<circle cx="776" cy="368" fill="none" r="320" stroke="red" stroke-width="1"/>
<line fill="none" stroke="red" stroke-width="1" x1="1613" x2="-769" y1="440" y2="727"/>
<circle cx="343" cy="593" fill="none" r="357" stroke="red" stroke-width="1"/>
<line fill="none" stroke="red" stroke-width="1" x1="893" x2="-49" y1="-694" y2="1512"/>
<circle cx="343" cy="593" fill="none" r="197" stroke="red" stroke-width="1"/>
<line fill="none" stroke="red" stroke-width="1" x1="-673" x2="1473" y1="-136" y2="936"/>
<circle cx="698" cy="550" fill="none" r="309" stroke="red" stroke-width="1"/>
<circle cx="421" cy="411" fill="none" r="309" stroke="red" stroke-width="1"/>
<line fill="none" stroke="red" stroke-width="1" x1="1473" x2="-673" y1="-136" y2="936"/>
<circle cx="698" cy="251" fill="none" r="309" stroke="red" stroke-width="1"/>
<circle cx="421" cy="390" fill="none" r="309" stroke="red" stroke-width="1"/>
<circle cx="212" cy="330" fill="none" r="572" stroke="red" stroke-width="1"/>
<circle cx="776" cy="433" fill="none" r="572" stroke="red" stroke-width="1"/>
<circle cx="212" cy="471" fill="none" r="572" stroke="red" stroke-width="1"/>
<circle cx="776" cy="368" fill="none" r="572" stroke="red" stroke-width="1"/>
<circle cx="600" cy="400" fill="none" r="214" stroke="purple" stroke-width="1"/>
<circle cx="696" cy="593" fill="none" r="214" stroke="purple" stroke-width="1"/>
<circle cx="440" cy="721" fill="none" r="357" stroke="purple" stroke-width="1"/>
<line fill="none" stroke="purple" stroke-width="1" x1="1146" x2="-44" y1="-555" y2="1528"/>
<circle cx="600" cy="400" fill="none" r="198" stroke="purple" stroke-width="1"/>
<circle cx="501" cy="573" fill="none" r="198" stroke="purple" stroke-width="1"/>
<circle cx="760" cy="721" fill="none" r="357" stroke="purple" stroke-width="1"/>
<circle cx="778" cy="411" fill="none" r="178" stroke="purple" stroke-width="1"/>
<circle cx="501" cy="550" fill="none" r="178" stroke="purple" stroke-width="1"/>
<line fill="none" stroke="purple" stroke-width="1" x1="-44" x2="1146" y1="-728" y2="1355"/>
<circle cx="501" cy="228" fill="none" r="198" stroke="purple" stroke-width="1"/>
<circle cx="778" cy="390" fill="none" r="178" stroke="purple" stroke-width="1"/>
<circle cx="501" cy="251" fill="none" r="178" stroke="purple" stroke-width="1"/>
<circle cx="760" cy="80" fill="none" r="357" stroke="purple" stroke-width="1"/>
<circle cx="456" cy="508" fill="none" r="178" stroke="purple" stroke-width="1"/>
<circle cx="743" cy="293" fill="none" r="178" stroke="purple" stroke-width="1"/>
<line fill="none" stroke="purple" stroke-width="1" x1="-488" x2="1432" y1="-416" y2="1024"/>
<circle cx="343" cy="208" fill="none" r="320" stroke="purple" stroke-width="1"/>
<line fill="none" stroke="purple" stroke-width="1" x1="-736" x2="1567" y1="11" y2="683"/>
<circle cx="600" cy="400" fill="none" r="384" stroke="purple" stroke-width="1"/>
<circle cx="231" cy="293" fill="none" r="384" stroke="purple" stroke-width="1"/>
<line fill="none" stroke="purple" stroke-width="1" x1="152" x2="998" y1="-788" y2="1457"/>
<circle cx="663" cy="568" fill="none" r="178" stroke="purple" stroke-width="1"/>
<line fill="none" stroke="purple" stroke-width="1" x1="-487" x2="1431" y1="-416" y2="1024"/>
<circle cx="456" cy="293" fill="none" r="178" stroke="purple" stroke-width="1"/>
<line fill="none" stroke="purple" stroke-width="1" x1="378" x2="808" y1="-815" y2="1545"/>
<circle cx="600" cy="400" fill="none" r="286" stroke="purple" stroke-width="1"/>
<circle cx="651" cy="682" fill="none" r="286" stroke="purple" stroke-width="1"/>
<circle cx="600" cy="400" fill="none" r="220" stroke="purple" stroke-width="1"/>
<circle cx="478" cy="217" fill="none" r="220" stroke="purple" stroke-width="1"/>
<line fill="none" stroke="purple" stroke-width="1" x1="527" x2="671" y1="-809" y2="1585"/>
<circle cx="600" cy="400" fill="none" r="309" stroke="purple" stroke-width="1"/>
<circle cx="618" cy="710" fill="none" r="309" stroke="purple" stroke-width="1"/>
<circle cx="600" cy="400" fill="none" r="399" stroke="purple" stroke-width="1"/>
<circle cx="201" cy="424" fill="none" r="399" stroke="purple" stroke-width="1"/>
<line fill="none" stroke="purple" stroke-width="1" x1="1462" x2="-540" y1="-169" y2="1153"/>
<circle cx="341" cy="571" fill="none" r="309" stroke="purple" stroke-width="1"/>
<circle cx="696" cy="208" fill="none" r="214" stroke="purple" stroke-width="1"/>
<line fill="none" stroke="purple" stroke-width="1" x1="-800" x2="1600" y1="400" y2="401"/>
<circle cx="600" cy="400" fill="none" r="159" stroke="purple" stroke-width="1"/>
<circle cx="440" cy="400" fill="none" r="159" stroke="purple" stroke-width="1"/>
<line fill="none" stroke="purple" stroke-width="1" x1="865" x2="313" y1="-723" y2="1612"/>
<circle cx="600" cy="400" fill="none" r="348" stroke="purple" stroke-width="1"/>
<circle cx="520" cy="739" fill="none" r="348" stroke="purple" stroke-width="1"/>
<line fill="none" stroke="purple" stroke-width="1" x1="-757" x2="1578" y1="80" y2="631"/>
<circle cx="600" cy="400" fill="none" r="82" stroke="purple" stroke-width="1"/>
<circle cx="520" cy="382" fill="none" r="82" stroke="purple" stroke-width="1"/>
<line fill="none" stroke="purple" stroke-width="1" x1="1578" x2="-757" y1="170" y2="721"/>
<circle cx="520" cy="419" fill="none" r="82" stroke="purple" stroke-width="1"/>
<line fill="none" stroke="purple" stroke-width="1" x1="313" x2="865" y1="-812" y2="1523"/>
<circle cx="519" cy="62" fill="none" r="348" stroke="purple" stroke-width="1"/>
<circle cx="600" cy="400" fill="none" r="141" stroke="purple" stroke-width="1"/>
<circle cx="663" cy="527" fill="none" r="141" stroke="purple" stroke-width="1"/>
<circle cx="600" cy="400" fill="none" r="498" stroke="purple" stroke-width="1"/>
<circle cx="376" cy="-46" fill="none" r="498" stroke="purple" stroke-width="1"/>
<circle cx="776" cy="48" fill="none" r="393" stroke="purple" stroke-width="1"/>
<line fill="none" stroke="purple" stroke-width="1" x1="-250" x2="1286" y1="-619" y2="1223"/>
<circle cx="600" cy="400" fill="none" r="143" stroke="purple" stroke-width="1"/>
<circle cx="691" cy="510" fill="none" r="143" stroke="purple" stroke-width="1"/>
<line fill="none" stroke="purple" stroke-width="1" x1="1531" x2="-667" y1="-7" y2="953"/>
<circle cx="600" cy="400" fill="none" r="274" stroke="purple" stroke-width="1"/>
<circle cx="348" cy="511" fill="none" r="274" stroke="purple" stroke-width="1"/>
<line fill="none" stroke="purple" stroke-width="1" x1="397" x2="791" y1="-816" y2="1551"/>
<circle cx="600" cy="400" fill="none" r="486" stroke="purple" stroke-width="1"/>
<circle cx="519" cy="-80" fill="none" r="486" stroke="purple" stroke-width="1"/>
<circle cx="776" cy="753" fill="none" r="393" stroke="purple" stroke-width="1"/>
<circle cx="376" cy="846" fill="none" r="498" stroke="purple" stroke-width="1"/>
<circle cx="663" cy="274" fill="none" r="141" stroke="purple" stroke-width="1"/>
<line fill="none" stroke="purple" stroke-width="1" x1="1286" x2="-250" y1="-423" y2="1419"/>
<circle cx="691" cy="290" fill="none" r="143" stroke="purple" stroke-width="1"/>
<line fill="none" stroke="purple" stroke-width="1" x1="-667" x2="1531" y1="-153" y2="807"/>
<circle cx="348" cy="291" fill="none" r="274" stroke="purple" stroke-width="1"/>
</svg>