<svg viewBox="0 0 800 800" xmlns="http://www.w3.org/2000/svg">
<circle cx="400" cy="400" fill="none" r="80" stroke="darkgray" stroke-width="3"/>
<circle cx="400" cy="400" fill="none" r="27" stroke="darkgray" stroke-width="3"/>
<line fill="none" stroke="blue" stroke-width="3" x1="-800" x2="1600" y1="400" y2="400"/>
<circle cx="480" cy="400" fill="none" r="160" stroke="green" stroke-width="3"/>
<circle cx="319" cy="400" fill="none" r="160" stroke="green" stroke-width="3"/>
<circle cx="480" cy="400" fill="none" r="52" stroke="green" stroke-width="3"/>
<circle cx="427" cy="400" fill="none" r="52" stroke="green" stroke-width="3"/>
<circle cx="480" cy="400" fill="none" r="107" stroke="green" stroke-width="3"/>
<circle cx="372" cy="400" fill="none" r="107" stroke="green" stroke-width="3"/>
<circle cx="640" cy="400" fill="none" r="160" stroke="red" stroke-width="1"/>
<circle cx="480" cy="400" fill="none" r="320" stroke="red" stroke-width="1"/>
<circle cx="159" cy="400" fill="none" r="320" stroke="red" stroke-width="1"/>
<line fill="none" stroke="red" stroke-width="1" x1="78" x2="864" y1="-758" y2="1509"/>
<circle cx="462" cy="351" fill="none" r="52" stroke="red" stroke-width="1"/>
<line fill="none" stroke="red" stroke-width="1" x1="864" x2="78" y1="-709" y2="1558"/>
<circle cx="462" cy="450" fill="none" r="52" stroke="red" stroke-width="1"/>
<circle cx="532" cy="400" fill="none" r="52" stroke="red" stroke-width="1"/>
<line fill="none" stroke="red" stroke-width="1" x1="-781" x2="1586" y1="192" y2="583"/>
<circle cx="480" cy="400" fill="none" r="103" stroke="red" stroke-width="1"/>
<circle cx="378" cy="384" fill="none" r="103" stroke="red" stroke-width="1"/>
<line fill="none" stroke="red" stroke-width="1" x1="1586" x2="-781" y1="218" y2="609"/>
<circle cx="378" cy="417" fill="none" r="103" stroke="red" stroke-width="1"/>
<circle cx="480" cy="400" fill="none" r="104" stroke="red" stroke-width="1"/>
<circle cx="375" cy="400" fill="none" r="104" stroke="red" stroke-width="1"/>
<line fill="none" stroke="red" stroke-width="1" x1="-363" x2="1251" y1="-527" y2="1247"/>
<circle cx="407" cy="321" fill="none" r="107" stroke="red" stroke-width="1"/>
<line fill="none" stroke="red" stroke-width="1" x1="1251" x2="-363" y1="-447" y2="1327"/>
<circle cx="407" cy="480" fill="none" r="107" stroke="red" stroke-width="1"/>
<circle cx="587" cy="400" fill="none" r="107" stroke="red" stroke-width="1"/>
<circle cx="480" cy="400" fill="none" r="215" stroke="red" stroke-width="1"/>
<circle cx="264" cy="400" fill="none" r="215" stroke="red" stroke-width="1"/>
<circle cx="480" cy="400" fill="none" r="80" stroke="blue" stroke-width="3"/>
<line fill="none" stroke="green" stroke-width="3" x1="-139" x2="1059" y1="-673" y2="1404"/>
<circle cx="440" cy="331" fill="none" r="80" stroke="green" stroke-width="3"/>
<line fill="none" stroke="green" stroke-width="3" x1="1059" x2="-139" y1="-604" y2="1473"/>
<circle cx="440" cy="470" fill="none" r="80" stroke="green" stroke-width="3"/>
<line fill="none" stroke="green" stroke-width="3" x1="-719" x2="1537" y1="-34" y2="783"/>
<circle cx="404" cy="373" fill="none" r="80" stroke="green" stroke-width="3"/>
<line fill="none" stroke="green" stroke-width="3" x1="1537" x2="-719" y1="18" y2="834"/>
<circle cx="404" cy="428" fill="none" r="80" stroke="green" stroke-width="3"/>
<circle cx="560" cy="400" fill="none" r="80" stroke="red" stroke-width="1"/>
<circle cx="520" cy="470" fill="none" r="80" stroke="red" stroke-width="1"/>
<line fill="none" stroke="red" stroke-width="1" x1="-619" x2="1459" y1="-234" y2="965"/>
<circle cx="480" cy="400" fill="none" r="138" stroke="red" stroke-width="1"/>
<circle cx="360" cy="331" fill="none" r="138" stroke="red" stroke-width="1"/>
<line fill="none" stroke="red" stroke-width="1" x1="1584" x2="-779" y1="207" y2="621"/>
<circle cx="480" cy="400" fill="none" r="54" stroke="red" stroke-width="1"/>
<circle cx="425" cy="410" fill="none" r="54" stroke="red" stroke-width="1"/>
<line fill="none" stroke="red" stroke-width="1" x1="-779" x2="1584" y1="180" y2="594"/>
<circle cx="480" cy="400" fill="none" r="102" stroke="red" stroke-width="1"/>
<circle cx="378" cy="383" fill="none" r="102" stroke="red" stroke-width="1"/>
<circle cx="520" cy="331" fill="none" r="80" stroke="red" stroke-width="1"/>
<line fill="none" stroke="red" stroke-width="1" x1="1459" x2="-619" y1="-165" y2="1034"/>
<circle cx="360" cy="470" fill="none" r="138" stroke="red" stroke-width="1"/>
<circle cx="425" cy="391" fill="none" r="54" stroke="red" stroke-width="1"/>
<circle cx="378" cy="418" fill="none" r="102" stroke="red" stroke-width="1"/>
<circle cx="480" cy="400" fill="none" r="150" stroke="red" stroke-width="1"/>
<circle cx="338" cy="349" fill="none" r="150" stroke="red" stroke-width="1"/>
<circle cx="480" cy="400" fill="none" r="70" stroke="red" stroke-width="1"/>
<circle cx="413" cy="377" fill="none" r="70" stroke="red" stroke-width="1"/>
<circle cx="555" cy="428" fill="none" r="80" stroke="red" stroke-width="1"/>
<circle cx="480" cy="400" fill="none" r="157" stroke="red" stroke-width="1"/>
<circle cx="324" cy="373" fill="none" r="157" stroke="red" stroke-width="1"/>
<line fill="none" stroke="red" stroke-width="1" x1="267" x2="687" y1="-795" y2="1567"/>
<circle cx="465" cy="322" fill="none" r="80" stroke="red" stroke-width="1"/>
<line fill="none" stroke="red" stroke-width="1" x1="1351" x2="-484" y1="-333" y2="1212"/>
<circle cx="418" cy="452" fill="none" r="80" stroke="red" stroke-width="1"/>
<circle cx="338" cy="452" fill="none" r="150" stroke="red" stroke-width="1"/>
<circle cx="413" cy="424" fill="none" r="70" stroke="red" stroke-width="1"/>
<circle cx="555" cy="373" fill="none" r="80" stroke="red" stroke-width="1"/>
<circle cx="324" cy="428" fill="none" r="157" stroke="red" stroke-width="1"/>
<line fill="none" stroke="red" stroke-width="1" x1="687" x2="267" y1="-767" y2="1595"/>
<circle cx="465" cy="479" fill="none" r="80" stroke="red" stroke-width="1"/>
<line fill="none" stroke="red" stroke-width="1" x1="-484" x2="1351" y1="-412" y2="1133"/>
<circle cx="418" cy="349" fill="none" r="80" stroke="red" stroke-width="1"/>
<circle cx="319" cy="400" fill="none" r="80" stroke="green" stroke-width="3"/>
<line fill="none" stroke="red" stroke-width="1" x1="1549" x2="-735" y1="57" y2="791"/>
<circle cx="480" cy="400" fill="none" r="89" stroke="red" stroke-width="1"/>
<circle cx="395" cy="428" fill="none" r="89" stroke="red" stroke-width="1"/>
<line fill="none" stroke="red" stroke-width="1" x1="-735" x2="1549" y1="10" y2="744"/>
<circle cx="395" cy="373" fill="none" r="89" stroke="red" stroke-width="1"/>
<circle cx="480" cy="400" fill="none" r="240" stroke="red" stroke-width="1"/>
<circle cx="239" cy="400" fill="none" r="240" stroke="red" stroke-width="1"/>
<circle cx="427" cy="400" fill="none" r="27" stroke="green" stroke-width="3"/>
<line fill="none" stroke="red" stroke-width="1" x1="-719" x2="1537" y1="-33" y2="783"/>
<circle cx="480" cy="400" fill="none" r="70" stroke="red" stroke-width="1"/>
<circle cx="413" cy="377" fill="none" r="70" stroke="red" stroke-width="1"/>
<line fill="none" stroke="red" stroke-width="1" x1="1537" x2="-719" y1="18" y2="833"/>
<circle cx="413" cy="424" fill="none" r="70" stroke="red" stroke-width="1"/>
<circle cx="480" cy="400" fill="none" r="24" stroke="red" stroke-width="1"/>
<circle cx="455" cy="400" fill="none" r="24" stroke="red" stroke-width="1"/>
<circle cx="372" cy="400" fill="none" r="27" stroke="green" stroke-width="3"/>
<line fill="none" stroke="red" stroke-width="1" x1="1567" x2="-757" y1="123" y2="716"/>
<circle cx="480" cy="400" fill="none" r="96" stroke="red" stroke-width="1"/>
<circle cx="386" cy="424" fill="none" r="96" stroke="red" stroke-width="1"/>
<line fill="none" stroke="red" stroke-width="1" x1="-757" x2="1567" y1="85" y2="678"/>
<circle cx="386" cy="377" fill="none" r="96" stroke="red" stroke-width="1"/>
<circle cx="480" cy="400" fill="none" r="135" stroke="red" stroke-width="1"/>
<circle cx="344" cy="400" fill="none" r="135" stroke="red" stroke-width="1"/>
<line fill="none" stroke="green" stroke-width="3" x1="1000" x2="-200" y1="-639" y2="1439"/>
<line fill="none" stroke="green" stroke-width="3" x1="-200" x2="1000" y1="-639" y2="1439"/>
<line fill="none" stroke="green" stroke-width="3" x1="607" x2="192" y1="-781" y2="1581"/>
<line fill="none" stroke="red" stroke-width="1" x1="1352" x2="-485" y1="-332" y2="1211"/>
<circle cx="480" cy="400" fill="none" r="122" stroke="red" stroke-width="1"/>
<circle cx="400" cy="400" fill="black" r="2" stroke="darkgray" stroke-width="2"/>
<circle cx="480" cy="400" fill="black" r="2" stroke="darkgray" stroke-width="2"/>
<circle cx="319" cy="400" fill="black" r="2" stroke="blue" stroke-width="2"/>
<circle cx="427" cy="400" fill="black" r="2" stroke="blue" stroke-width="2"/>
<circle cx="372" cy="400" fill="black" r="2" stroke="blue" stroke-width="2"/>
<circle cx="640" cy="400" fill="black" r="2" stroke="green" stroke-width="2"/>
<circle cx="159" cy="400" fill="black" r="2" stroke="green" stroke-width="2"/>
<circle cx="400" cy="539" fill="black" r="2" stroke="red" stroke-width="2"/>
<circle cx="400" cy="262" fill="black" r="2" stroke="red" stroke-width="2"/>
<circle cx="462" cy="351" fill="black" r="2" stroke="green" stroke-width="2"/>
<circle cx="462" cy="450" fill="black" r="2" stroke="green" stroke-width="2"/>
<circle cx="532" cy="400" fill="black" r="2" stroke="green" stroke-width="2"/>
<circle cx="471" cy="349" fill="black" r="2" stroke="red" stroke-width="2"/>
<circle cx="471" cy="452" fill="black" r="2" stroke="red" stroke-width="2"/>
<circle cx="378" cy="384" fill="black" r="2" stroke="green" stroke-width="2"/>
<circle cx="378" cy="417" fill="black" r="2" stroke="green" stroke-width="2"/>
<circle cx="375" cy="400" fill="black" r="2" stroke="green" stroke-width="2"/>
<circle cx="453" cy="446" fill="black" r="2" stroke="red" stroke-width="2"/>
<circle cx="453" cy="355" fill="black" r="2" stroke="red" stroke-width="2"/>
<circle cx="407" cy="321" fill="black" r="2" stroke="green" stroke-width="2"/>
<circle cx="407" cy="480" fill="black" r="2" stroke="green" stroke-width="2"/>
<circle cx="587" cy="400" fill="black" r="2" stroke="green" stroke-width="2"/>
<circle cx="443" cy="299" fill="black" r="2" stroke="red" stroke-width="2"/>
<circle cx="443" cy="502" fill="black" r="2" stroke="red" stroke-width="2"/>
<circle cx="264" cy="400" fill="black" r="2" stroke="green" stroke-width="2"/>
<circle cx="361" cy="508" fill="black" r="2" stroke="red" stroke-width="2"/>
<circle cx="361" cy="293" fill="black" r="2" stroke="red" stroke-width="2"/>
<circle cx="467" cy="451" fill="black" r="2" stroke="red" stroke-width="2"/>
<circle cx="467" cy="350" fill="black" r="2" stroke="red" stroke-width="2"/>
<circle cx="426" cy="494" fill="black" r="2" stroke="red" stroke-width="2"/>
<circle cx="426" cy="307" fill="black" r="2" stroke="red" stroke-width="2"/>
<circle cx="800" cy="400" fill="black" r="2" stroke="red" stroke-width="2"/>
<circle cx="560" cy="262" fill="black" r="2" stroke="red" stroke-width="2"/>
<circle cx="560" cy="539" fill="black" r="2" stroke="red" stroke-width="2"/>
<circle cx="-160" cy="400" fill="black" r="2" stroke="red" stroke-width="2"/>
<circle cx="497" cy="450" fill="black" r="2" stroke="red" stroke-width="2"/>
<circle cx="418" cy="323" fill="black" r="2" stroke="red" stroke-width="2"/>
<circle cx="421" cy="383" fill="black" r="2" stroke="red" stroke-width="2"/>
<circle cx="445" cy="400" fill="black" r="2" stroke="red" stroke-width="2"/>
<circle cx="514" cy="361" fill="black" r="2" stroke="red" stroke-width="2"/>
<circle cx="428" cy="391" fill="black" r="2" stroke="red" stroke-width="2"/>
<circle cx="497" cy="351" fill="black" r="2" stroke="red" stroke-width="2"/>
<circle cx="418" cy="478" fill="black" r="2" stroke="red" stroke-width="2"/>
<circle cx="421" cy="418" fill="black" r="2" stroke="red" stroke-width="2"/>
<circle cx="514" cy="440" fill="black" r="2" stroke="red" stroke-width="2"/>
<circle cx="428" cy="410" fill="black" r="2" stroke="red" stroke-width="2"/>
<circle cx="584" cy="400" fill="black" r="2" stroke="red" stroke-width="2"/>
<circle cx="506" cy="355" fill="black" r="2" stroke="red" stroke-width="2"/>
<circle cx="506" cy="446" fill="black" r="2" stroke="red" stroke-width="2"/>
<circle cx="324" cy="375" fill="black" r="2" stroke="red" stroke-width="2"/>
<circle cx="426" cy="392" fill="black" r="2" stroke="red" stroke-width="2"/>
<circle cx="413" cy="322" fill="black" r="2" stroke="red" stroke-width="2"/>
<circle cx="413" cy="479" fill="black" r="2" stroke="red" stroke-width="2"/>
<circle cx="583" cy="400" fill="black" r="2" stroke="red" stroke-width="2"/>
<circle cx="376" cy="400" fill="black" r="2" stroke="red" stroke-width="2"/>
<circle cx="420" cy="478" fill="black" r="2" stroke="red" stroke-width="2"/>
<circle cx="276" cy="400" fill="black" r="2" stroke="red" stroke-width="2"/>
<circle cx="469" cy="432" fill="black" r="2" stroke="red" stroke-width="2"/>
<circle cx="324" cy="426" fill="black" r="2" stroke="red" stroke-width="2"/>
<circle cx="426" cy="409" fill="black" r="2" stroke="red" stroke-width="2"/>
<circle cx="420" cy="323" fill="black" r="2" stroke="red" stroke-width="2"/>
<circle cx="469" cy="369" fill="black" r="2" stroke="red" stroke-width="2"/>
<circle cx="411" cy="321" fill="black" r="2" stroke="red" stroke-width="2"/>
<circle cx="411" cy="480" fill="black" r="2" stroke="red" stroke-width="2"/>
<circle cx="376" cy="386" fill="black" r="2" stroke="red" stroke-width="2"/>
<circle cx="376" cy="415" fill="black" r="2" stroke="red" stroke-width="2"/>
<circle cx="270" cy="400" fill="black" r="2" stroke="red" stroke-width="2"/>
<circle cx="552" cy="480" fill="black" r="2" stroke="red" stroke-width="2"/>
<circle cx="321" cy="385" fill="black" r="2" stroke="red" stroke-width="2"/>
<circle cx="397" cy="428" fill="black" r="2" stroke="red" stroke-width="2"/>
<circle cx="335" cy="400" fill="black" r="2" stroke="red" stroke-width="2"/>
<circle cx="512" cy="298" fill="black" r="2" stroke="red" stroke-width="2"/>
<circle cx="374" cy="423" fill="black" r="2" stroke="red" stroke-width="2"/>
<circle cx="552" cy="321" fill="black" r="2" stroke="red" stroke-width="2"/>
<circle cx="321" cy="416" fill="black" r="2" stroke="red" stroke-width="2"/>
<circle cx="397" cy="373" fill="black" r="2" stroke="red" stroke-width="2"/>
<circle cx="512" cy="503" fill="black" r="2" stroke="red" stroke-width="2"/>
<circle cx="374" cy="378" fill="black" r="2" stroke="red" stroke-width="2"/>
<circle cx="695" cy="400" fill="black" r="2" stroke="red" stroke-width="2"/>
<circle cx="533" cy="307" fill="black" r="2" stroke="red" stroke-width="2"/>
<circle cx="533" cy="494" fill="black" r="2" stroke="red" stroke-width="2"/>
<circle cx="49" cy="400" fill="black" r="2" stroke="red" stroke-width="2"/>
<circle cx="440" cy="331" fill="black" r="2" stroke="blue" stroke-width="2"/>
<circle cx="440" cy="470" fill="black" r="2" stroke="blue" stroke-width="2"/>
<circle cx="404" cy="373" fill="black" r="2" stroke="blue" stroke-width="2"/>
<circle cx="404" cy="428" fill="black" r="2" stroke="blue" stroke-width="2"/>
<circle cx="560" cy="400" fill="black" r="2" stroke="green" stroke-width="2"/>
<circle cx="460" cy="323" fill="black" r="2" stroke="red" stroke-width="2"/>
<circle cx="460" cy="478" fill="black" r="2" stroke="red" stroke-width="2"/>
<circle cx="418" cy="349" fill="black" r="2" stroke="red" stroke-width="2"/>
<circle cx="418" cy="452" fill="black" r="2" stroke="red" stroke-width="2"/>
<circle cx="450" cy="326" fill="black" r="2" stroke="red" stroke-width="2"/>
<circle cx="450" cy="475" fill="black" r="2" stroke="red" stroke-width="2"/>
<circle cx="520" cy="470" fill="black" r="2" stroke="green" stroke-width="2"/>
<circle cx="360" cy="331" fill="black" r="2" stroke="green" stroke-width="2"/>
<circle cx="425" cy="410" fill="black" r="2" stroke="green" stroke-width="2"/>
<circle cx="378" cy="383" fill="black" r="2" stroke="green" stroke-width="2"/>
<circle cx="520" cy="331" fill="black" r="2" stroke="green" stroke-width="2"/>
<circle cx="360" cy="470" fill="black" r="2" stroke="green" stroke-width="2"/>
<circle cx="425" cy="391" fill="black" r="2" stroke="green" stroke-width="2"/>
<circle cx="378" cy="418" fill="black" r="2" stroke="green" stroke-width="2"/>
<circle cx="338" cy="349" fill="black" r="2" stroke="green" stroke-width="2"/>
<circle cx="413" cy="377" fill="black" r="2" stroke="green" stroke-width="2"/>
<circle cx="555" cy="428" fill="black" r="2" stroke="green" stroke-width="2"/>
<circle cx="364" cy="359" fill="black" r="2" stroke="red" stroke-width="2"/>
<circle cx="453" cy="391" fill="black" r="2" stroke="red" stroke-width="2"/>
<circle cx="324" cy="373" fill="black" r="2" stroke="green" stroke-width="2"/>
<circle cx="329" cy="400" fill="black" r="2" stroke="red" stroke-width="2"/>
<circle cx="465" cy="322" fill="black" r="2" stroke="green" stroke-width="2"/>
<circle cx="418" cy="452" fill="black" r="2" stroke="green" stroke-width="2"/>
<circle cx="418" cy="295" fill="black" r="2" stroke="red" stroke-width="2"/>
<circle cx="364" cy="304" fill="black" r="2" stroke="red" stroke-width="2"/>
<circle cx="465" cy="425" fill="black" r="2" stroke="red" stroke-width="2"/>
<circle cx="364" cy="443" fill="black" r="2" stroke="red" stroke-width="2"/>
<circle cx="329" cy="346" fill="black" r="2" stroke="red" stroke-width="2"/>
<circle cx="338" cy="452" fill="black" r="2" stroke="green" stroke-width="2"/>
<circle cx="413" cy="424" fill="black" r="2" stroke="green" stroke-width="2"/>
<circle cx="555" cy="373" fill="black" r="2" stroke="green" stroke-width="2"/>
<circle cx="453" cy="410" fill="black" r="2" stroke="red" stroke-width="2"/>
<circle cx="364" cy="442" fill="black" r="2" stroke="red" stroke-width="2"/>
<circle cx="364" cy="442" fill="black" r="2" stroke="red" stroke-width="2"/>
<circle cx="324" cy="428" fill="black" r="2" stroke="green" stroke-width="2"/>
<circle cx="465" cy="479" fill="black" r="2" stroke="green" stroke-width="2"/>
<circle cx="418" cy="349" fill="black" r="2" stroke="green" stroke-width="2"/>
<circle cx="465" cy="376" fill="black" r="2" stroke="red" stroke-width="2"/>
<circle cx="364" cy="358" fill="black" r="2" stroke="red" stroke-width="2"/>
<circle cx="418" cy="506" fill="black" r="2" stroke="red" stroke-width="2"/>
<circle cx="364" cy="497" fill="black" r="2" stroke="red" stroke-width="2"/>
<circle cx="364" cy="359" fill="black" r="2" stroke="red" stroke-width="2"/>
<circle cx="329" cy="455" fill="black" r="2" stroke="red" stroke-width="2"/>
<circle cx="549" cy="441" fill="black" r="2" stroke="red" stroke-width="2"/>
<circle cx="410" cy="360" fill="black" r="2" stroke="red" stroke-width="2"/>
<circle cx="480" cy="262" fill="black" r="2" stroke="red" stroke-width="2"/>
<circle cx="498" cy="323" fill="black" r="2" stroke="red" stroke-width="2"/>
<circle cx="421" cy="455" fill="black" r="2" stroke="red" stroke-width="2"/>
<circle cx="401" cy="414" fill="black" r="2" stroke="red" stroke-width="2"/>
<circle cx="558" cy="387" fill="black" r="2" stroke="red" stroke-width="2"/>
<circle cx="461" cy="349" fill="black" r="2" stroke="red" stroke-width="2"/>
<circle cx="461" cy="452" fill="black" r="2" stroke="red" stroke-width="2"/>
<circle cx="515" cy="358" fill="black" r="2" stroke="red" stroke-width="2"/>
<circle cx="377" cy="385" fill="black" r="2" stroke="red" stroke-width="2"/>
<circle cx="372" cy="398" fill="black" r="2" stroke="red" stroke-width="2"/>
<circle cx="431" cy="464" fill="black" r="2" stroke="red" stroke-width="2"/>
<circle cx="413" cy="357" fill="black" r="2" stroke="red" stroke-width="2"/>
<circle cx="378" cy="382" fill="black" r="2" stroke="red" stroke-width="2"/>
<circle cx="558" cy="414" fill="black" r="2" stroke="red" stroke-width="2"/>
<circle cx="401" cy="387" fill="black" r="2" stroke="red" stroke-width="2"/>
<circle cx="414" cy="322" fill="black" r="2" stroke="red" stroke-width="2"/>
<circle cx="414" cy="479" fill="black" r="2" stroke="red" stroke-width="2"/>
<circle cx="515" cy="304" fill="black" r="2" stroke="red" stroke-width="2"/>
<circle cx="462" cy="323" fill="black" r="2" stroke="red" stroke-width="2"/>
<circle cx="436" cy="468" fill="black" r="2" stroke="red" stroke-width="2"/>
<circle cx="378" cy="280" fill="black" r="2" stroke="red" stroke-width="2"/>
<circle cx="410" cy="441" fill="black" r="2" stroke="red" stroke-width="2"/>
<circle cx="549" cy="360" fill="black" r="2" stroke="red" stroke-width="2"/>
<circle cx="498" cy="478" fill="black" r="2" stroke="red" stroke-width="2"/>
<circle cx="421" cy="346" fill="black" r="2" stroke="red" stroke-width="2"/>
<circle cx="480" cy="539" fill="black" r="2" stroke="red" stroke-width="2"/>
<circle cx="377" cy="416" fill="black" r="2" stroke="red" stroke-width="2"/>
<circle cx="372" cy="403" fill="black" r="2" stroke="red" stroke-width="2"/>
<circle cx="431" cy="337" fill="black" r="2" stroke="red" stroke-width="2"/>
<circle cx="413" cy="444" fill="black" r="2" stroke="red" stroke-width="2"/>
<circle cx="378" cy="419" fill="black" r="2" stroke="red" stroke-width="2"/>
<circle cx="462" cy="478" fill="black" r="2" stroke="red" stroke-width="2"/>
<circle cx="436" cy="333" fill="black" r="2" stroke="red" stroke-width="2"/>
<circle cx="378" cy="521" fill="black" r="2" stroke="red" stroke-width="2"/>
<circle cx="621" cy="452" fill="black" r="2" stroke="red" stroke-width="2"/>
<circle cx="414" cy="479" fill="black" r="2" stroke="red" stroke-width="2"/>
<circle cx="486" cy="321" fill="black" r="2" stroke="red" stroke-width="2"/>
<circle cx="433" cy="466" fill="black" r="2" stroke="red" stroke-width="2"/>
<circle cx="197" cy="298" fill="black" r="2" stroke="red" stroke-width="2"/>
<circle cx="448" cy="337" fill="black" r="2" stroke="red" stroke-width="2"/>
<circle cx="448" cy="464" fill="black" r="2" stroke="red" stroke-width="2"/>
<circle cx="546" cy="424" fill="black" r="2" stroke="red" stroke-width="2"/>
<circle cx="359" cy="331" fill="black" r="2" stroke="red" stroke-width="2"/>
<circle cx="459" cy="323" fill="black" r="2" stroke="red" stroke-width="2"/>
<circle cx="414" cy="447" fill="black" r="2" stroke="red" stroke-width="2"/>
<circle cx="347" cy="353" fill="black" r="2" stroke="red" stroke-width="2"/>
<circle cx="475" cy="428" fill="black" r="2" stroke="red" stroke-width="2"/>
<circle cx="541" cy="349" fill="black" r="2" stroke="red" stroke-width="2"/>
<circle cx="494" cy="479" fill="black" r="2" stroke="red" stroke-width="2"/>
<circle cx="630" cy="455" fill="black" r="2" stroke="red" stroke-width="2"/>
<circle cx="343" cy="322" fill="black" r="2" stroke="red" stroke-width="2"/>
<circle cx="461" cy="452" fill="black" r="2" stroke="red" stroke-width="2"/>
<circle cx="473" cy="321" fill="black" r="2" stroke="red" stroke-width="2"/>
<circle cx="446" cy="473" fill="black" r="2" stroke="red" stroke-width="2"/>
<circle cx="480" cy="346" fill="black" r="2" stroke="red" stroke-width="2"/>
<circle cx="475" cy="373" fill="black" r="2" stroke="red" stroke-width="2"/>
<circle cx="385" cy="322" fill="black" r="2" stroke="red" stroke-width="2"/>
<circle cx="390" cy="295" fill="black" r="2" stroke="red" stroke-width="2"/>
<circle cx="386" cy="479" fill="black" r="2" stroke="red" stroke-width="2"/>
<circle cx="338" cy="452" fill="black" r="2" stroke="red" stroke-width="2"/>
<circle cx="343" cy="425" fill="black" r="2" stroke="red" stroke-width="2"/>
<circle cx="414" cy="322" fill="black" r="2" stroke="red" stroke-width="2"/>
<circle cx="486" cy="480" fill="black" r="2" stroke="red" stroke-width="2"/>
<circle cx="433" cy="335" fill="black" r="2" stroke="red" stroke-width="2"/>
<circle cx="197" cy="503" fill="black" r="2" stroke="red" stroke-width="2"/>
<circle cx="359" cy="470" fill="black" r="2" stroke="red" stroke-width="2"/>
<circle cx="459" cy="478" fill="black" r="2" stroke="red" stroke-width="2"/>
<circle cx="414" cy="354" fill="black" r="2" stroke="red" stroke-width="2"/>
<circle cx="347" cy="448" fill="black" r="2" stroke="red" stroke-width="2"/>
<circle cx="475" cy="373" fill="black" r="2" stroke="red" stroke-width="2"/>
<circle cx="541" cy="452" fill="black" r="2" stroke="red" stroke-width="2"/>
<circle cx="494" cy="322" fill="black" r="2" stroke="red" stroke-width="2"/>
<circle cx="630" cy="346" fill="black" r="2" stroke="red" stroke-width="2"/>
<circle cx="461" cy="349" fill="black" r="2" stroke="red" stroke-width="2"/>
<circle cx="473" cy="480" fill="black" r="2" stroke="red" stroke-width="2"/>
<circle cx="446" cy="328" fill="black" r="2" stroke="red" stroke-width="2"/>
<circle cx="480" cy="455" fill="black" r="2" stroke="red" stroke-width="2"/>
<circle cx="475" cy="428" fill="black" r="2" stroke="red" stroke-width="2"/>
<circle cx="385" cy="479" fill="black" r="2" stroke="red" stroke-width="2"/>
<circle cx="390" cy="506" fill="black" r="2" stroke="red" stroke-width="2"/>
<circle cx="386" cy="322" fill="black" r="2" stroke="red" stroke-width="2"/>
<circle cx="338" cy="349" fill="black" r="2" stroke="red" stroke-width="2"/>
<circle cx="343" cy="376" fill="black" r="2" stroke="red" stroke-width="2"/>
<circle cx="395" cy="428" fill="black" r="2" stroke="green" stroke-width="2"/>
<circle cx="395" cy="373" fill="black" r="2" stroke="green" stroke-width="2"/>
<circle cx="239" cy="400" fill="black" r="2" stroke="green" stroke-width="2"/>
<circle cx="339" cy="478" fill="black" r="2" stroke="red" stroke-width="2"/>
<circle cx="339" cy="323" fill="black" r="2" stroke="red" stroke-width="2"/>
<circle cx="390" cy="438" fill="black" r="2" stroke="red" stroke-width="2"/>
<circle cx="390" cy="363" fill="black" r="2" stroke="red" stroke-width="2"/>
<circle cx="383" cy="449" fill="black" r="2" stroke="red" stroke-width="2"/>
<circle cx="383" cy="352" fill="black" r="2" stroke="red" stroke-width="2"/>
<circle cx="296" cy="477" fill="black" r="2" stroke="red" stroke-width="2"/>
<circle cx="296" cy="324" fill="black" r="2" stroke="red" stroke-width="2"/>
<circle cx="334" cy="447" fill="black" r="2" stroke="red" stroke-width="2"/>
<circle cx="419" cy="420" fill="black" r="2" stroke="red" stroke-width="2"/>
<circle cx="274" cy="466" fill="black" r="2" stroke="red" stroke-width="2"/>
<circle cx="430" cy="327" fill="black" r="2" stroke="red" stroke-width="2"/>
<circle cx="430" cy="474" fill="black" r="2" stroke="red" stroke-width="2"/>
<circle cx="569" cy="400" fill="black" r="2" stroke="red" stroke-width="2"/>
<circle cx="390" cy="400" fill="black" r="2" stroke="red" stroke-width="2"/>
<circle cx="310" cy="400" fill="black" r="2" stroke="red" stroke-width="2"/>
<circle cx="373" cy="341" fill="black" r="2" stroke="red" stroke-width="2"/>
<circle cx="323" cy="480" fill="black" r="2" stroke="red" stroke-width="2"/>
<circle cx="334" cy="354" fill="black" r="2" stroke="red" stroke-width="2"/>
<circle cx="419" cy="381" fill="black" r="2" stroke="red" stroke-width="2"/>
<circle cx="274" cy="335" fill="black" r="2" stroke="red" stroke-width="2"/>
<circle cx="373" cy="460" fill="black" r="2" stroke="red" stroke-width="2"/>
<circle cx="323" cy="321" fill="black" r="2" stroke="red" stroke-width="2"/>
<circle cx="720" cy="400" fill="black" r="2" stroke="red" stroke-width="2"/>
<circle cx="0" cy="400" fill="black" r="2" stroke="red" stroke-width="2"/>
<circle cx="413" cy="377" fill="black" r="2" stroke="green" stroke-width="2"/>
<circle cx="413" cy="424" fill="black" r="2" stroke="green" stroke-width="2"/>
<circle cx="455" cy="400" fill="black" r="2" stroke="green" stroke-width="2"/>
<circle cx="434" cy="427" fill="black" r="2" stroke="red" stroke-width="2"/>
<circle cx="434" cy="374" fill="black" r="2" stroke="red" stroke-width="2"/>
<circle cx="338" cy="349" fill="black" r="2" stroke="red" stroke-width="2"/>
<circle cx="404" cy="373" fill="black" r="2" stroke="red" stroke-width="2"/>
<circle cx="453" cy="391" fill="black" r="2" stroke="red" stroke-width="2"/>
<circle cx="449" cy="337" fill="black" r="2" stroke="red" stroke-width="2"/>
<circle cx="449" cy="464" fill="black" r="2" stroke="red" stroke-width="2"/>
<circle cx="550" cy="400" fill="black" r="2" stroke="red" stroke-width="2"/>
<circle cx="409" cy="400" fill="black" r="2" stroke="red" stroke-width="2"/>
<circle cx="347" cy="400" fill="black" r="2" stroke="red" stroke-width="2"/>
<circle cx="338" cy="452" fill="black" r="2" stroke="red" stroke-width="2"/>
<circle cx="404" cy="428" fill="black" r="2" stroke="red" stroke-width="2"/>
<circle cx="453" cy="410" fill="black" r="2" stroke="red" stroke-width="2"/>
<circle cx="476" cy="376" fill="black" r="2" stroke="red" stroke-width="2"/>
<circle cx="476" cy="425" fill="black" r="2" stroke="red" stroke-width="2"/>
<circle cx="504" cy="400" fill="black" r="2" stroke="red" stroke-width="2"/>
<circle cx="430" cy="400" fill="black" r="2" stroke="red" stroke-width="2"/>
<circle cx="444" cy="378" fill="black" r="2" stroke="red" stroke-width="2"/>
<circle cx="444" cy="423" fill="black" r="2" stroke="red" stroke-width="2"/>
<circle cx="386" cy="424" fill="black" r="2" stroke="green" stroke-width="2"/>
<circle cx="386" cy="377" fill="black" r="2" stroke="green" stroke-width="2"/>
<circle cx="344" cy="400" fill="black" r="2" stroke="green" stroke-width="2"/>
<circle cx="382" cy="426" fill="black" r="2" stroke="red" stroke-width="2"/>
<circle cx="382" cy="375" fill="black" r="2" stroke="red" stroke-width="2"/>
<circle cx="375" cy="428" fill="black" r="2" stroke="red" stroke-width="2"/>
<circle cx="375" cy="373" fill="black" r="2" stroke="red" stroke-width="2"/>
<circle cx="329" cy="439" fill="black" r="2" stroke="red" stroke-width="2"/>
<circle cx="423" cy="415" fill="black" r="2" stroke="red" stroke-width="2"/>
<circle cx="371" cy="428" fill="black" r="2" stroke="red" stroke-width="2"/>
<circle cx="421" cy="323" fill="black" r="2" stroke="red" stroke-width="2"/>
<circle cx="421" cy="478" fill="black" r="2" stroke="red" stroke-width="2"/>
<circle cx="576" cy="400" fill="black" r="2" stroke="red" stroke-width="2"/>
<circle cx="383" cy="400" fill="black" r="2" stroke="red" stroke-width="2"/>
<circle cx="292" cy="400" fill="black" r="2" stroke="red" stroke-width="2"/>
<circle cx="329" cy="362" fill="black" r="2" stroke="red" stroke-width="2"/>
<circle cx="423" cy="386" fill="black" r="2" stroke="red" stroke-width="2"/>
<circle cx="371" cy="373" fill="black" r="2" stroke="red" stroke-width="2"/>
<circle cx="365" cy="328" fill="black" r="2" stroke="red" stroke-width="2"/>
<circle cx="365" cy="473" fill="black" r="2" stroke="red" stroke-width="2"/>
<circle cx="615" cy="400" fill="black" r="2" stroke="red" stroke-width="2"/>
<circle cx="209" cy="400" fill="black" r="2" stroke="red" stroke-width="2"/>
<circle cx="413" cy="377" fill="black" r="2" stroke="red" stroke-width="2"/>
<circle cx="373" cy="447" fill="black" r="2" stroke="red" stroke-width="2"/>
<circle cx="452" cy="309" fill="black" r="2" stroke="red" stroke-width="2"/>
<circle cx="378" cy="437" fill="black" r="2" stroke="red" stroke-width="2"/>
<circle cx="350" cy="486" fill="black" r="2" stroke="red" stroke-width="2"/>
<circle cx="428" cy="351" fill="black" r="2" stroke="red" stroke-width="2"/>
<circle cx="378" cy="364" fill="black" r="2" stroke="red" stroke-width="2"/>
<circle cx="428" cy="450" fill="black" r="2" stroke="red" stroke-width="2"/>
<circle cx="350" cy="315" fill="black" r="2" stroke="red" stroke-width="2"/>
<circle cx="413" cy="424" fill="black" r="2" stroke="red" stroke-width="2"/>
<circle cx="452" cy="492" fill="black" r="2" stroke="red" stroke-width="2"/>
<circle cx="373" cy="354" fill="black" r="2" stroke="red" stroke-width="2"/>
<circle cx="386" cy="479" fill="black" r="2" stroke="green" stroke-width="2"/>
<circle cx="413" cy="322" fill="black" r="2" stroke="green" stroke-width="2"/>
<circle cx="418" cy="294" fill="black" r="2" stroke="red" stroke-width="2"/>
<circle cx="425" cy="252" fill="black" r="2" stroke="red" stroke-width="2"/>
<circle cx="365" cy="600" fill="black" r="2" stroke="red" stroke-width="2"/>
<circle cx="378" cy="521" fill="black" r="2" stroke="red" stroke-width="2"/>
<circle cx="390" cy="452" fill="black" r="2" stroke="red" stroke-width="2"/>
<circle cx="418" cy="294" fill="black" r="2" stroke="red" stroke-width="2"/>
<circle cx="394" cy="431" fill="black" r="2" stroke="red" stroke-width="2"/>
<circle cx="381" cy="504" fill="black" r="2" stroke="red" stroke-width="2"/>
<circle cx="409" cy="348" fill="black" r="2" stroke="red" stroke-width="2"/>
<circle cx="418" cy="452" fill="black" r="2" stroke="red" stroke-width="2"/>
<circle cx="541" cy="349" fill="black" r="2" stroke="red" stroke-width="2"/>
<circle cx="386" cy="322" fill="black" r="2" stroke="red" stroke-width="2"/>
</svg>