<svg viewBox="0 0 800 800" xmlns="http://www.w3.org/2000/svg">
<circle cx="400" cy="400" fill="none" r="80" stroke="darkgray" stroke-width="3"/>
<line fill="none" stroke="blue" stroke-width="3" x1="400" x2="400" y1="-800" y2="1600"/>
<circle cx="400" cy="480" fill="none" r="80" stroke="blue" stroke-width="3"/>
<circle cx="400" cy="480" fill="none" r="160" stroke="green" stroke-width="3"/>
<circle cx="400" cy="320" fill="none" r="160" stroke="green" stroke-width="3"/>
<circle cx="400" cy="320" fill="none" r="80" stroke="green" stroke-width="3"/>
<circle cx="400" cy="240" fill="none" r="80" stroke="red" stroke-width="1"/>
<line fill="none" stroke="red" stroke-width="1" x1="1404" x2="-673" y1="-260" y2="940"/>
<circle cx="330" cy="360" fill="none" r="80" stroke="red" stroke-width="1"/>
<line fill="none" stroke="red" stroke-width="1" x1="-604" x2="1473" y1="-260" y2="940"/>
<circle cx="469" cy="360" fill="none" r="80" stroke="red" stroke-width="1"/>
<circle cx="400" cy="160" fill="none" r="160" stroke="red" stroke-width="1"/>
<circle cx="400" cy="320" fill="none" r="320" stroke="red" stroke-width="1"/>
<circle cx="400" cy="641" fill="none" r="320" stroke="red" stroke-width="1"/>
<circle cx="400" cy="320" fill="none" r="240" stroke="red" stroke-width="1"/>
<circle cx="400" cy="561" fill="none" r="240" stroke="red" stroke-width="1"/>
<line fill="none" stroke="red" stroke-width="1" x1="965" x2="-234" y1="-659" y2="1419"/>
<circle cx="400" cy="320" fill="none" r="138" stroke="red" stroke-width="1"/>
<circle cx="330" cy="440" fill="none" r="138" stroke="red" stroke-width="1"/>
<line fill="none" stroke="red" stroke-width="1" x1="-165" x2="1034" y1="-659" y2="1419"/>
<circle cx="469" cy="440" fill="none" r="138" stroke="red" stroke-width="1"/>
<circle cx="400" cy="182" fill="none" r="138" stroke="purple" stroke-width="1"/>
<circle cx="400" cy="459" fill="none" r="138" stroke="purple" stroke-width="1"/>
<circle cx="400" cy="320" fill="none" r="480" stroke="purple" stroke-width="1"/>
<circle cx="400" cy="800" fill="none" r="480" stroke="purple" stroke-width="1"/>
<circle cx="400" cy="80" fill="none" r="240" stroke="purple" stroke-width="1"/>
<circle cx="400" cy="320" fill="none" r="640" stroke="purple" stroke-width="1"/>
<circle cx="400" cy="960" fill="none" r="640" stroke="purple" stroke-width="1"/>
<circle cx="400" cy="0" fill="none" r="320" stroke="purple" stroke-width="1"/>
<circle cx="330" cy="280" fill="none" r="80" stroke="purple" stroke-width="1"/>
<circle cx="469" cy="280" fill="none" r="80" stroke="purple" stroke-width="1"/>
<line fill="none" stroke="purple" stroke-width="1" x1="1542" x2="-781" y1="26" y2="625"/>
<circle cx="322" cy="340" fill="none" r="80" stroke="purple" stroke-width="1"/>
<line fill="none" stroke="purple" stroke-width="1" x1="-742" x2="1581" y1="26" y2="625"/>
<circle cx="477" cy="340" fill="none" r="80" stroke="purple" stroke-width="1"/>
<circle cx="261" cy="400" fill="none" r="160" stroke="purple" stroke-width="1"/>
<circle cx="538" cy="400" fill="none" r="160" stroke="purple" stroke-width="1"/>
<line fill="none" stroke="purple" stroke-width="1" x1="947" x2="-214" y1="-668" y2="1431"/>
<circle cx="322" cy="460" fill="none" r="160" stroke="purple" stroke-width="1"/>
<line fill="none" stroke="purple" stroke-width="1" x1="-147" x2="1014" y1="-668" y2="1431"/>
<circle cx="477" cy="460" fill="none" r="160" stroke="purple" stroke-width="1"/>
<line fill="none" stroke="brown" stroke-width="1" x1="983" x2="-254" y1="-649" y2="1406"/>
<circle cx="317" cy="458" fill="none" r="160" stroke="brown" stroke-width="1"/>
<line fill="none" stroke="brown" stroke-width="1" x1="-798" x2="1601" y1="299" y2="342"/>
<circle cx="559" cy="323" fill="none" r="160" stroke="brown" stroke-width="1"/>
<circle cx="322" cy="180" fill="none" r="160" stroke="brown" stroke-width="1"/>
<circle cx="400" cy="320" fill="none" r="120" stroke="brown" stroke-width="1"/>
<circle cx="458" cy="425" fill="none" r="120" stroke="brown" stroke-width="1"/>
<circle cx="400" cy="320" fill="none" r="140" stroke="brown" stroke-width="1"/>
<circle cx="467" cy="443" fill="none" r="140" stroke="brown" stroke-width="1"/>
<line fill="none" stroke="brown" stroke-width="1" x1="1598" x2="-801" y1="299" y2="342"/>
<circle cx="240" cy="323" fill="none" r="160" stroke="brown" stroke-width="1"/>
<line fill="none" stroke="brown" stroke-width="1" x1="-183" x2="1054" y1="-649" y2="1406"/>
<circle cx="482" cy="458" fill="none" r="160" stroke="brown" stroke-width="1"/>
<circle cx="400" cy="320" fill="none" r="280" stroke="brown" stroke-width="1"/>
<circle cx="400" cy="601" fill="none" r="280" stroke="brown" stroke-width="1"/>
<circle cx="477" cy="180" fill="none" r="160" stroke="brown" stroke-width="1"/>
<circle cx="341" cy="425" fill="none" r="120" stroke="brown" stroke-width="1"/>
<circle cx="332" cy="443" fill="none" r="140" stroke="brown" stroke-width="1"/>
<circle cx="400" cy="320" fill="none" r="277" stroke="brown" stroke-width="1"/>
<circle cx="538" cy="560" fill="none" r="277" stroke="brown" stroke-width="1"/>
<line fill="none" stroke="brown" stroke-width="1" x1="99" x2="741" y1="-761" y2="1550"/>
<circle cx="421" cy="398" fill="none" r="80" stroke="brown" stroke-width="1"/>
<line fill="none" stroke="brown" stroke-width="1" x1="1200" x2="-480" y1="-495" y2="1216"/>
<circle cx="456" cy="263" fill="none" r="80" stroke="brown" stroke-width="1"/>
<line fill="none" stroke="brown" stroke-width="1" x1="-616" x2="1483" y1="-242" y2="919"/>
<circle cx="400" cy="320" fill="none" r="154" stroke="brown" stroke-width="1"/>
<circle cx="535" cy="395" fill="none" r="154" stroke="brown" stroke-width="1"/>
<line fill="none" stroke="brown" stroke-width="1" x1="-296" x2="1173" y1="-578" y2="1318"/>
<circle cx="400" cy="320" fill="none" r="126" stroke="brown" stroke-width="1"/>
<circle cx="477" cy="420" fill="none" r="126" stroke="brown" stroke-width="1"/>
<circle cx="400" cy="320" fill="none" r="39" stroke="brown" stroke-width="1"/>
<circle cx="438" cy="330" fill="none" r="39" stroke="brown" stroke-width="1"/>
<line fill="none" stroke="brown" stroke-width="1" x1="-400" x2="1280" y1="-495" y2="1216"/>
<circle cx="343" cy="263" fill="none" r="80" stroke="brown" stroke-width="1"/>
<line fill="none" stroke="brown" stroke-width="1" x1="700" x2="58" y1="-761" y2="1550"/>
<circle cx="378" cy="398" fill="none" r="80" stroke="brown" stroke-width="1"/>
<line fill="none" stroke="brown" stroke-width="1" x1="1416" x2="-683" y1="-242" y2="919"/>
<circle cx="264" cy="395" fill="none" r="154" stroke="brown" stroke-width="1"/>
<circle cx="400" cy="360" fill="none" r="39" stroke="brown" stroke-width="1"/>
<line fill="none" stroke="brown" stroke-width="1" x1="1096" x2="-373" y1="-578" y2="1318"/>
<circle cx="322" cy="420" fill="none" r="126" stroke="brown" stroke-width="1"/>
<circle cx="361" cy="330" fill="none" r="39" stroke="brown" stroke-width="1"/>
<circle cx="245" cy="280" fill="none" r="160" stroke="brown" stroke-width="1"/>
<circle cx="554" cy="280" fill="none" r="160" stroke="brown" stroke-width="1"/>
<circle cx="400" cy="320" fill="none" r="1280" stroke="brown" stroke-width="1"/>
<circle cx="400" cy="1600" fill="none" r="1280" stroke="brown" stroke-width="1"/>
</svg>