<svg viewBox="0 0 800 800" xmlns="http://www.w3.org/2000/svg">
<circle cx="400" cy="400" fill="none" r="80" stroke="darkgray" stroke-width="3"/>
<circle cx="400" cy="400" fill="none" r="27" stroke="darkgray" stroke-width="3"/>
<line fill="none" stroke="blue" stroke-width="3" x1="-800" x2="1600" y1="400" y2="400"/>
<circle cx="480" cy="400" fill="none" r="160" stroke="green" stroke-width="3"/>
<circle cx="319" cy="400" fill="none" r="160" stroke="green" stroke-width="3"/>
<circle cx="480" cy="400" fill="none" r="52" stroke="green" stroke-width="3"/>
<circle cx="427" cy="400" fill="none" r="52" stroke="green" stroke-width="3"/>
<circle cx="480" cy="400" fill="none" r="107" stroke="green" stroke-width="3"/>
<circle cx="372" cy="400" fill="none" r="107" stroke="green" stroke-width="3"/>
<circle cx="640" cy="400" fill="none" r="160" stroke="red" stroke-width="1"/>
<circle cx="480" cy="400" fill="none" r="320" stroke="red" stroke-width="1"/>
<circle cx="159" cy="400" fill="none" r="320" stroke="red" stroke-width="1"/>
<circle cx="400" cy="400" fill="black" r="2" stroke="darkgray" stroke-width="2"/>
<circle cx="480" cy="400" fill="black" r="2" stroke="darkgray" stroke-width="2"/>
<circle cx="319" cy="400" fill="black" r="2" stroke="blue" stroke-width="2"/>
<circle cx="427" cy="400" fill="black" r="2" stroke="blue" stroke-width="2"/>
<circle cx="372" cy="400" fill="black" r="2" stroke="blue" stroke-width="2"/>
<circle cx="640" cy="400" fill="black" r="2" stroke="green" stroke-width="2"/>
<circle cx="159" cy="400" fill="black" r="2" stroke="green" stroke-width="2"/>
<circle cx="400" cy="539" fill="black" r="2" stroke="red" stroke-width="2"/>
<circle cx="400" cy="262" fill="black" r="2" stroke="red" stroke-width="2"/>
<circle cx="462" cy="351" fill="black" r="2" stroke="green" stroke-width="2"/>
<circle cx="462" cy="450" fill="black" r="2" stroke="green" stroke-width="2"/>
<circle cx="532" cy="400" fill="black" r="2" stroke="green" stroke-width="2"/>
<circle cx="471" cy="349" fill="black" r="2" stroke="red" stroke-width="2"/>
<circle cx="471" cy="452" fill="black" r="2" stroke="red" stroke-width="2"/>
<circle cx="378" cy="384" fill="black" r="2" stroke="green" stroke-width="2"/>
<circle cx="378" cy="417" fill="black" r="2" stroke="green" stroke-width="2"/>
<circle cx="375" cy="400" fill="black" r="2" stroke="green" stroke-width="2"/>
<circle cx="453" cy="446" fill="black" r="2" stroke="red" stroke-width="2"/>
<circle cx="453" cy="355" fill="black" r="2" stroke="red" stroke-width="2"/>
<circle cx="407" cy="321" fill="black" r="2" stroke="green" stroke-width="2"/>
<circle cx="407" cy="480" fill="black" r="2" stroke="green" stroke-width="2"/>
<circle cx="587" cy="400" fill="black" r="2" stroke="green" stroke-width="2"/>
<circle cx="443" cy="299" fill="black" r="2" stroke="red" stroke-width="2"/>
<circle cx="443" cy="502" fill="black" r="2" stroke="red" stroke-width="2"/>
<circle cx="264" cy="400" fill="black" r="2" stroke="green" stroke-width="2"/>
<circle cx="361" cy="508" fill="black" r="2" stroke="red" stroke-width="2"/>
<circle cx="361" cy="293" fill="black" r="2" stroke="red" stroke-width="2"/>
<circle cx="467" cy="451" fill="black" r="2" stroke="red" stroke-width="2"/>
<circle cx="467" cy="350" fill="black" r="2" stroke="red" stroke-width="2"/>
<circle cx="426" cy="494" fill="black" r="2" stroke="red" stroke-width="2"/>
<circle cx="426" cy="307" fill="black" r="2" stroke="red" stroke-width="2"/>
<circle cx="800" cy="400" fill="black" r="2" stroke="red" stroke-width="2"/>
<circle cx="560" cy="262" fill="black" r="2" stroke="red" stroke-width="2"/>
<circle cx="560" cy="539" fill="black" r="2" stroke="red" stroke-width="2"/>
<circle cx="-160" cy="400" fill="black" r="2" stroke="red" stroke-width="2"/>
</svg>