<svg viewBox="0 0 800 800" xmlns="http://www.w3.org/2000/svg">
<circle cx="400" cy="400" fill="none" r="200" stroke="darkgray" stroke-width="3"/>
<line fill="none" stroke="blue" stroke-width="3" x1="-294" x2="1314" y1="-589" y2="1190"/>
<circle cx="600" cy="400" fill="none" r="268" stroke="blue" stroke-width="3"/>
<line fill="none" stroke="green" stroke-width="3" x1="1314" x2="-294" y1="-390" y2="1389"/>
<circle cx="420" cy="599" fill="none" r="268" stroke="green" stroke-width="3"/>
<circle cx="780" cy="599" fill="none" r="268" stroke="red" stroke-width="1"/>
<circle cx="780" cy="202" fill="none" r="268" stroke="red" stroke-width="1"/>
<line fill="none" stroke="red" stroke-width="1" x1="1595" x2="-791" y1="300" y2="540"/>
<circle cx="600" cy="400" fill="none" r="397" stroke="red" stroke-width="1"/>
<circle cx="203" cy="440" fill="none" r="397" stroke="red" stroke-width="1"/>
<line fill="none" stroke="red" stroke-width="1" x1="212" x2="949" y1="-800" y2="1483"/>
<circle cx="682" cy="656" fill="none" r="268" stroke="red" stroke-width="1"/>
<line fill="none" stroke="brown" stroke-width="1" x1="-589" x2="1489" y1="-286" y2="913"/>
<line fill="none" stroke="red" stroke-width="1" x1="-764" x2="1582" y1="107" y2="612"/>
<circle cx="337" cy="344" fill="none" r="268" stroke="red" stroke-width="1"/>
<line fill="none" stroke="brown" stroke-width="1" x1="1489" x2="-589" y1="-113" y2="1086"/>
<circle cx="420" cy="202" fill="none" r="268" stroke="blue" stroke-width="3"/>
<line fill="none" stroke="green" stroke-width="3" x1="419" x2="420" y1="-800" y2="1600"/>
<circle cx="420" cy="202" fill="none" r="397" stroke="green" stroke-width="3"/>
<circle cx="420" cy="599" fill="none" r="397" stroke="green" stroke-width="3"/>
</svg>