<svg viewBox="0 0 800 800" xmlns="http://www.w3.org/2000/svg">
<line fill="none" stroke="darkgray" stroke-width="3" x1="-800" x2="1600" y1="480" y2="481"/>
<line fill="none" stroke="darkgray" stroke-width="3" x1="1312" x2="-608" y1="-384" y2="1055"/>
<line fill="none" stroke="darkgray" stroke-width="3" x1="1408" x2="-512" y1="-256" y2="1184"/>
<circle cx="159" cy="481" fill="none" r="266" stroke="blue" stroke-width="3"/>
<circle cx="426" cy="481" fill="none" r="266" stroke="blue" stroke-width="3"/>
<circle cx="-106" cy="480" fill="none" r="266" stroke="green" stroke-width="3"/>
<circle cx="-53" cy="641" fill="none" r="266" stroke="green" stroke-width="3"/>
<circle cx="373" cy="320" fill="none" r="266" stroke="green" stroke-width="3"/>
<line fill="none" stroke="green" stroke-width="3" x1="536" x2="-135" y1="-810" y2="1493"/>
<circle cx="85" cy="737" fill="none" r="266" stroke="green" stroke-width="3"/>
<circle cx="159" cy="481" fill="none" r="533" stroke="green" stroke-width="3"/>
<circle cx="693" cy="481" fill="none" r="533" stroke="green" stroke-width="3"/>
<circle cx="159" cy="481" fill="none" r="426" stroke="green" stroke-width="3"/>
<circle cx="501" cy="224" fill="none" r="426" stroke="green" stroke-width="3"/>
<line fill="none" stroke="green" stroke-width="3" x1="-219" x2="539" y1="-658" y2="1618"/>
<circle cx="159" cy="481" fill="none" r="168" stroke="green" stroke-width="3"/>
<circle cx="213" cy="641" fill="none" r="168" stroke="green" stroke-width="3"/>
<line fill="none" stroke="green" stroke-width="3" x1="1538" x2="-738" y1="21" y2="780"/>
<circle cx="159" cy="481" fill="none" r="505" stroke="green" stroke-width="3"/>
<circle cx="640" cy="320" fill="none" r="505" stroke="green" stroke-width="3"/>
<circle cx="426" cy="481" fill="none" r="533" stroke="green" stroke-width="3"/>
<circle cx="-106" cy="480" fill="none" r="533" stroke="green" stroke-width="3"/>
<line fill="none" stroke="green" stroke-width="3" x1="1565" x2="-711" y1="101" y2="859"/>
<circle cx="426" cy="481" fill="none" r="505" stroke="green" stroke-width="3"/>
<circle cx="-53" cy="641" fill="none" r="505" stroke="green" stroke-width="3"/>
<line fill="none" stroke="green" stroke-width="3" x1="20" x2="779" y1="-738" y2="1538"/>
<circle cx="426" cy="481" fill="none" r="168" stroke="green" stroke-width="3"/>
<circle cx="373" cy="320" fill="none" r="168" stroke="green" stroke-width="3"/>
<circle cx="426" cy="481" fill="none" r="426" stroke="green" stroke-width="3"/>
<circle cx="85" cy="737" fill="none" r="426" stroke="green" stroke-width="3"/>
<circle cx="693" cy="481" fill="none" r="266" stroke="green" stroke-width="3"/>
<line fill="none" stroke="green" stroke-width="3" x1="782" x2="110" y1="-738" y2="1565"/>
<circle cx="501" cy="224" fill="none" r="266" stroke="green" stroke-width="3"/>
<circle cx="213" cy="641" fill="none" r="266" stroke="green" stroke-width="3"/>
</svg>