<svg viewBox="0 0 800 800" xmlns="http://www.w3.org/2000/svg">
<line fill="none" stroke="darkgray" stroke-width="3" x1="-800" x2="1600" y1="400" y2="400"/>
<line fill="none" stroke="darkgray" stroke-width="3" x1="-800" x2="1600" y1="241" y2="240"/>
<line fill="none" stroke="blue" stroke-width="3" x1="539" x2="260" y1="-791" y2="1591"/>
<circle cx="400" cy="400" fill="none" r="161" stroke="blue" stroke-width="3"/>
<circle cx="418" cy="240" fill="none" r="161" stroke="blue" stroke-width="3"/>
<circle cx="561" cy="400" fill="none" r="161" stroke="green" stroke-width="3"/>
<circle cx="238" cy="400" fill="none" r="161" stroke="green" stroke-width="3"/>
<line fill="none" stroke="green" stroke-width="3" x1="260" x2="539" y1="-791" y2="1591"/>
<circle cx="381" cy="240" fill="none" r="161" stroke="green" stroke-width="3"/>
<circle cx="400" cy="400" fill="none" r="37" stroke="green" stroke-width="3"/>
<circle cx="437" cy="401" fill="none" r="37" stroke="green" stroke-width="3"/>
<line fill="none" stroke="green" stroke-width="3" x1="1296" x2="-496" y1="-397" y2="1197"/>
<circle cx="400" cy="400" fill="none" r="240" stroke="green" stroke-width="3"/>
<circle cx="579" cy="240" fill="none" r="240" stroke="green" stroke-width="3"/>
<line fill="none" stroke="green" stroke-width="3" x1="-397" x2="1197" y1="-496" y2="1296"/>
<circle cx="400" cy="400" fill="none" r="214" stroke="green" stroke-width="3"/>
<circle cx="257" cy="240" fill="none" r="214" stroke="green" stroke-width="3"/>
<line fill="none" stroke="green" stroke-width="3" x1="-307" x2="1287" y1="-576" y2="1216"/>
<circle cx="418" cy="240" fill="none" r="214" stroke="green" stroke-width="3"/>
<circle cx="561" cy="400" fill="none" r="214" stroke="green" stroke-width="3"/>
<line fill="none" stroke="green" stroke-width="3" x1="1225" x2="-567" y1="-477" y2="1117"/>
<circle cx="418" cy="240" fill="none" r="240" stroke="green" stroke-width="3"/>
<circle cx="238" cy="400" fill="none" r="240" stroke="green" stroke-width="3"/>
<circle cx="418" cy="240" fill="none" r="37" stroke="green" stroke-width="3"/>
<circle cx="381" cy="240" fill="none" r="37" stroke="green" stroke-width="3"/>
<line fill="none" stroke="green" stroke-width="3" x1="297" x2="576" y1="-796" y2="1587"/>
<circle cx="437" cy="401" fill="none" r="161" stroke="green" stroke-width="3"/>
<circle cx="579" cy="240" fill="none" r="161" stroke="green" stroke-width="3"/>
<circle cx="257" cy="240" fill="none" r="161" stroke="green" stroke-width="3"/>
<circle cx="561" cy="400" fill="none" r="322" stroke="green" stroke-width="3"/>
<circle cx="238" cy="400" fill="none" r="322" stroke="green" stroke-width="3"/>
<line fill="none" stroke="green" stroke-width="3" x1="-425" x2="1367" y1="-477" y2="1117"/>
<circle cx="561" cy="400" fill="none" r="240" stroke="green" stroke-width="3"/>
<circle cx="381" cy="240" fill="none" r="240" stroke="green" stroke-width="3"/>
<line fill="none" stroke="green" stroke-width="3" x1="1107" x2="-487" y1="-576" y2="1216"/>
<circle cx="238" cy="400" fill="none" r="214" stroke="green" stroke-width="3"/>
<circle cx="381" cy="240" fill="none" r="214" stroke="green" stroke-width="3"/>
<line fill="none" stroke="green" stroke-width="3" x1="1218" x2="-376" y1="-477" y2="1315"/>
<circle cx="437" cy="401" fill="none" r="214" stroke="green" stroke-width="3"/>
<circle cx="579" cy="240" fill="none" r="214" stroke="green" stroke-width="3"/>
<line fill="none" stroke="green" stroke-width="3" x1="-479" x2="1313" y1="-416" y2="1178"/>
<circle cx="437" cy="401" fill="none" r="240" stroke="green" stroke-width="3"/>
<circle cx="257" cy="240" fill="none" r="240" stroke="green" stroke-width="3"/>
<circle cx="579" cy="240" fill="none" r="322" stroke="green" stroke-width="3"/>
<circle cx="257" cy="240" fill="none" r="322" stroke="green" stroke-width="3"/>
<circle cx="381" cy="561" fill="none" r="161" stroke="red" stroke-width="1"/>
<circle cx="400" cy="400" fill="none" r="322" stroke="red" stroke-width="1"/>
<circle cx="437" cy="80" fill="none" r="322" stroke="red" stroke-width="1"/>
<line fill="none" stroke="red" stroke-width="1" x1="1502" x2="-702" y1="-74" y2="874"/>
<circle cx="547" cy="337" fill="none" r="161" stroke="red" stroke-width="1"/>
<line fill="none" stroke="red" stroke-width="1" x1="-562" x2="1362" y1="-316" y2="1116"/>
<circle cx="270" cy="304" fill="none" r="161" stroke="red" stroke-width="1"/>
<circle cx="722" cy="400" fill="none" r="322" stroke="red" stroke-width="1"/>
<line fill="none" stroke="red" stroke-width="1" x1="1197" x2="-397" y1="-496" y2="1296"/>
<circle cx="542" cy="240" fill="none" r="214" stroke="red" stroke-width="1"/>
<line fill="none" stroke="red" stroke-width="1" x1="1000" x2="-200" y1="-639" y2="1439"/>
<circle cx="480" cy="261" fill="none" r="161" stroke="red" stroke-width="1"/>
<line fill="none" stroke="red" stroke-width="1" x1="-200" x2="1000" y1="-639" y2="1439"/>
<circle cx="480" cy="540" fill="none" r="161" stroke="red" stroke-width="1"/>
<circle cx="77" cy="400" fill="none" r="322" stroke="red" stroke-width="1"/>
<line fill="none" stroke="red" stroke-width="1" x1="-496" x2="1296" y1="-397" y2="1197"/>
<circle cx="220" cy="240" fill="none" r="240" stroke="red" stroke-width="1"/>
<circle cx="319" cy="540" fill="none" r="161" stroke="red" stroke-width="1"/>
<circle cx="319" cy="261" fill="none" r="161" stroke="red" stroke-width="1"/>
<circle cx="418" cy="561" fill="none" r="161" stroke="red" stroke-width="1"/>
<circle cx="362" cy="401" fill="none" r="37" stroke="red" stroke-width="1"/>
<line fill="none" stroke="red" stroke-width="1" x1="1362" x2="-562" y1="-316" y2="1116"/>
<circle cx="529" cy="304" fill="none" r="161" stroke="red" stroke-width="1"/>
<line fill="none" stroke="red" stroke-width="1" x1="-702" x2="1502" y1="-74" y2="874"/>
<circle cx="252" cy="337" fill="none" r="161" stroke="red" stroke-width="1"/>
<line fill="none" stroke="red" stroke-width="1" x1="-767" x2="1567" y1="123" y2="678"/>
<circle cx="363" cy="392" fill="none" r="37" stroke="red" stroke-width="1"/>
<circle cx="400" cy="400" fill="none" r="75" stroke="red" stroke-width="1"/>
<circle cx="475" cy="400" fill="none" r="75" stroke="red" stroke-width="1"/>
<line fill="none" stroke="red" stroke-width="1" x1="1591" x2="-791" y1="261" y2="540"/>
<circle cx="400" cy="400" fill="none" r="74" stroke="red" stroke-width="1"/>
<circle cx="474" cy="392" fill="none" r="74" stroke="red" stroke-width="1"/>
<circle cx="640" cy="400" fill="none" r="240" stroke="red" stroke-width="1"/>
<circle cx="159" cy="400" fill="none" r="240" stroke="red" stroke-width="1"/>
<line fill="none" stroke="red" stroke-width="1" x1="-287" x2="1087" y1="-583" y2="1383"/>
<circle cx="262" cy="203" fill="none" r="240" stroke="red" stroke-width="1"/>
<circle cx="400" cy="400" fill="none" r="359" stroke="red" stroke-width="1"/>
<circle cx="759" cy="401" fill="none" r="359" stroke="red" stroke-width="1"/>
<line fill="none" stroke="red" stroke-width="1" x1="1521" x2="-721" y1="-26" y2="826"/>
<circle cx="400" cy="400" fill="none" r="449" stroke="red" stroke-width="1"/>
<circle cx="820" cy="240" fill="none" r="449" stroke="red" stroke-width="1"/>
<line fill="none" stroke="red" stroke-width="1" x1="-26" x2="826" y1="-721" y2="1521"/>
<circle cx="400" cy="400" fill="none" r="171" stroke="red" stroke-width="1"/>
<circle cx="339" cy="240" fill="none" r="171" stroke="red" stroke-width="1"/>
<circle cx="614" cy="400" fill="none" r="214" stroke="red" stroke-width="1"/>
<circle cx="185" cy="400" fill="none" r="214" stroke="red" stroke-width="1"/>
<line fill="none" stroke="red" stroke-width="1" x1="1383" x2="-583" y1="-287" y2="1087"/>
<circle cx="575" cy="278" fill="none" r="214" stroke="red" stroke-width="1"/>
<circle cx="400" cy="400" fill="none" r="284" stroke="red" stroke-width="1"/>
<circle cx="115" cy="401" fill="none" r="284" stroke="red" stroke-width="1"/>
<line fill="none" stroke="red" stroke-width="1" x1="891" x2="-91" y1="-694" y2="1494"/>
<circle cx="400" cy="400" fill="none" r="175" stroke="red" stroke-width="1"/>
<circle cx="471" cy="240" fill="none" r="175" stroke="red" stroke-width="1"/>
<line fill="none" stroke="red" stroke-width="1" x1="-694" x2="1494" y1="-91" y2="891"/>
<circle cx="400" cy="400" fill="none" r="390" stroke="red" stroke-width="1"/>
<circle cx="43" cy="240" fill="none" r="390" stroke="red" stroke-width="1"/>
<circle cx="400" cy="400" fill="none" r="123" stroke="red" stroke-width="1"/>
<circle cx="276" cy="401" fill="none" r="123" stroke="red" stroke-width="1"/>
<line fill="none" stroke="red" stroke-width="1" x1="1389" x2="-589" y1="-279" y2="1079"/>
<circle cx="400" cy="400" fill="none" r="282" stroke="red" stroke-width="1"/>
<circle cx="632" cy="240" fill="none" r="282" stroke="red" stroke-width="1"/>
<line fill="none" stroke="red" stroke-width="1" x1="-528" x2="1328" y1="-360" y2="1160"/>
<circle cx="400" cy="400" fill="none" r="252" stroke="red" stroke-width="1"/>
<circle cx="204" cy="240" fill="none" r="252" stroke="red" stroke-width="1"/>
<circle cx="243" cy="363" fill="none" r="161" stroke="red" stroke-width="1"/>
<circle cx="400" cy="400" fill="none" r="375" stroke="red" stroke-width="1"/>
<circle cx="775" cy="400" fill="none" r="375" stroke="red" stroke-width="1"/>
<circle cx="400" cy="400" fill="none" r="53" stroke="red" stroke-width="1"/>
<circle cx="346" cy="400" fill="none" r="53" stroke="red" stroke-width="1"/>
<line fill="none" stroke="red" stroke-width="1" x1="1461" x2="-661" y1="-159" y2="959"/>
<circle cx="400" cy="400" fill="none" r="343" stroke="red" stroke-width="1"/>
<circle cx="703" cy="240" fill="none" r="343" stroke="red" stroke-width="1"/>
<circle cx="400" cy="400" fill="none" r="198" stroke="red" stroke-width="1"/>
<circle cx="598" cy="401" fill="none" r="198" stroke="red" stroke-width="1"/>
<line fill="none" stroke="red" stroke-width="1" x1="1421" x2="-621" y1="-229" y2="1029"/>
<circle cx="400" cy="400" fill="none" r="304" stroke="red" stroke-width="1"/>
<circle cx="659" cy="240" fill="none" r="304" stroke="red" stroke-width="1"/>
<line fill="none" stroke="red" stroke-width="1" x1="-573" x2="1373" y1="-301" y2="1101"/>
<circle cx="400" cy="400" fill="none" r="273" stroke="red" stroke-width="1"/>
<circle cx="178" cy="240" fill="none" r="273" stroke="red" stroke-width="1"/>
<circle cx="556" cy="438" fill="none" r="161" stroke="red" stroke-width="1"/>
<circle cx="400" cy="400" fill="none" r="79" stroke="red" stroke-width="1"/>
<circle cx="479" cy="400" fill="none" r="79" stroke="red" stroke-width="1"/>
<circle cx="400" cy="400" fill="none" r="401" stroke="red" stroke-width="1"/>
<circle cx="-1" cy="400" fill="none" r="401" stroke="red" stroke-width="1"/>
<line fill="none" stroke="red" stroke-width="1" x1="-686" x2="1486" y1="-109" y2="909"/>
<circle cx="400" cy="400" fill="none" r="376" stroke="red" stroke-width="1"/>
<circle cx="59" cy="240" fill="none" r="376" stroke="red" stroke-width="1"/>
<line fill="none" stroke="red" stroke-width="1" x1="798" x2="1" y1="-732" y2="1532"/>
<circle cx="400" cy="400" fill="none" r="169" stroke="red" stroke-width="1"/>
<circle cx="456" cy="240" fill="none" r="169" stroke="red" stroke-width="1"/>
<line fill="none" stroke="red" stroke-width="1" x1="811" x2="-11" y1="-727" y2="1527"/>
<circle cx="455" cy="249" fill="none" r="161" stroke="red" stroke-width="1"/>
<line fill="none" stroke="red" stroke-width="1" x1="1" x2="798" y1="-732" y2="1532"/>
<circle cx="343" cy="240" fill="none" r="169" stroke="red" stroke-width="1"/>
<line fill="none" stroke="red" stroke-width="1" x1="-11" x2="811" y1="-727" y2="1527"/>
<circle cx="344" cy="249" fill="none" r="161" stroke="red" stroke-width="1"/>
<line fill="none" stroke="red" stroke-width="1" x1="1439" x2="-639" y1="-200" y2="1000"/>
<circle cx="400" cy="400" fill="none" r="192" stroke="red" stroke-width="1"/>
<circle cx="566" cy="304" fill="none" r="192" stroke="red" stroke-width="1"/>
<line fill="none" stroke="red" stroke-width="1" x1="-639" x2="1439" y1="-199" y2="999"/>
<circle cx="400" cy="400" fill="none" r="127" stroke="red" stroke-width="1"/>
<circle cx="289" cy="337" fill="none" r="127" stroke="red" stroke-width="1"/>
<line fill="none" stroke="red" stroke-width="1" x1="1486" x2="-686" y1="-109" y2="909"/>
<circle cx="740" cy="240" fill="none" r="376" stroke="red" stroke-width="1"/>
<line fill="none" stroke="red" stroke-width="1" x1="777" x2="22" y1="-739" y2="1539"/>
<circle cx="400" cy="400" fill="none" r="315" stroke="red" stroke-width="1"/>
<circle cx="499" cy="101" fill="none" r="315" stroke="red" stroke-width="1"/>
<line fill="none" stroke="red" stroke-width="1" x1="1575" x2="-775" y1="158" y2="643"/>
<circle cx="400" cy="400" fill="none" r="101" stroke="red" stroke-width="1"/>
<circle cx="499" cy="380" fill="none" r="101" stroke="red" stroke-width="1"/>
<line fill="none" stroke="red" stroke-width="1" x1="-661" x2="1461" y1="-159" y2="959"/>
<circle cx="96" cy="240" fill="none" r="343" stroke="red" stroke-width="1"/>
<line fill="none" stroke="red" stroke-width="1" x1="-739" x2="1539" y1="23" y2="778"/>
<circle cx="400" cy="400" fill="none" r="65" stroke="red" stroke-width="1"/>
<circle cx="338" cy="380" fill="none" r="65" stroke="red" stroke-width="1"/>
<line fill="none" stroke="red" stroke-width="1" x1="157" x2="642" y1="-775" y2="1575"/>
<circle cx="400" cy="400" fill="none" r="305" stroke="red" stroke-width="1"/>
<circle cx="338" cy="101" fill="none" r="305" stroke="red" stroke-width="1"/>
<circle cx="400" cy="400" fill="none" r="483" stroke="red" stroke-width="1"/>
<circle cx="883" cy="400" fill="none" r="483" stroke="red" stroke-width="1"/>
<line fill="none" stroke="red" stroke-width="1" x1="1527" x2="-727" y1="-9" y2="809"/>
<circle cx="400" cy="400" fill="none" r="468" stroke="red" stroke-width="1"/>
<circle cx="840" cy="240" fill="none" r="468" stroke="red" stroke-width="1"/>
<line fill="none" stroke="red" stroke-width="1" x1="-314" x2="1114" y1="-564" y2="1364"/>
<circle cx="400" cy="400" fill="none" r="199" stroke="red" stroke-width="1"/>
<circle cx="281" cy="240" fill="none" r="199" stroke="red" stroke-width="1"/>
<circle cx="-83" cy="400" fill="none" r="483" stroke="red" stroke-width="1"/>
<line fill="none" stroke="red" stroke-width="1" x1="1114" x2="-314" y1="-564" y2="1364"/>
<circle cx="518" cy="240" fill="none" r="199" stroke="red" stroke-width="1"/>
<line fill="none" stroke="red" stroke-width="1" x1="-727" x2="1527" y1="-9" y2="809"/>
<circle cx="-40" cy="240" fill="none" r="468" stroke="red" stroke-width="1"/>
<circle cx="801" cy="400" fill="none" r="401" stroke="red" stroke-width="1"/>
<circle cx="320" cy="400" fill="none" r="79" stroke="red" stroke-width="1"/>
<circle cx="201" cy="401" fill="none" r="198" stroke="red" stroke-width="1"/>
<line fill="none" stroke="red" stroke-width="1" x1="1373" x2="-573" y1="-301" y2="1101"/>
<circle cx="621" cy="240" fill="none" r="273" stroke="red" stroke-width="1"/>
<line fill="none" stroke="red" stroke-width="1" x1="-621" x2="1421" y1="-229" y2="1029"/>
<circle cx="140" cy="240" fill="none" r="304" stroke="red" stroke-width="1"/>
<line fill="none" stroke="red" stroke-width="1" x1="1567" x2="-767" y1="123" y2="678"/>
<circle cx="243" cy="438" fill="none" r="161" stroke="red" stroke-width="1"/>
<circle cx="453" cy="400" fill="none" r="53" stroke="red" stroke-width="1"/>
<circle cx="24" cy="400" fill="none" r="375" stroke="red" stroke-width="1"/>
<circle cx="523" cy="401" fill="none" r="123" stroke="red" stroke-width="1"/>
<line fill="none" stroke="red" stroke-width="1" x1="1328" x2="-528" y1="-360" y2="1160"/>
<circle cx="595" cy="240" fill="none" r="252" stroke="red" stroke-width="1"/>
<line fill="none" stroke="red" stroke-width="1" x1="-589" x2="1389" y1="-279" y2="1079"/>
<circle cx="167" cy="240" fill="none" r="282" stroke="red" stroke-width="1"/>
<circle cx="556" cy="363" fill="none" r="161" stroke="red" stroke-width="1"/>
<circle cx="400" cy="400" fill="none" r="251" stroke="red" stroke-width="1"/>
<circle cx="651" cy="400" fill="none" r="251" stroke="red" stroke-width="1"/>
<circle cx="400" cy="400" fill="none" r="176" stroke="red" stroke-width="1"/>
<circle cx="223" cy="400" fill="none" r="176" stroke="red" stroke-width="1"/>
<line fill="none" stroke="red" stroke-width="1" x1="-257" x2="1057" y1="-603" y2="1403"/>
<circle cx="400" cy="400" fill="none" r="191" stroke="red" stroke-width="1"/>
<circle cx="295" cy="240" fill="none" r="191" stroke="red" stroke-width="1"/>
<circle cx="400" cy="400" fill="none" r="184" stroke="red" stroke-width="1"/>
<circle cx="262" cy="278" fill="none" r="184" stroke="red" stroke-width="1"/>
<line fill="none" stroke="red" stroke-width="1" x1="1511" x2="-711" y1="-51" y2="851"/>
<circle cx="400" cy="400" fill="none" r="425" stroke="red" stroke-width="1"/>
<circle cx="794" cy="240" fill="none" r="425" stroke="red" stroke-width="1"/>
<line fill="none" stroke="red" stroke-width="1" x1="148" x2="651" y1="-773" y2="1573"/>
<circle cx="400" cy="400" fill="none" r="163" stroke="red" stroke-width="1"/>
<circle cx="365" cy="240" fill="none" r="163" stroke="red" stroke-width="1"/>
<circle cx="400" cy="400" fill="none" r="278" stroke="red" stroke-width="1"/>
<circle cx="678" cy="400" fill="none" r="278" stroke="red" stroke-width="1"/>
<circle cx="400" cy="400" fill="none" r="203" stroke="red" stroke-width="1"/>
<circle cx="196" cy="400" fill="none" r="203" stroke="red" stroke-width="1"/>
<line fill="none" stroke="red" stroke-width="1" x1="1366" x2="-566" y1="-311" y2="1111"/>
<circle cx="400" cy="400" fill="none" r="269" stroke="red" stroke-width="1"/>
<circle cx="617" cy="240" fill="none" r="269" stroke="red" stroke-width="1"/>
<circle cx="400" cy="400" fill="none" r="264" stroke="red" stroke-width="1"/>
<circle cx="575" cy="203" fill="none" r="264" stroke="red" stroke-width="1"/>
<line fill="none" stroke="red" stroke-width="1" x1="1028" x2="-228" y1="-622" y2="1422"/>
<circle cx="400" cy="400" fill="none" r="187" stroke="red" stroke-width="1"/>
<circle cx="498" cy="240" fill="none" r="187" stroke="red" stroke-width="1"/>
<line fill="none" stroke="red" stroke-width="1" x1="-707" x2="1507" y1="-62" y2="862"/>
<circle cx="400" cy="400" fill="none" r="415" stroke="red" stroke-width="1"/>
<circle cx="16" cy="240" fill="none" r="415" stroke="red" stroke-width="1"/>
<circle cx="400" cy="400" fill="none" r="459" stroke="red" stroke-width="1"/>
<circle cx="859" cy="401" fill="none" r="459" stroke="red" stroke-width="1"/>
<circle cx="400" cy="400" fill="none" r="99" stroke="red" stroke-width="1"/>
<circle cx="300" cy="401" fill="none" r="99" stroke="red" stroke-width="1"/>
<line fill="none" stroke="red" stroke-width="1" x1="1543" x2="-743" y1="36" y2="765"/>
<circle cx="400" cy="400" fill="none" r="526" stroke="red" stroke-width="1"/>
<circle cx="902" cy="240" fill="none" r="526" stroke="red" stroke-width="1"/>
<circle cx="400" cy="400" fill="none" r="137" stroke="red" stroke-width="1"/>
<circle cx="537" cy="401" fill="none" r="137" stroke="red" stroke-width="1"/>
<circle cx="400" cy="400" fill="none" r="421" stroke="red" stroke-width="1"/>
<circle cx="-21" cy="401" fill="none" r="421" stroke="red" stroke-width="1"/>
<line fill="none" stroke="red" stroke-width="1" x1="-734" x2="1534" y1="10" y2="791"/>
<circle cx="400" cy="400" fill="none" r="491" stroke="red" stroke-width="1"/>
<circle cx="-64" cy="240" fill="none" r="491" stroke="red" stroke-width="1"/>
<circle cx="418" cy="240" fill="none" r="322" stroke="red" stroke-width="1"/>
<circle cx="381" cy="561" fill="none" r="322" stroke="red" stroke-width="1"/>
<circle cx="437" cy="80" fill="none" r="161" stroke="red" stroke-width="1"/>
<line fill="none" stroke="red" stroke-width="1" x1="-478" x2="1445" y1="-428" y2="1005"/>
<line fill="none" stroke="red" stroke-width="1" x1="1446" x2="-757" y1="-203" y2="747"/>
<line fill="none" stroke="red" stroke-width="1" x1="-591" x2="1531" y1="-292" y2="826"/>
<circle cx="418" cy="240" fill="none" r="343" stroke="red" stroke-width="1"/>
<circle cx="722" cy="400" fill="none" r="343" stroke="red" stroke-width="1"/>
<circle cx="418" cy="240" fill="none" r="123" stroke="red" stroke-width="1"/>
<circle cx="542" cy="240" fill="none" r="123" stroke="red" stroke-width="1"/>
<line fill="none" stroke="red" stroke-width="1" x1="-689" x2="1588" y1="-127" y2="628"/>
<circle cx="418" cy="240" fill="none" r="65" stroke="red" stroke-width="1"/>
<circle cx="480" cy="261" fill="none" r="65" stroke="red" stroke-width="1"/>
<line fill="none" stroke="red" stroke-width="1" x1="207" x2="692" y1="-785" y2="1565"/>
<circle cx="418" cy="240" fill="none" r="305" stroke="red" stroke-width="1"/>
<circle cx="480" cy="540" fill="none" r="305" stroke="red" stroke-width="1"/>
<line fill="none" stroke="red" stroke-width="1" x1="1428" x2="-744" y1="-233" y2="786"/>
<circle cx="418" cy="240" fill="none" r="376" stroke="red" stroke-width="1"/>
<circle cx="77" cy="400" fill="none" r="376" stroke="red" stroke-width="1"/>
<circle cx="418" cy="240" fill="none" r="198" stroke="red" stroke-width="1"/>
<circle cx="220" cy="240" fill="none" r="198" stroke="red" stroke-width="1"/>
<line fill="none" stroke="red" stroke-width="1" x1="746" x2="-8" y1="-749" y2="1528"/>
<circle cx="418" cy="240" fill="none" r="315" stroke="red" stroke-width="1"/>
<circle cx="319" cy="540" fill="none" r="315" stroke="red" stroke-width="1"/>
<line fill="none" stroke="red" stroke-width="1" x1="1544" x2="-806" y1="8" y2="493"/>
<circle cx="418" cy="240" fill="none" r="101" stroke="red" stroke-width="1"/>
<circle cx="319" cy="261" fill="none" r="101" stroke="red" stroke-width="1"/>
<line fill="none" stroke="red" stroke-width="1" x1="418" x2="418" y1="-800" y2="1600"/>
<circle cx="418" cy="240" fill="none" r="320" stroke="red" stroke-width="1"/>
<circle cx="418" cy="561" fill="none" r="320" stroke="red" stroke-width="1"/>
<line fill="none" stroke="red" stroke-width="1" x1="764" x2="-31" y1="-743" y2="1520"/>
<circle cx="418" cy="240" fill="none" r="169" stroke="red" stroke-width="1"/>
<circle cx="362" cy="401" fill="none" r="169" stroke="red" stroke-width="1"/>
<line fill="none" stroke="red" stroke-width="1" x1="-565" x2="1513" y1="-328" y2="871"/>
<circle cx="418" cy="240" fill="none" r="127" stroke="red" stroke-width="1"/>
</svg>