<svg viewBox="0 0 800 800" xmlns="http://www.w3.org/2000/svg">
<line fill="none" stroke="darkgray" stroke-width="3" x1="400" x2="307" y1="303" y2="454"/>
<line fill="none" stroke="darkgray" stroke-width="3" x1="400" x2="523" y1="303" y2="472"/>
<line fill="none" stroke="darkgray" stroke-width="3" x1="523" x2="307" y1="472" y2="454"/>
<circle cx="400" cy="303" fill="none" r="176" stroke="blue" stroke-width="3"/>
<circle cx="307" cy="454" fill="none" r="176" stroke="blue" stroke-width="3"/>
<line fill="none" stroke="red" stroke-width="1" x1="-639" x2="1439" y1="-200" y2="1000"/>
<line fill="none" stroke="purple" stroke-width="1" x1="1439" x2="-639" y1="-200" y2="1000"/>
<circle cx="400" cy="303" fill="black" r="2" stroke="darkgray" stroke-width="2"/>
<circle cx="307" cy="454" fill="black" r="2" stroke="darkgray" stroke-width="2"/>
<circle cx="523" cy="472" fill="black" r="2" stroke="darkgray" stroke-width="2"/>
<circle cx="504" cy="445" fill="black" r="2" stroke="blue" stroke-width="2"/>
<circle cx="465" cy="467" fill="black" r="2" stroke="blue" stroke-width="2"/>
<circle cx="479" cy="412" fill="black" r="2" stroke="blue" stroke-width="2"/>
<circle cx="484" cy="469" fill="black" r="2" stroke="blue" stroke-width="2"/>
<circle cx="484" cy="458" fill="black" r="2" stroke="green" stroke-width="2"/>
<circle cx="223" cy="298" fill="black" r="2" stroke="green" stroke-width="2"/>
<circle cx="355" cy="375" fill="black" r="2" stroke="red" stroke-width="2"/>
<circle cx="492" cy="454" fill="black" r="2" stroke="red" stroke-width="2"/>
<circle cx="484" cy="449" fill="black" r="2" stroke="red" stroke-width="2"/>
<circle cx="450" cy="371" fill="black" r="2" stroke="purple" stroke-width="2"/>
<circle cx="576" cy="298" fill="black" r="2" stroke="purple" stroke-width="2"/>
<circle cx="154" cy="542" fill="black" r="2" stroke="purple" stroke-width="2"/>
<circle cx="461" cy="365" fill="black" r="2" stroke="purple" stroke-width="2"/>
<circle cx="400" cy="400" fill="black" r="2" stroke="purple" stroke-width="2"/>
</svg>