<svg viewBox="0 0 800 800" xmlns="http://www.w3.org/2000/svg">
<line fill="none" stroke="blue" stroke-width="3" x1="82" x2="1197" y1="-788" y2="1336"/>
<circle cx="622" cy="240" fill="none" r="90" stroke="blue" stroke-width="3"/>
<circle cx="501" cy="400" fill="none" r="252" stroke="red" stroke-width="1"/>
<line fill="none" stroke="purple" stroke-width="1" x1="1250" x2="-189" y1="-462" y2="1457"/>
<circle cx="664" cy="320" fill="none" r="90" stroke="blue" stroke-width="3"/>
<line fill="none" stroke="red" stroke-width="1" x1="-800" x2="1600" y1="400" y2="401"/>
<line fill="none" stroke="purple" stroke-width="1" x1="622" x2="622" y1="-800" y2="1600"/>
<line fill="none" stroke="brown" stroke-width="1" x1="-800" x2="1600" y1="240" y2="240"/>
<line fill="none" stroke="blue" stroke-width="3" x1="-463" x2="1456" y1="-448" y2="991"/>
<line fill="none" stroke="purple" stroke-width="1" x1="1120" x2="-320" y1="-560" y2="1360"/>
<circle cx="622" cy="240" fill="black" r="2" stroke="darkgray" stroke-width="2"/>
<circle cx="664" cy="320" fill="black" r="2" stroke="darkgray" stroke-width="2"/>
<circle cx="501" cy="400" fill="black" r="2" stroke="darkgray" stroke-width="2"/>
<circle cx="580" cy="160" fill="black" r="2" stroke="green" stroke-width="2"/>
<circle cx="743" cy="473" fill="black" r="2" stroke="red" stroke-width="2"/>
<circle cx="710" cy="258" fill="black" r="2" stroke="red" stroke-width="2"/>
<circle cx="424" cy="641" fill="black" r="2" stroke="purple" stroke-width="2"/>
<circle cx="706" cy="400" fill="black" r="2" stroke="green" stroke-width="2"/>
<circle cx="622" cy="400" fill="black" r="2" stroke="red" stroke-width="2"/>
<circle cx="706" cy="240" fill="black" r="2" stroke="brown" stroke-width="2"/>
<circle cx="730" cy="447" fill="black" r="2" stroke="green" stroke-width="2"/>
<circle cx="533" cy="223" fill="black" r="2" stroke="purple" stroke-width="2"/>
<circle cx="496" cy="272" fill="black" r="2" stroke="purple" stroke-width="2"/>
</svg>