<svg viewBox="0 0 800 800" xmlns="http://www.w3.org/2000/svg">
<circle cx="400" cy="400" fill="none" r="80" stroke="darkgray" stroke-width="3"/>
<circle cx="400" cy="400" fill="none" r="27" stroke="darkgray" stroke-width="3"/>
<line fill="none" stroke="blue" stroke-width="3" x1="-800" x2="1600" y1="400" y2="400"/>
<circle cx="427" cy="400" fill="none" r="55" stroke="green" stroke-width="3"/>
<line fill="none" stroke="red" stroke-width="1" x1="1514" x2="-714" y1="-46" y2="846"/>
<line fill="none" stroke="purple" stroke-width="1" x1="1595" x2="-793" y1="292" y2="524"/>
<circle cx="400" cy="400" fill="black" r="2" stroke="darkgray" stroke-width="2"/>
<circle cx="480" cy="400" fill="black" r="2" stroke="darkgray" stroke-width="2"/>
<circle cx="319" cy="400" fill="black" r="2" stroke="blue" stroke-width="2"/>
<circle cx="427" cy="400" fill="black" r="2" stroke="blue" stroke-width="2"/>
<circle cx="372" cy="400" fill="black" r="2" stroke="blue" stroke-width="2"/>
<circle cx="474" cy="371" fill="black" r="2" stroke="green" stroke-width="2"/>
<circle cx="474" cy="430" fill="black" r="2" stroke="green" stroke-width="2"/>
<circle cx="482" cy="400" fill="black" r="2" stroke="green" stroke-width="2"/>
<circle cx="374" cy="411" fill="black" r="2" stroke="red" stroke-width="2"/>
<circle cx="373" cy="411" fill="black" r="2" stroke="red" stroke-width="2"/>
<circle cx="321" cy="416" fill="black" r="2" stroke="purple" stroke-width="2"/>
<circle cx="427" cy="406" fill="black" r="2" stroke="purple" stroke-width="2"/>
<circle cx="373" cy="411" fill="black" r="2" stroke="purple" stroke-width="2"/>
<circle cx="482" cy="400" fill="black" r="2" stroke="purple" stroke-width="2"/>
</svg>