<svg viewBox="0 0 800 800" xmlns="http://www.w3.org/2000/svg">
<line fill="none" stroke="darkgray" stroke-width="3" x1="-800" x2="1600" y1="400" y2="400"/>
<line fill="none" stroke="darkgray" stroke-width="3" x1="-800" x2="1600" y1="241" y2="240"/>
<circle cx="400" cy="400" fill="none" r="161" stroke="blue" stroke-width="3"/>
<circle cx="238" cy="400" fill="none" r="322" stroke="green" stroke-width="3"/>
<line fill="none" stroke="red" stroke-width="1" x1="242" x2="858" y1="-799" y2="1519"/>
<line fill="none" stroke="red" stroke-width="1" x1="-749" x2="1570" y1="52" y2="669"/>
<line fill="none" stroke="brown" stroke-width="1" x1="-800" x2="1600" y1="321" y2="320"/>
<circle cx="400" cy="400" fill="black" r="2" stroke="darkgray" stroke-width="2"/>
<circle cx="418" cy="240" fill="black" r="2" stroke="darkgray" stroke-width="2"/>
<circle cx="561" cy="400" fill="black" r="2" stroke="blue" stroke-width="2"/>
<circle cx="238" cy="400" fill="black" r="2" stroke="blue" stroke-width="2"/>
<circle cx="381" cy="240" fill="black" r="2" stroke="blue" stroke-width="2"/>
<circle cx="-83" cy="400" fill="black" r="2" stroke="green" stroke-width="2"/>
<circle cx="518" cy="240" fill="black" r="2" stroke="green" stroke-width="2"/>
<circle cx="-40" cy="240" fill="black" r="2" stroke="green" stroke-width="2"/>
<circle cx="539" cy="320" fill="black" r="2" stroke="red" stroke-width="2"/>
<circle cx="260" cy="320" fill="black" r="2" stroke="red" stroke-width="2"/>
<circle cx="551" cy="320" fill="black" r="2" stroke="brown" stroke-width="2"/>
<circle cx="-73" cy="320" fill="black" r="2" stroke="brown" stroke-width="2"/>
</svg>