<svg viewBox="0 0 800 800" xmlns="http://www.w3.org/2000/svg">
<circle cx="400" cy="400" fill="none" r="200" stroke="darkgray" stroke-width="3"/>
<line fill="none" stroke="blue" stroke-width="3" x1="-294" x2="1314" y1="-589" y2="1190"/>
<circle cx="600" cy="400" fill="none" r="268" stroke="blue" stroke-width="3"/>
<circle cx="420" cy="599" fill="none" r="268" stroke="green" stroke-width="3"/>
<circle cx="600" cy="400" fill="none" r="397" stroke="red" stroke-width="1"/>
<circle cx="682" cy="656" fill="none" r="268" stroke="red" stroke-width="1"/>
<line fill="none" stroke="brown" stroke-width="1" x1="-589" x2="1489" y1="-286" y2="913"/>
<circle cx="337" cy="344" fill="none" r="268" stroke="red" stroke-width="1"/>
<line fill="none" stroke="brown" stroke-width="1" x1="1489" x2="-589" y1="-113" y2="1086"/>
<circle cx="780" cy="599" fill="none" r="536" stroke="red" stroke-width="1"/>
<line fill="none" stroke="brown" stroke-width="1" x1="299" x2="300" y1="-800" y2="1600"/>
<circle cx="600" cy="400" fill="black" r="2" stroke="darkgray" stroke-width="2"/>
<circle cx="420" cy="202" fill="black" r="2" stroke="darkgray" stroke-width="2"/>
<circle cx="420" cy="599" fill="black" r="2" stroke="blue" stroke-width="2"/>
<circle cx="780" cy="599" fill="black" r="2" stroke="green" stroke-width="2"/>
<circle cx="203" cy="440" fill="black" r="2" stroke="green" stroke-width="2"/>
<circle cx="636" cy="440" fill="black" r="2" stroke="red" stroke-width="2"/>
<circle cx="682" cy="656" fill="black" r="2" stroke="green" stroke-width="2"/>
<circle cx="337" cy="344" fill="black" r="2" stroke="green" stroke-width="2"/>
<circle cx="203" cy="361" fill="black" r="2" stroke="red" stroke-width="2"/>
<circle cx="502" cy="854" fill="black" r="2" stroke="red" stroke-width="2"/>
<circle cx="944" cy="599" fill="black" r="2" stroke="purple" stroke-width="2"/>
<circle cx="299" cy="227" fill="black" r="2" stroke="brown" stroke-width="2"/>
<circle cx="832" cy="535" fill="black" r="2" stroke="brown" stroke-width="2"/>
<circle cx="367" cy="266" fill="black" r="2" stroke="brown" stroke-width="2"/>
<circle cx="502" cy="344" fill="black" r="2" stroke="brown" stroke-width="2"/>
<circle cx="255" cy="202" fill="black" r="2" stroke="brown" stroke-width="2"/>
<circle cx="157" cy="543" fill="black" r="2" stroke="red" stroke-width="2"/>
<circle cx="255" cy="599" fill="black" r="2" stroke="purple" stroke-width="2"/>
<circle cx="300" cy="574" fill="black" r="2" stroke="brown" stroke-width="2"/>
<circle cx="367" cy="535" fill="black" r="2" stroke="brown" stroke-width="2"/>
<circle cx="832" cy="266" fill="black" r="2" stroke="brown" stroke-width="2"/>
<circle cx="157" cy="656" fill="black" r="2" stroke="brown" stroke-width="2"/>
<circle cx="944" cy="202" fill="black" r="2" stroke="brown" stroke-width="2"/>
<circle cx="247" cy="530" fill="black" r="2" stroke="red" stroke-width="2"/>
<circle cx="1140" cy="996" fill="black" r="2" stroke="red" stroke-width="2"/>
<circle cx="299" cy="359" fill="black" r="2" stroke="purple" stroke-width="2"/>
<circle cx="300" cy="838" fill="black" r="2" stroke="purple" stroke-width="2"/>
<circle cx="299" cy="69" fill="black" r="2" stroke="brown" stroke-width="2"/>
</svg>